<svg id="5027b1c2-df4c-442a-9393-76a32b53b16d" data-name="Layer 1" xmlns="http://www.w3.org/2000/svg" width="147.33273" height="37.43329" viewBox="0 0 147.33273 37.43329"><defs><style>.\37 9f93564-d1a8-47d1-93e1-9c1c08192423{fill:#fff;}</style></defs><title>docker</title><path class="79f93564-d1a8-47d1-93e1-9c1c08192423" d="M48.64967,14.83906a8.14039,8.14039,0,0,0-3.45623-5.3653l-1.17969-.78643L43.22658,9.868a9.16,9.16,0,0,0-1.34619,5.64368A7.17325,7.17325,0,0,0,42.91927,18.609a8.43985,8.43985,0,0,1-4.07672.89685H2.24666l-.07141.42138A17.8747,17.8747,0,0,0,5.94942,33.15406c3.12451,3.69885,7.80914,5.57428,13.92358,5.57428,13.25476,0,23.0611-6.10138,27.65332-17.19238,1.80359.03631,5.69409.01013,7.69184-3.80548.05133-.08722.17114-.31665.52014-1.03992l.19146-.39618-1.12359-.75012C53.59041,14.73164,50.79958,14.43379,48.64967,14.83906Zm-17.142-13.544h-5.5644V6.35358h5.5644Zm0,6.07025h-5.5644v5.0586h5.5644Zm-6.57612,0H19.36714v5.0586h5.56439Zm-6.57611,0H12.791v5.0586h5.56439Zm-6.57611,6.07026H6.21492v5.05859h5.56439Zm6.57611,0H12.791v5.05859h5.56439Zm6.57611,0H19.36714v5.05859h5.56439Zm6.57612,0h-5.5644v5.05859h5.5644Zm6.57611,0h-5.5644v5.05859h5.5644Zm57.89129,9.72229A4.87793,4.87793,0,0,1,97.49678,22.129a4.626,4.626,0,0,1,1.86133-.3772,4.45622,4.45622,0,0,1,1.65759.30176,5.2058,5.2058,0,0,1,1.45374.89166,1.431,1.431,0,0,0,.92389.32922,1.35334,1.35334,0,0,0,1.0122-.4115,1.41562,1.41562,0,0,0,.40082-1.02887,1.39876,1.39876,0,0,0-.48913-1.08368,7.20488,7.20488,0,0,0-4.95911-1.86566,7.29567,7.29567,0,0,0-5.38025,2.24976,7.736,7.736,0,0,0,0,10.86462,7.54191,7.54191,0,0,0,10.33936.3841,1.45454,1.45454,0,0,0,.44836-1.05628,1.39229,1.39229,0,0,0-.40082-1.022,1.365,1.365,0,0,0-1.0122-.40472,1.51244,1.51244,0,0,0-.89667.30181,4.89478,4.89478,0,0,1-1.44019.88483,4.54828,4.54828,0,0,1-1.65759.29492,4.625,4.625,0,0,1-1.86133-.37726,4.876,4.876,0,0,1-1.52173-1.02886,4.83579,4.83579,0,0,1,0-6.81781Zm23.58679-2.8465a1.33934,1.33934,0,0,0-.11547-.54871,1.59236,1.59236,0,0,0-.30567-.45953,1.33777,1.33777,0,0,0-.44836-.30866,1.40872,1.40872,0,0,0-.55707-.10974,1.37224,1.37224,0,0,0-.76086.21949l-8.12476,5.3363v-10.7a1.3973,1.3973,0,0,0-.41437-1.022,1.35453,1.35453,0,0,0-.99859-.41839,1.37027,1.37027,0,0,0-1.01221.41839,1.3973,1.3973,0,0,0-.41437,1.022V32.80842a1.40394,1.40394,0,0,0,.41437,1.01514,1.35931,1.35931,0,0,0,1.01221.42529,1.34387,1.34387,0,0,0,.99859-.42529,1.40394,1.40394,0,0,0,.41437-1.01514V27.85627l1.65759-1.09747,6.277,7.11963a1.30876,1.30876,0,0,0,.95105.37042,1.40977,1.40977,0,0,0,.55707-.10974,1.33849,1.33849,0,0,0,.44836-.30866,1.59265,1.59265,0,0,0,.30567-.45959,1.33914,1.33914,0,0,0,.11547-.54871,1.4573,1.4573,0,0,0-.394-1.0014l-5.84222-6.63953L119.01839,21.45A1.28278,1.28278,0,0,0,119.56184,20.31135Zm-47.6632-8.01129a1.365,1.365,0,0,0-1.01221.40472,1.39229,1.39229,0,0,0-.40082,1.022V20.572a7.56956,7.56956,0,0,0-10.14917.56244,7.73616,7.73616,0,0,0,0,10.86462,7.55832,7.55832,0,0,0,10.76056,0,7.37945,7.37945,0,0,0,2.22821-5.43231v-12.84a1.36827,1.36827,0,0,0-.41437-1.022A1.394,1.394,0,0,0,71.89864,12.30006ZM70.112,28.42555A4.95093,4.95093,0,0,1,69.093,29.95509a4.83315,4.83315,0,0,1-1.51489,1.0426,4.7351,4.7351,0,0,1-3.73627,0A4.80835,4.80835,0,0,1,62.3337,29.962a4.90611,4.90611,0,0,1-1.01221-1.5296,4.845,4.845,0,0,1,0-3.73126,4.90526,4.90526,0,0,1,1.01221-1.52954,4.80735,4.80735,0,0,1,1.50811-1.03571,4.7351,4.7351,0,0,1,3.73627,0A4.832,4.832,0,0,1,69.093,23.17841,4.95164,4.95164,0,0,1,70.112,24.708a4.811,4.811,0,0,1,0,3.7176ZM148.99141,19.845a2.67544,2.67544,0,0,0-.95782-.583,5.5649,5.5649,0,0,0-1.26355-.295,10.81682,10.81682,0,0,0-1.28394-.08228,7.35272,7.35272,0,0,0-2.55432.439,7.766,7.766,0,0,0-2.21454,1.262v-.27435a1.38094,1.38094,0,0,0-.41443-1.00824,1.35454,1.35454,0,0,0-.99859-.4184,1.42165,1.42165,0,0,0-1.42658,1.42664v12.5108a1.42165,1.42165,0,0,0,1.42658,1.4267,1.35454,1.35454,0,0,0,.99859-.4184,1.38108,1.38108,0,0,0,.41443-1.0083V26.56678a4.749,4.749,0,0,1,.3736-1.87939,4.84644,4.84644,0,0,1,1.019-1.52954,4.79527,4.79527,0,0,1,1.51489-1.02887,4.6263,4.6263,0,0,1,1.86139-.3772,4.95906,4.95906,0,0,1,1.86133.34295,1.50713,1.50713,0,0,0,.59784.15088,1.40939,1.40939,0,0,0,.557-.10974,1.33731,1.33731,0,0,0,.44837-.30865,1.593,1.593,0,0,0,.30572-.45954,1.373,1.373,0,0,0,.11548-.56244A1.28085,1.28085,0,0,0,148.99141,19.845Zm-14.905,1.28949a7.55832,7.55832,0,0,0-10.76056,0,7.736,7.736,0,0,0,0,10.86462,7.55906,7.55906,0,0,0,10.353.3841,1.43275,1.43275,0,0,0,.40759-1.02887,1.39237,1.39237,0,0,0-.40082-1.022,1.36518,1.36518,0,0,0-1.0122-.40466,1.47612,1.47612,0,0,0-.93744.35663,4.49352,4.49352,0,0,1-1.38587.82312,4.73834,4.73834,0,0,1-1.644.27435,4.67749,4.67749,0,0,1-1.51489-.24695,4.86513,4.86513,0,0,1-1.33148-.69274,4.79423,4.79423,0,0,1-1.05292-1.07,4.70436,4.70436,0,0,1-.67932-1.37866H134.888a1.394,1.394,0,0,0,1.0122-.40467,1.36835,1.36835,0,0,0,.41437-1.022,7.74922,7.74922,0,0,0-.557-2.95624A7.46439,7.46439,0,0,0,134.08644,21.13447Zm-9.95892,4.00561a4.46116,4.46116,0,0,1,.66571-1.37866,4.73026,4.73026,0,0,1,1.05975-1.07,4.94582,4.94582,0,0,1,1.3451-.69274,4.69635,4.69635,0,0,1,1.508-.24689,4.6361,4.6361,0,0,1,1.50134.24689,4.867,4.867,0,0,1,1.33149.69274,4.92572,4.92572,0,0,1,1.05975,1.07,4.61585,4.61585,0,0,1,.6861,1.37866ZM87.93129,21.13447a7.55832,7.55832,0,0,0-10.76056,0,7.736,7.736,0,0,0,0,10.86462,7.55832,7.55832,0,0,0,10.76056,0,7.37945,7.37945,0,0,0,2.22821-5.43231,7.96576,7.96576,0,0,0-.56384-2.9494A7.54,7.54,0,0,0,87.93129,21.13447Zm-.98505,7.29108a4.95162,4.95162,0,0,1-1.019,1.52954,4.83315,4.83315,0,0,1-1.51489,1.0426,4.7351,4.7351,0,0,1-3.73627,0A4.80835,4.80835,0,0,1,79.168,29.962a4.90594,4.90594,0,0,1-1.01221-1.5296,4.84424,4.84424,0,0,1,0-3.73126A4.90509,4.90509,0,0,1,79.168,23.17158a4.80735,4.80735,0,0,1,1.50811-1.03571,4.7351,4.7351,0,0,1,3.73627,0,4.832,4.832,0,0,1,1.51489,1.04254,4.95233,4.95233,0,0,1,1.019,1.52954,4.8102,4.8102,0,0,1,0,3.7176Z" transform="translate(-2.03911 -1.29505)"/></svg>