<svg id="912d3b5d-6ffe-4688-aa16-bb3f2d54f8fe" data-name="Layer 1" xmlns="http://www.w3.org/2000/svg" width="270.60338" height="77.25754" viewBox="0 0 270.60338 77.25754"><defs><style>.\38 7406c14-1abc-4c97-8cea-cce2c9bb9d49{fill:#fff;}</style></defs><title>foodr</title><path class="87406c14-1abc-4c97-8cea-cce2c9bb9d49" d="M271.18765,38.18591c-5.52091,9.35678-9.22216,14.47437-11.78023,14.47437-1.07637,0-2.759-.94324.336-8.61742l3.03067-7.47176a9.33378,9.33378,0,0,0,.80815-3.434c0-4.30846-5.31851-7.203-8.01314-9.8284l2.55954-5.99156-3.6359-2.55855c-2.7585.87594-5.99009,3.97244-5.99009,7.13623a6.39033,6.39033,0,0,0,2.08644,4.30846c-1.95281,4.30895-4.10556,8.752-5.99058,11.98312l.00246.00394c-4.57571,7.80927-9.89275,14.47043-13.32381,14.47043-1.48119,0-2.76194-1.27927.20143-8.61741l14.5402-36.01668H238.9509l-7.2728,17.90738S230.67,20.48045,225.015,20.48045c-7.545,0-12.84973,9.53314-15.59791,18.0975-3.64131,5.94292-7.70315,8.14038-11.18972,7.41576,2.8936-5.45165,4.51087-11.84753,4.51087-16.0204,0-6.46269-3.77051-9.49286-8.7535-9.49286-8.79524,0-14.79123,9.398-17.51386,17.93882-3.66243,6.07016-7.7739,8.30447-11.2919,7.57444,2.89605-5.45165,4.51038-11.84753,4.51038-16.0204,0-6.46269-3.77-9.49286-8.75056-9.49286-8.80312,0-14.804,9.41229-17.52271,17.959-4.60715,7.95861-9.8849,11.66036-17.00786,11.66036a8.51094,8.51094,0,0,1-5.85744-2.15276l1.54947-3.77052c8.21211-.26824,10.70386-3.29742,14.20368-9.62649a130.57929,130.57929,0,0,0,8.61693-19.85871c2.35614-7.47177.0673-12.04945-5.318-12.04945-4.8464,0-9.088,3.09649-13.1941,13.53014l-19.926,49.3449c-3.50081,8.61693-.40432,11.91434,4.23968,11.91434,4.37675,0,7.20305-2.96139,9.49238-6.99916a42.03708,42.03708,0,0,0,4.44209-12.723,16.19664,16.19664,0,0,0,.1351-3.90414,20.56005,20.56005,0,0,0,16.99312-6.94758c-.00934.24957-.0339.51731-.0339.75361,0,6.53,3.83733,9.55919,8.81883,9.55919,4.983,0,9.089-3.02919,12.185-7.26985,4.52854,1.16579,8.65328-.39695,12.10544-3.63345-.03094.4613-.05994.92408-.05994,1.34363,0,6.53,3.83635,9.55918,8.81883,9.55918,4.98053,0,9.08658-3.02919,12.18552-7.26985,4.34188,1.11863,8.32216-.25448,11.68788-3.22423a22.43726,22.43726,0,0,0-.24907,2.954c0,4.24017,2.15275,7.54005,6.46122,7.54005,5.45313,0,9.49336-5.38435,9.49336-5.38435s0,5.38435,6.12518,5.38435c6.93431,0,12.99367-7.87608,18.1761-16.89732l-.002-.00442c2.221-3.90415,4.16844-7.94094,5.85156-11.57439,2.15521,1.81722,3.50228,2.96139,3.50228,4.30847a6.63492,6.63492,0,0,1-.60672,2.28785l-2.49125,6.05985c-4.77812,11.57979-1.61432,15.81947,3.70273,15.81947,6.39587,0,11.44371-7.94486,16.62957-16.89733A3.73783,3.73783,0,0,0,271.18765,38.18591ZM132.86984,17.65415c1.88452-4.64547,4.17286-9.29,6.79872-9.29,1.61579,0,1.14466,2.62536.60623,4.51086a126.31176,126.31176,0,0,1-8.88565,20.59956c-2.42443,4.44208-4.37675,6.3944-7.74245,6.86553ZM120.54921,57.37306c-.94226,4.44159-4.84641,15.88579-8.61643,15.34785-.47113-.06829-1.14369-.47211-.06731-3.36669l7.06942-17.36894C120.41558,52.45738,121.29,53.80445,120.54921,57.37306Zm40.18562-17.30263a4.16718,4.16718,0,0,0-3.50277,7.06745c-1.95035,3.09846-4.17139,5.25122-6.25833,5.25122-1.81819,0-2.96139-1.54948-2.96139-4.10655,0-6.26029,6.73191-23.02251,12.65518-23.02251,1.548,0,2.761,1.14516,2.761,3.97243C163.42847,31.79151,162.34963,35.96438,160.73483,40.07043Zm33.04691,0a4.16556,4.16556,0,0,0-3.49984,7.06745c-1.95281,3.09846-4.17434,5.25122-6.26126,5.25122-1.81673,0-2.9614-1.54948-2.9614-4.10655,0-6.26029,6.73141-23.02251,12.65764-23.02251,1.546,0,2.759,1.14516,2.759,3.97243C196.47539,31.79151,195.3995,35.96438,193.78174,40.07043Zm30.15628,5.0493s-3.77,6.193-7.74246,6.193c-1.4807,0-2.221-.874-2.221-2.759,0-5.319,5.92278-22.08123,12.25185-22.08123,3.36669,0,3.29792,4.84739,3.29792,4.84739Z" transform="translate(-3.48237 -0.38297)"/><path class="87406c14-1abc-4c97-8cea-cce2c9bb9d49" d="M10.09834,24.89355V53.1319A18.8211,18.8211,0,0,0,28.919,71.95452H47.93027V18.64309l-.19307-.19357.19307-.1911V10.52628l-.10169-.10022.10169-.10415V6.069H28.919A18.82183,18.82183,0,0,0,10.09834,24.89355Z" transform="translate(-3.48237 -0.38297)"/><polygon class="87406c14-1abc-4c97-8cea-cce2c9bb9d49" points="46.405 5.686 46.405 9.15 82.287 45.034 83.214 45.034 83.214 40.273 48.629 5.686 46.405 5.686"/><polygon class="87406c14-1abc-4c97-8cea-cce2c9bb9d49" points="62.582 45.034 46.405 28.857 46.405 34.252 57.187 45.034 62.582 45.034"/><polygon class="87406c14-1abc-4c97-8cea-cce2c9bb9d49" points="46.405 37.197 46.405 45.034 54.239 45.034 46.405 37.197"/><polygon class="87406c14-1abc-4c97-8cea-cce2c9bb9d49" points="74.129 45.034 79.337 45.034 46.405 12.1 46.405 17.27 74.129 45.034"/><polygon class="87406c14-1abc-4c97-8cea-cce2c9bb9d49" points="71.218 45.034 46.405 20.217 46.405 25.91 65.529 45.034 71.218 45.034"/><path class="87406c14-1abc-4c97-8cea-cce2c9bb9d49" d="M86.68136,24.55064,68.21491,6.08714c-.113-.00246-.224-.01769-.339-.01769H63.5493L86.69659,29.21921V24.89453C86.69659,24.77859,86.68333,24.6656,86.68136,24.55064Z" transform="translate(-3.48237 -0.38297)"/><polygon class="87406c14-1abc-4c97-8cea-cce2c9bb9d49" points="51.577 5.686 83.214 37.324 83.214 31.781 57.117 5.686 51.577 5.686"/><path class="87406c14-1abc-4c97-8cea-cce2c9bb9d49" d="M71.50546,6.4271,86.34238,21.264A18.83344,18.83344,0,0,0,71.50546,6.4271Z" transform="translate(-3.48237 -0.38297)"/><path class="87406c14-1abc-4c97-8cea-cce2c9bb9d49" d="M71.23575.383H25.55869A22.07382,22.07382,0,0,0,3.48237,22.45487V55.56862A22.07318,22.07318,0,0,0,25.55869,77.64051H71.23575a22.0735,22.0735,0,0,0,22.07632-22.0719V22.45487A22.07319,22.07319,0,0,0,71.23575.383Zm19.2461,54.14365A20.68082,20.68082,0,0,1,69.79828,75.2038H26.99665A20.68124,20.68124,0,0,1,6.31259,54.52662V23.49735A20.6827,20.6827,0,0,1,26.99665,2.81772H69.79829A20.68259,20.68259,0,0,1,90.48185,23.49735V54.52662Z" transform="translate(-3.48237 -0.38297)"/><polygon class="87406c14-1abc-4c97-8cea-cce2c9bb9d49" points="46.405 63.509 74.673 47.119 67.713 47.119 46.405 59.47 46.405 63.509"/><polygon class="87406c14-1abc-4c97-8cea-cce2c9bb9d49" points="57.904 47.119 46.405 53.788 46.405 57.836 64.889 47.119 57.904 47.119"/><path class="87406c14-1abc-4c97-8cea-cce2c9bb9d49" d="M64.37021,71.955l-.15868-.27855,21.4529-12.43607a18.54992,18.54992,0,0,0,.93587-4.19645L57.43885,71.95551h6.93136Z" transform="translate(-3.48237 -0.38297)"/><polygon class="87406c14-1abc-4c97-8cea-cce2c9bb9d49" points="55.081 47.119 46.405 47.119 46.405 52.148 55.081 47.119"/><polygon class="87406c14-1abc-4c97-8cea-cce2c9bb9d49" points="83.21 47.119 77.497 47.119 46.405 65.143 46.405 69.156 83.212 47.817 83.21 47.119"/><path class="87406c14-1abc-4c97-8cea-cce2c9bb9d49" d="M66.55981,71.955h1.31612A18.80217,18.80217,0,0,0,84.7654,61.39953Z" transform="translate(-3.48237 -0.38297)"/><path class="87406c14-1abc-4c97-8cea-cce2c9bb9d49" d="M55.348,71.52908,86.68775,53.35985c0-.07566.00885-.15229.00885-.22795V49.835L49.8875,71.1729v.7821h5.70564Z" transform="translate(-3.48237 -0.38297)"/></svg>