<svg id="c7c427dc-f4e4-45f3-af00-7308402aa368" data-name="Layer 1" xmlns="http://www.w3.org/2000/svg" width="135.92257" height="38.07355" viewBox="0 0 135.92257 38.07355"><defs><style>.\37 30965e8-de40-49f6-9854-0fe6369a9b3e{fill:#fff;}</style></defs><title>heroku</title><g id="2bd8fc46-617d-4b60-b0e8-bdc79bc8ce64" data-name="Page-1"><g id="8be06d39-2eb4-4324-896f-6f55b884419d" data-name="main"><g id="c878cc5f-8e27-4a5f-9feb-17a4a258e840" data-name="nav"><path id="41d2a6c2-4666-42d1-833b-4cf413c2ac02" data-name="logo" class="730965e8-de40-49f6-9854-0fe6369a9b3e" d="M32.491,0H5.17326A3.41238,3.41238,0,0,0,1.74664,3.42662V34.64693a3.41238,3.41238,0,0,0,3.42662,3.42662H32.491a3.41238,3.41238,0,0,0,3.42662-3.42662V3.42662A3.41238,3.41238,0,0,0,32.491,0ZM34.014,34.64693a1.50347,1.50347,0,0,1-1.52294,1.523H5.17326a1.50347,1.50347,0,0,1-1.52294-1.523V3.42662A1.50346,1.50346,0,0,1,5.17326,1.90368H32.491A1.50346,1.50346,0,0,1,34.014,3.42662V34.64693ZM10.31319,32.36252l4.28328-3.80736-4.28328-3.80735ZM25.733,16.94273a6.22483,6.22483,0,0,0-4.56882-1.71331A22.6958,22.6958,0,0,0,14.02537,16.562V5.711H10.31319V22.17784l2.66515-1.23739a23.57536,23.57536,0,0,1,8.18582-1.99886c1.90367,0,2.37959,1.047,2.37959,1.99886V32.36252h3.80736V20.94045A5.79277,5.79277,0,0,0,25.733,16.94273ZM20.68824,11.898h3.80735a11.4816,11.4816,0,0,0,2.85552-6.187H23.54375A14.05221,14.05221,0,0,1,20.68824,11.898Zm105.17818,8.94729V12.3739h3.80736v8.37619c0,1.90367.66628,2.85551,2.18923,2.85551s2.094-.85665,2.094-2.85551V12.3739h3.71217v8.47137c0,3.71217-1.80849,5.9014-5.9014,5.9014S125.86642,24.55744,125.86642,20.84527Zm-15.99089-8.37618h3.80735V17.609l3.90254-5.13993h4.37846l-4.7592,5.52066,5.13993,8.56655h-4.28327l-3.33144-5.61585-1.047,1.23739V26.5563h-3.80735V12.46909ZM91.79059,19.41751c0-5.13993,3.5218-7.32916,6.94842-7.32916s6.94843,2.18923,6.94843,7.32916-3.5218,7.32916-6.94843,7.32916S91.79059,24.65262,91.79059,19.41751Zm9.99431,0c0-2.57-1.14221-4.18809-3.14108-4.18809s-3.14107,1.61813-3.14107,4.18809,1.14221,4.28327,3.14107,4.28327S101.7849,22.08266,101.7849,19.41751ZM76.466,12.46909h5.52067c3.617,0,5.80622,1.23739,5.80622,4.56882,0,2.18923-.95184,3.52181-2.76034,4.09291l2.9507,5.42548H83.98551l-2.76033-4.85438h-1.047V26.5563H76.466V12.46909Zm5.42548,6.28213c1.52294,0,2.28442-.47592,2.28442-1.61812S83.50959,15.515,81.89146,15.515H80.27334v3.23625ZM61.90285,12.46909H71.99234v3.14106H65.7102v2.28442h4.47364v2.9507H65.7102v2.57h6.56769v3.04589h-10.375v-13.992Zm-17.22828,0h3.80735V17.7042h4.664V12.46909H56.9533V26.5563H53.14594v-5.711h-4.664v5.711H44.67457V12.46909Z" transform="translate(-1.74664)"/></g></g></g></svg>