<svg id="77d3eb9a-85ea-45cc-8c34-b63b5f461c73" data-name="Layer 1" xmlns="http://www.w3.org/2000/svg" width="83.87618" height="44.12216" viewBox="0 0 83.87618 44.12216"><defs><style>.\30 2a695c6-c4fb-447c-b63f-f694585d752e{fill:#fff;}</style></defs><title>php</title><path class="02a695c6-c4fb-447c-b63f-f694585d752e" d="M62.08862,15.79538H58.78887l-1.7983,9.25283H59.92a7.07275,7.07275,0,0,0,4.33844-1.09735A5.82727,5.82727,0,0,0,66.183,20.28669q.47817-2.46457-.43551-3.47809Q64.83291,15.79536,62.08862,15.79538Z"/><path class="02a695c6-c4fb-447c-b63f-f694585d752e" d="M41.93807,0C18.77668,0,0,9.87727,0,22.06108S18.77668,44.12216,41.93807,44.12216,83.87618,34.2449,83.87618,22.06108,65.09946,0,41.93807,0ZM30.54639,26.04008a8.50815,8.50815,0,0,1-3.20554,1.92333,14.7709,14.7709,0,0,1-4.49309.57357H18.72262l-1.14239,5.87781h-4.816l4.297-22.10817h9.26112q4.179,0,6.09587,2.19351,1.91619,2.19351,1.15245,6.12431a9.60579,9.60579,0,0,1-3.02424,5.41564ZM44.60426,28.537,46.50508,18.755a2.65431,2.65431,0,0,0-.23878-2.27647,3.35745,3.35745,0,0,0-2.39735-.60733h-3.8188L37.5888,28.537H32.81071l4.297-22.10818h4.7781L40.7434,12.30662h4.25667q4.01732,0,5.54246,1.40132,1.52514,1.4016.91484,4.54109L49.4582,28.537Zm26.55646-7.91254a9.60569,9.60569,0,0,1-3.02423,5.41564A8.50807,8.50807,0,0,1,64.931,27.96341a14.7709,14.7709,0,0,1-4.49309.57357H56.31273l-1.14239,5.87781h-4.816l4.297-22.10817h9.26111q4.17906,0,6.09587,2.19351Q71.92452,16.69364,71.16072,20.62444Z"/><path class="02a695c6-c4fb-447c-b63f-f694585d752e" d="M24.49852,15.79538H21.19877l-1.79832,9.25283h2.92943a7.07281,7.07281,0,0,0,4.33846-1.09735,5.82746,5.82746,0,0,0,1.92451-3.66417q.47817-2.46457-.43551-3.47809Q27.24279,15.79536,24.49852,15.79538Z"/></svg>