<svg id="17eb3e2c-38c3-4600-8359-307deadc13c2" data-name="Layer 1" xmlns="http://www.w3.org/2000/svg" width="595.42285" height="366.85644" viewBox="0 0 595.42285 366.85644"><defs><style>.d37e2a3e-26cf-4f0e-952a-198ce9e8ceff{fill:#969696;}.bcc7a15f-309d-4ed8-8191-78518853ab03{fill:#010101;}.\35 55c43b4-1c5c-4648-b9f6-83a91e4cec94,.\38 c2e0181-b687-455b-b659-5ec59ccecb48{fill:#fff;}.\35 55c43b4-1c5c-4648-b9f6-83a91e4cec94,.beefbc34-b9d7-4f7d-82b7-7384afca88f1{stroke:#010101;stroke-miterlimit:10;}.beefbc34-b9d7-4f7d-82b7-7384afca88f1{fill:none;}</style></defs><title>sign-chart-2</title><rect class="d37e2a3e-26cf-4f0e-952a-198ce9e8ceff" x="330.61581" y="0.31966" width="83.75559" height="325.75349"/><path class="bcc7a15f-309d-4ed8-8191-78518853ab03" d="M455.46094,57.01314V53.88472l3.99707-3.88184c9.61816-9.15429,13.96289-14.021,14.02148-19.69922,0-3.82373-1.85449-7.35791-7.47461-7.35791a12.82639,12.82639,0,0,0-7.99511,3.18653l-1.62207-3.5918a16.52513,16.52513,0,0,1,10.66015-3.82422c8.11133,0,11.53027,5.562,11.53027,10.9502,0,6.95263-5.041,12.57275-12.97851,20.22021l-3.0127,2.78125v.11572h16.918v4.2295Z" transform="translate(-1.53027 -7.1025)"/><path class="bcc7a15f-309d-4ed8-8191-78518853ab03" d="M485.17871,57.01314V53.88472l3.99707-3.88184c9.61817-9.15429,13.96289-14.021,14.02149-19.69922,0-3.82373-1.8545-7.35791-7.47461-7.35791a12.82642,12.82642,0,0,0-7.99512,3.18653l-1.62207-3.5918a16.52515,16.52515,0,0,1,10.66015-3.82422c8.11133,0,11.53028,5.562,11.53028,10.9502,0,6.95263-5.041,12.57275-12.97852,20.22021l-3.01269,2.78125v.11572h16.918v4.2295Z" transform="translate(-1.53027 -7.1025)"/><path class="bcc7a15f-309d-4ed8-8191-78518853ab03" d="M516.1123,51.16157a17.04228,17.04228,0,0,0,8.34278,2.37549c6.54687,0,8.57422-4.17187,8.5166-7.30029-.05762-5.27246-4.80859-7.53174-9.7334-7.53174h-2.83887V34.88081h2.83887c3.708,0,8.40137-1.91162,8.40137-6.373,0-3.0127-1.91211-5.67774-6.60547-5.67774a13.82994,13.82994,0,0,0-7.53125,2.49121l-1.333-3.708a17.90392,17.90392,0,0,1,9.84961-2.897c7.416,0,10.77637,4.40332,10.77637,8.98047,0,3.88184-2.31738,7.18408-6.95313,8.86426v.11621c4.63575.92676,8.40137,4.40332,8.40137,9.67529,0,6.02588-4.69336,11.29785-13.73144,11.29785a19.13848,19.13848,0,0,1-9.791-2.54931Z" transform="translate(-1.53027 -7.1025)"/><path class="bcc7a15f-309d-4ed8-8191-78518853ab03" d="M561.58887,29.9565c0,7.937-4.17188,11.877-9.03809,11.877-4.69336,0-8.749-3.76611-8.80664-11.356,0-7.53174,4.11328-11.76123,9.0957-11.76123C558.1123,18.71626,561.58887,22.77193,561.58887,29.9565Zm-13.78907.34716c-.11621,4.80909,1.67969,8.459,4.86622,8.459,3.36035,0,4.86718-3.5918,4.86718-8.57471,0-4.57715-1.333-8.40088-4.86718-8.40088C549.47949,21.78706,547.7998,25.55318,547.7998,30.30366Zm4.40332,27.34668L574.335,18.71626h3.24414L555.44727,57.65034Zm33.89356-12.10888c0,7.9375-4.17188,11.87744-8.98047,11.87744-4.69336,0-8.749-3.76611-8.80664-11.29785,0-7.58985,4.11328-11.81934,9.0957-11.81934C582.67773,34.30171,586.09668,38.35738,586.09668,45.54146Zm-13.78906.34765c-.0586,4.8086,1.7959,8.459,4.9248,8.459,3.36035,0,4.86621-3.59229,4.86621-8.57471,0-4.57715-1.332-8.40088-4.86621-8.40088C574.04492,37.37251,572.30762,41.13814,572.30762,45.88911Z" transform="translate(-1.53027 -7.1025)"/><path class="bcc7a15f-309d-4ed8-8191-78518853ab03" d="M456.8252,74.414a1.63484,1.63484,0,0,1-3.26954,0,1.608,1.608,0,0,1,1.64942-1.64991A1.5668,1.5668,0,0,1,456.8252,74.414Zm-2.94043,18.59912V78.49361h2.64062V93.01314Z" transform="translate(-1.53027 -7.1025)"/><path class="bcc7a15f-309d-4ed8-8191-78518853ab03" d="M460.9043,82.42378c0-1.5-.0293-2.73-.11914-3.93017H463.125l.14941,2.3999h.06055a5.33854,5.33854,0,0,1,4.79981-2.73c2.00976,0,5.12988,1.20019,5.12988,6.18017v8.66944H470.624V84.64351c0-2.33985-.87011-4.29-3.35937-4.29a3.75067,3.75067,0,0,0-3.54,2.70019,3.79252,3.79252,0,0,0-.17969,1.23v8.7295H460.9043Z" transform="translate(-1.53027 -7.1025)"/><path class="bcc7a15f-309d-4ed8-8191-78518853ab03" d="M487.9043,92.4731a9.72188,9.72188,0,0,1-4.16895.83984c-4.37988,0-7.23047-2.96972-7.23047-7.40967a7.3776,7.3776,0,0,1,7.79981-7.70947,8.82469,8.82469,0,0,1,3.66015.75l-.59961,2.04a6.12121,6.12121,0,0,0-3.06054-.69043c-3.33008,0-5.12989,2.46-5.12989,5.49023,0,3.35987,2.16016,5.42969,5.04,5.42969a7.49956,7.49956,0,0,0,3.24024-.72021Z" transform="translate(-1.53027 -7.1025)"/><path class="bcc7a15f-309d-4ed8-8191-78518853ab03" d="M490.99414,83.02339c0-1.71-.0293-3.17969-.11914-4.52978h2.30957l.08984,2.85009h.12012a4.35641,4.35641,0,0,1,4.01953-3.18017,2.85459,2.85459,0,0,1,.75.09033v2.48975a3.95856,3.95856,0,0,0-.89941-.08985c-1.86035,0-3.18067,1.40967-3.54,3.38965a7.37257,7.37257,0,0,0-.12012,1.23v7.73975h-2.61035Z" transform="translate(-1.53027 -7.1025)"/><path class="bcc7a15f-309d-4ed8-8191-78518853ab03" d="M501.97461,86.23335c.05957,3.56983,2.33984,5.04,4.97949,5.04a9.54409,9.54409,0,0,0,4.01953-.75l.4502,1.88965a11.75942,11.75942,0,0,1-4.83008.8999c-4.46973,0-7.13965-2.93945-7.13965-7.31933s2.58008-7.83008,6.80957-7.83008c4.74024,0,6,4.16992,6,6.83984a9.90954,9.90954,0,0,1-.08984,1.23Zm7.73926-1.88965c.03027-1.68017-.68946-4.29-3.66016-4.29-2.66992,0-3.83984,2.46-4.0498,4.29Z" transform="translate(-1.53027 -7.1025)"/><path class="bcc7a15f-309d-4ed8-8191-78518853ab03" d="M523.57422,93.01314l-.21-1.83008h-.08985a5.40713,5.40713,0,0,1-4.43945,2.16016,4.1368,4.1368,0,0,1-4.44043-4.16993c0-3.50976,3.12012-5.42968,8.72949-5.3999v-.2998c0-1.2002-.33007-3.35987-3.2998-3.35987a7.23033,7.23033,0,0,0-3.7793,1.08008l-.60058-1.74023a9.01553,9.01553,0,0,1,4.7705-1.29c4.43946,0,5.51954,3.03027,5.51954,5.93994v5.42969a20.37126,20.37126,0,0,0,.24023,3.48Zm-.38965-7.40967c-2.87988-.06006-6.15039.44971-6.15039,3.27a2.33621,2.33621,0,0,0,2.49023,2.51953,3.61233,3.61233,0,0,0,3.50977-2.42969,2.75992,2.75992,0,0,0,.15039-.83984Z" transform="translate(-1.53027 -7.1025)"/><path class="bcc7a15f-309d-4ed8-8191-78518853ab03" d="M529.63477,90.31343a6.922,6.922,0,0,0,3.47949,1.0498c1.91992,0,2.82031-.96,2.82031-2.16015,0-1.25977-.75-1.94971-2.70019-2.66944-2.60938-.93017-3.83985-2.37011-3.83985-4.10986,0-2.34033,1.88965-4.26025,5.00977-4.26025a7.25107,7.25107,0,0,1,3.57031.90039l-.66016,1.91992a5.64842,5.64842,0,0,0-2.96972-.84033c-1.56055,0-2.43067.8999-2.43067,1.98,0,1.20019.87012,1.74023,2.76074,2.46,2.51954.96,3.80958,2.21973,3.80958,4.37988,0,2.54981-1.98047,4.34961-5.42969,4.34961a8.279,8.279,0,0,1-4.08008-.98974Z" transform="translate(-1.53027 -7.1025)"/><path class="bcc7a15f-309d-4ed8-8191-78518853ab03" d="M543.34473,86.23335c.05957,3.56983,2.33984,5.04,4.97949,5.04a9.54413,9.54413,0,0,0,4.01953-.75l.4502,1.88965a11.75945,11.75945,0,0,1-4.83008.8999c-4.46973,0-7.13965-2.93945-7.13965-7.31933s2.58008-7.83008,6.80957-7.83008c4.74023,0,6,4.16992,6,6.83984a9.90954,9.90954,0,0,1-.08984,1.23ZM551.084,84.3437c.03028-1.68017-.68945-4.29-3.66015-4.29-2.66992,0-3.83985,2.46-4.04981,4.29Z" transform="translate(-1.53027 -7.1025)"/><path class="bcc7a15f-309d-4ed8-8191-78518853ab03" d="M566.2041,74.414a1.63483,1.63483,0,0,1-3.26953,0,1.608,1.608,0,0,1,1.64941-1.64991A1.5668,1.5668,0,0,1,566.2041,74.414Zm-2.94043,18.59912V78.49361h2.64063V93.01314Z" transform="translate(-1.53027 -7.1025)"/><path class="bcc7a15f-309d-4ed8-8191-78518853ab03" d="M570.2832,82.42378c0-1.5-.02929-2.73-.11914-3.93017h2.33985l.14941,2.3999h.06055a5.33851,5.33851,0,0,1,4.7998-2.73c2.00977,0,5.12988,1.20019,5.12988,6.18017v8.66944h-2.64062V84.64351c0-2.33985-.87012-4.29-3.35938-4.29a3.75067,3.75067,0,0,0-3.54,2.70019,3.79252,3.79252,0,0,0-.17969,1.23v8.7295H570.2832Z" transform="translate(-1.53027 -7.1025)"/><path class="bcc7a15f-309d-4ed8-8191-78518853ab03" d="M457.06543,110.32368v4.16993h3.7793v2.01025h-3.7793v7.82959c0,1.7998.50977,2.81982,1.97949,2.81982a5.85714,5.85714,0,0,0,1.53028-.18017l.12011,1.98a6.46782,6.46782,0,0,1-2.33984.35986,3.65817,3.65817,0,0,1-2.85059-1.10986c-.75-.77979-1.01953-2.06983-1.01953-3.77979v-7.91943h-2.25v-2.01025h2.25v-3.4795Z" transform="translate(-1.53027 -7.1025)"/><path class="bcc7a15f-309d-4ed8-8191-78518853ab03" d="M463.81445,107.71382h2.64063v9.06006h.05957a4.90245,4.90245,0,0,1,1.88965-1.86035,5.43732,5.43732,0,0,1,2.70019-.75c1.9502,0,5.07031,1.20019,5.07031,6.21v8.63965h-2.64062v-8.33985c0-2.33984-.87012-4.31982-3.35938-4.31982a3.79375,3.79375,0,0,0-3.54,2.64014,3.18854,3.18854,0,0,0-.17969,1.25976v8.75977h-2.64063Z" transform="translate(-1.53027 -7.1025)"/><path class="bcc7a15f-309d-4ed8-8191-78518853ab03" d="M480.46484,119.02339c0-1.71-.02929-3.17969-.11914-4.52978h2.30957l.08985,2.85009h.12011a4.35642,4.35642,0,0,1,4.01954-3.18017,2.85469,2.85469,0,0,1,.75.09033v2.48975a3.95865,3.95865,0,0,0-.89942-.08985c-1.86035,0-3.18066,1.40967-3.54,3.38965a7.37369,7.37369,0,0,0-.12011,1.23v7.73975h-2.61036Z" transform="translate(-1.53027 -7.1025)"/><path class="bcc7a15f-309d-4ed8-8191-78518853ab03" d="M503.11426,121.63325c0,5.37012-3.71973,7.71-7.22949,7.71-3.92969,0-6.96-2.87989-6.96-7.46973,0-4.85986,3.18067-7.71,7.2002-7.71C500.29492,114.16353,503.11426,117.1938,503.11426,121.63325Zm-11.51953.15039c0,3.17969,1.83007,5.57959,4.41015,5.57959,2.51953,0,4.41016-2.37011,4.41016-5.63964,0-2.46-1.23047-5.58008-4.35059-5.58008C492.94531,116.14351,491.59473,119.02339,491.59473,121.78364Z" transform="translate(-1.53027 -7.1025)"/><path class="bcc7a15f-309d-4ed8-8191-78518853ab03" d="M518.59473,125.05318c0,1.5.02929,2.81982.11914,3.96H516.374l-.14941-2.37012h-.06055a5.46218,5.46218,0,0,1-4.7998,2.7002c-2.2793,0-5.00977-1.26026-5.00977-6.35987v-8.48974h2.64063v8.04c0,2.75977.83984,4.61963,3.23926,4.61963a3.81723,3.81723,0,0,0,3.48046-2.3999,3.87534,3.87534,0,0,0,.23926-1.3501v-8.90966h2.64063Z" transform="translate(-1.53027 -7.1025)"/><path class="bcc7a15f-309d-4ed8-8191-78518853ab03" d="M535.48438,114.49361c-.05958,1.05029-.12012,2.22021-.12012,3.98974V126.913c0,3.33008-.65918,5.37012-2.06934,6.62988a7.69866,7.69866,0,0,1-5.28027,1.73975,9.37192,9.37192,0,0,1-4.8291-1.19971l.65918-2.00976a8.1911,8.1911,0,0,0,4.25976,1.13964c2.7002,0,4.68067-1.40966,4.68067-5.06982v-1.61963h-.06055a5.18365,5.18365,0,0,1-4.62012,2.42969c-3.59961,0-6.17969-3.06006-6.17969-7.07959,0-4.91992,3.21-7.71,6.54-7.71a4.83193,4.83193,0,0,1,4.53028,2.52h.05957l.12011-2.18994Zm-2.7295,5.73a3.75782,3.75782,0,0,0-.15039-1.2002,3.80176,3.80176,0,0,0-3.68945-2.78955c-2.52051,0-4.32031,2.12988-4.32031,5.48975,0,2.84961,1.44043,5.21972,4.29,5.21972a3.85968,3.85968,0,0,0,3.66015-2.70019,4.60851,4.60851,0,0,0,.21-1.40967Z" transform="translate(-1.53027 -7.1025)"/><path class="bcc7a15f-309d-4ed8-8191-78518853ab03" d="M539.74414,107.71382h2.64063v9.06006h.05957a4.90242,4.90242,0,0,1,1.88964-1.86035,5.43739,5.43739,0,0,1,2.7002-.75c1.9502,0,5.07031,1.20019,5.07031,6.21v8.63965h-2.64062v-8.33985c0-2.33984-.87012-4.31982-3.35938-4.31982a3.79377,3.79377,0,0,0-3.54,2.64014,3.18855,3.18855,0,0,0-.17968,1.25976v8.75977h-2.64063Z" transform="translate(-1.53027 -7.1025)"/><path class="bcc7a15f-309d-4ed8-8191-78518853ab03" d="M556.39355,119.23335c0-1.85986-.05957-3.35986-.11914-4.73974h2.36914l.12012,2.49023h.06055a5.70826,5.70826,0,0,1,5.15918-2.82031c3.50976,0,6.15039,2.97021,6.15039,7.37988,0,5.21973-3.18067,7.79981-6.59961,7.79981a5.09326,5.09326,0,0,1-4.4707-2.27979h-.05957v7.88965h-2.61036Zm2.61036,3.87012a5.89726,5.89726,0,0,0,.12011,1.08008,4.07286,4.07286,0,0,0,3.96,3.08984c2.79,0,4.40918-2.28027,4.40918-5.60986,0-2.91016-1.52929-5.3999-4.31933-5.3999a4.21373,4.21373,0,0,0-3.99024,3.27,4.287,4.287,0,0,0-.17968,1.08008Z" transform="translate(-1.53027 -7.1025)"/><path class="bcc7a15f-309d-4ed8-8191-78518853ab03" d="M585.61328,125.05318c0,1.5.0293,2.81982.11914,3.96h-2.33984l-.14942-2.37012h-.06054a5.46221,5.46221,0,0,1-4.79981,2.7002c-2.27929,0-5.00976-1.26026-5.00976-6.35987v-8.48974h2.64062v8.04c0,2.75977.83985,4.61963,3.23926,4.61963a3.81724,3.81724,0,0,0,3.48047-2.3999,3.87558,3.87558,0,0,0,.23926-1.3501v-8.90966h2.64062Z" transform="translate(-1.53027 -7.1025)"/><path class="bcc7a15f-309d-4ed8-8191-78518853ab03" d="M593.17383,110.32368v4.16993h3.77929v2.01025h-3.77929v7.82959c0,1.7998.50976,2.81982,1.97949,2.81982a5.857,5.857,0,0,0,1.53027-.18017l.12012,1.98a6.46782,6.46782,0,0,1-2.33984.35986,3.65816,3.65816,0,0,1-2.85059-1.10986c-.75-.77979-1.01953-2.06983-1.01953-3.77979v-7.91943h-2.25v-2.01025h2.25v-3.4795Z" transform="translate(-1.53027 -7.1025)"/><rect class="d37e2a3e-26cf-4f0e-952a-198ce9e8ceff" x="223.61578" y="127.5" width="83.75559" height="198.57315"/><rect class="bcc7a15f-309d-4ed8-8191-78518853ab03" x="116.23926" y="216.57862" width="83.75559" height="109.49453"/><rect class="bcc7a15f-309d-4ed8-8191-78518853ab03" x="223.61578" y="216.57862" width="83.75559" height="109.49453"/><rect class="bcc7a15f-309d-4ed8-8191-78518853ab03" x="330.61578" y="216.57862" width="83.75559" height="109.49453"/><line class="555c43b4-1c5c-4648-b9f6-83a91e4cec94" x1="330.61581" y1="0.5" x2="509.63929" y2="0.5"/><path class="8c2e0181-b687-455b-b659-5ec59ccecb48" d="M144.88916,242.17866v-.86425l1.10449-1.07227c2.65723-2.5293,3.85742-3.874,3.87354-5.44238a1.85568,1.85568,0,0,0-2.06494-2.03223,3.54006,3.54006,0,0,0-2.2085.87988l-.44824-.99218a4.5639,4.5639,0,0,1,2.94482-1.05664,2.92781,2.92781,0,0,1,3.18555,3.02539c0,1.9209-1.39258,3.47363-3.58545,5.58593l-.83252.76856v.03223h4.67383v1.168Z" transform="translate(-1.53027 -7.1025)"/><path class="8c2e0181-b687-455b-b659-5ec59ccecb48" d="M159.03564,232.76753a5.08139,5.08139,0,0,0-1.05664.06348,4.22934,4.22934,0,0,0-3.61718,3.69726h.04785a3.17154,3.17154,0,0,1,5.65039,2.16114,3.47917,3.47917,0,0,1-3.45752,3.666c-2.22461,0-3.68115-1.72949-3.68115-4.43457a6.54033,6.54033,0,0,1,1.76025-4.68945,5.66516,5.66516,0,0,1,3.32959-1.53711,6.83268,6.83268,0,0,1,1.02441-.08008Zm-.40039,6.00195a2.11387,2.11387,0,0,0-2.14453-2.38476,2.31864,2.31864,0,0,0-2.01709,1.28027,1.20225,1.20225,0,0,0-.15967.624c.03174,1.71289.81592,2.97754,2.28858,2.97754C157.81934,241.26656,158.63525,240.25777,158.63525,238.76948Z" transform="translate(-1.53027 -7.1025)"/><path class="8c2e0181-b687-455b-b659-5ec59ccecb48" d="M161.417,241.34663a.94615.94615,0,0,1,.96-1.00879,1.01051,1.01051,0,1,1-.96,1.00879Z" transform="translate(-1.53027 -7.1025)"/><path class="8c2e0181-b687-455b-b659-5ec59ccecb48" d="M168.9707,242.17866v-2.833h-4.834V238.417l4.6416-6.64258h1.52051v6.46679h1.457v1.1045h-1.457v2.833Zm0-3.9375v-3.47363q0-.81591.04785-1.63183h-.04785c-.32031.60742-.57617,1.05566-.86474,1.53613l-2.54492,3.53711v.03222Z" transform="translate(-1.53027 -7.1025)"/><path class="8c2e0181-b687-455b-b659-5ec59ccecb48" d="M251.48438,153.84566v-2.833h-4.834v-.92871l4.6416-6.64258h1.52051v6.4668h1.457v1.10449h-1.457v2.833Zm0-3.9375v-3.47364q0-.81591.04785-1.63232h-.04785c-.32032.60791-.57618,1.05615-.86475,1.53662l-2.54492,3.53711v.03223Z" transform="translate(-1.53027 -7.1025)"/><path class="8c2e0181-b687-455b-b659-5ec59ccecb48" d="M255.33838,153.84566v-.86426l1.10449-1.07276c2.65723-2.5288,3.85742-3.87353,3.87354-5.44189a1.856,1.856,0,0,0-2.065-2.03271,3.54027,3.54027,0,0,0-2.20849.88037l-.44824-.99268a4.56363,4.56363,0,0,1,2.94482-1.05615,2.92746,2.92746,0,0,1,3.18555,3.0249c0,1.9209-1.39258,3.47363-3.58545,5.58643l-.83252.76806v.03223H261.981v1.16846Z" transform="translate(-1.53027 -7.1025)"/><path class="8c2e0181-b687-455b-b659-5ec59ccecb48" d="M263.6582,153.01314a.946.946,0,0,1,.96-1.0083,1.01025,1.01025,0,1,1-.96,1.0083Z" transform="translate(-1.53027 -7.1025)"/><path class="8c2e0181-b687-455b-b659-5ec59ccecb48" d="M272.79639,144.434a5.08527,5.08527,0,0,0-1.05664.064,4.22887,4.22887,0,0,0-3.61719,3.69727h.04785a3.17153,3.17153,0,0,1,5.65039,2.16113,3.479,3.479,0,0,1-3.45752,3.66553c-2.22461,0-3.68115-1.729-3.68115-4.43409a6.54161,6.54161,0,0,1,1.76025-4.68994,5.66756,5.66756,0,0,1,3.32959-1.53662,6.76913,6.76913,0,0,1,1.02442-.08008Zm-.40039,6.00244a2.11406,2.11406,0,0,0-2.14454-2.38526,2.31816,2.31816,0,0,0-2.01708,1.28076,1.20084,1.20084,0,0,0-.15967.624c.03174,1.71289.81591,2.97705,2.28857,2.97705C271.58008,152.93306,272.396,151.92476,272.396,150.43648Z" transform="translate(-1.53027 -7.1025)"/><path class="8c2e0181-b687-455b-b659-5ec59ccecb48" d="M275.06543,153.84566v-.86426l1.10449-1.07276c2.65723-2.5288,3.85742-3.87353,3.87354-5.44189a1.856,1.856,0,0,0-2.06494-2.03271,3.54028,3.54028,0,0,0-2.2085.88037l-.44824-.99268a4.56363,4.56363,0,0,1,2.94482-1.05615,2.92746,2.92746,0,0,1,3.18555,3.0249c0,1.9209-1.39258,3.47363-3.58545,5.58643l-.83252.76806v.03223H281.708v1.16846Z" transform="translate(-1.53027 -7.1025)"/><path class="8c2e0181-b687-455b-b659-5ec59ccecb48" d="M360.64844,32.7104a2.97233,2.97233,0,0,1,2.06543-2.78515l-.0166-.04786a2.57705,2.57705,0,0,1-1.64844-2.33691c0-1.64892,1.39258-2.769,3.21679-2.769,2.01758,0,3.0254,1.26416,3.0254,2.561a2.64169,2.64169,0,0,1-1.71192,2.43262v.04834a2.88459,2.88459,0,0,1,2.09668,2.689c0,1.8086-1.55273,3.0254-3.53808,3.0254C361.96094,35.52779,360.64844,34.23091,360.64844,32.7104Zm5.60254-.064c0-1.26465-.88086-1.87256-2.28907-2.27295a2.26026,2.26026,0,0,0-1.873,2.145,1.92465,1.92465,0,0,0,2.08105,1.98486A1.883,1.883,0,0,0,366.251,32.64644Zm-3.874-5.20215c0,1.04053.78516,1.60059,1.98535,1.9209a2.05009,2.05009,0,0,0,1.585-1.88867,1.61763,1.61763,0,0,0-1.76075-1.69678A1.65513,1.65513,0,0,0,362.377,27.44429Z" transform="translate(-1.53027 -7.1025)"/><path class="8c2e0181-b687-455b-b659-5ec59ccecb48" d="M375.19531,26.13179h-3.96972l-.40039,2.67285a5.60925,5.60925,0,0,1,.84863-.064,4.39986,4.39986,0,0,1,2.24121.56054,2.96451,2.96451,0,0,1,1.48828,2.67285,3.60968,3.60968,0,0,1-3.874,3.55372,5.09152,5.09152,0,0,1-2.59278-.64063l.35254-1.07227a4.659,4.659,0,0,0,2.22461.57618,2.29567,2.29567,0,0,0,2.46485-2.25684c-.01563-1.34473-.91211-2.30517-2.99317-2.30517a10.7842,10.7842,0,0,0-1.44043.1123l.67188-4.99414h4.97851Z" transform="translate(-1.53027 -7.1025)"/><path class="8c2e0181-b687-455b-b659-5ec59ccecb48" d="M377.30469,34.519a.94573.94573,0,0,1,.96-1.0083,1.01025,1.01025,0,1,1-.96,1.0083Z" transform="translate(-1.53027 -7.1025)"/><path class="8c2e0181-b687-455b-b659-5ec59ccecb48" d="M386.71484,26.13179h-3.96972l-.40039,2.67285a5.60925,5.60925,0,0,1,.84863-.064,4.39983,4.39983,0,0,1,2.24121.56054,2.96451,2.96451,0,0,1,1.48828,2.67285,3.60968,3.60968,0,0,1-3.874,3.55372,5.09155,5.09155,0,0,1-2.59278-.64063l.35254-1.07227a4.659,4.659,0,0,0,2.22461.57618,2.29567,2.29567,0,0,0,2.46485-2.25684c-.01563-1.34473-.91211-2.30517-2.99317-2.30517a10.78434,10.78434,0,0,0-1.44043.1123l.67188-4.99414h4.97851Z" transform="translate(-1.53027 -7.1025)"/><line class="555c43b4-1c5c-4648-b9f6-83a91e4cec94" x1="23.63959" y1="326.07315" x2="552.63929" y2="326.07315"/><line class="beefbc34-b9d7-4f7d-82b7-7384afca88f1" x1="23.63959" y1="326.07315" x2="23.63959" y2="16.52539"/><path class="bcc7a15f-309d-4ed8-8191-78518853ab03" d="M11.43555,273.75288a2.4186,2.4186,0,0,0-1.38428.38282,3.23555,3.23555,0,0,0-1.002,1.2041,12.96518,12.96518,0,0,0-.89209,2.4834,11.67717,11.67717,0,0,1-.92285,2.49121,3.297,3.297,0,0,1-1.08106,1.21777,2.75231,2.75231,0,0,1-1.49414.38672A2.68331,2.68331,0,0,1,2.396,280.74116a5.05576,5.05576,0,0,1-.86573-3.06835,4.96575,4.96575,0,0,1,.479-2.21,3.59032,3.59032,0,0,1,1.34472-1.5166,3.63745,3.63745,0,0,1,1.95557-.53515v.47461a3.02978,3.02978,0,0,0-2.36865,1.05468,3.96179,3.96179,0,0,0-.936,2.73243,4.56086,4.56086,0,0,0,.75147,2.72949,2.28493,2.28493,0,0,0,3.73974.13574,8.55371,8.55371,0,0,0,1.24366-2.98828,9.19777,9.19777,0,0,1,1.25244-3.04883,2.861,2.861,0,0,1,2.42578-1.23047,2.81389,2.81389,0,0,1,1.70947.54492,3.4702,3.4702,0,0,1,1.147,1.54688,5.966,5.966,0,0,1,.4043,2.25,6.43553,6.43553,0,0,1-.46142,2.49609,3.54935,3.54935,0,0,1-1.314,1.665,3.59109,3.59109,0,0,1-2.0127.55762v-.47461a2.86205,2.86205,0,0,0,2.44336-1.17774,5.03116,5.03116,0,0,0,.87012-3.0664,4.69223,4.69223,0,0,0-.769-2.76953A2.34751,2.34751,0,0,0,11.43555,273.75288Z" transform="translate(-1.53027 -7.1025)"/><path class="bcc7a15f-309d-4ed8-8191-78518853ab03" d="M2.02246,271.15132a.48115.48115,0,0,1-.34717-.14062.45726.45726,0,0,1-.145-.3418.49431.49431,0,0,1,.49219-.49219.4589.4589,0,0,1,.34277.14453.48226.48226,0,0,1,.14063.34766.48015.48015,0,0,1-.4834.48242Zm12.48047-.7207v.47461H4.99316v-.47461Z" transform="translate(-1.53027 -7.1025)"/><path class="bcc7a15f-309d-4ed8-8191-78518853ab03" d="M9.65137,267.75874a5.81944,5.81944,0,0,1-3.55518-.957,3.10628,3.10628,0,0,1-1.27881-2.6289,3.64238,3.64238,0,0,1,.4878-1.88868A3.54645,3.54645,0,0,1,6.7334,260.956H4.99316v-.48242h9.34278a4.19953,4.19953,0,0,1,2.93994.96679,3.37962,3.37962,0,0,1,1.05908,2.627,3.74347,3.74347,0,0,1-.41406,1.7539,3.88848,3.88848,0,0,1-1.18945,1.35742l-.31739-.334a4.1819,4.1819,0,0,0,1.07373-1.21289,3.095,3.095,0,0,0,.37256-1.54688,2.94607,2.94607,0,0,0-.89062-2.28515,3.67535,3.67535,0,0,0-2.51319-.84375H13a3.31989,3.31989,0,0,1,1.24365,1.332,4.07191,4.07191,0,0,1,.43506,1.90234,3.0646,3.0646,0,0,1-1.30957,2.61133,5.97789,5.97789,0,0,1-3.59473.957Zm.18457-.48242a5.54354,5.54354,0,0,0,3.20361-.80859,2.60376,2.60376,0,0,0,1.16455-2.26758,3.63218,3.63218,0,0,0-.5581-2.04883,3.00377,3.00377,0,0,0-1.56885-1.19531H7.76172A3.14056,3.14056,0,0,0,5.292,264.18257a2.63126,2.63126,0,0,0,1.15137,2.28027A5.86924,5.86924,0,0,0,9.83594,267.27632Z" transform="translate(-1.53027 -7.1025)"/><path class="bcc7a15f-309d-4ed8-8191-78518853ab03" d="M7.208,256.96577a3.97718,3.97718,0,0,1-1.749-1.37109,3.38768,3.38768,0,0,1-.6416-2.00391,2.83007,2.83007,0,0,1,.86573-2.27148,3.96529,3.96529,0,0,1,2.61474-.75195h6.20508v.47461H8.28613a3.5,3.5,0,0,0-2.26074.625,2.40814,2.40814,0,0,0-.7334,1.95117,2.95933,2.95933,0,0,0,.87354,2.13086A4.43555,4.43555,0,0,0,8.418,256.96577h6.085v.47461H4.99316v-.47461Z" transform="translate(-1.53027 -7.1025)"/><path class="bcc7a15f-309d-4ed8-8191-78518853ab03" d="M12.17383,241.72554q-1.73145,0-2.35547,2.95312a5.81212,5.81212,0,0,1-.97119,2.47071,2.03024,2.03024,0,0,1-1.63037.69336,2.08154,2.08154,0,0,1-1.72266-.88282,3.67678,3.67678,0,0,1-.67676-2.29882,3.87586,3.87586,0,0,1,.73389-2.46875,2.39051,2.39051,0,0,1,1.98193-.93164v.48242a1.96551,1.96551,0,0,0-1.59961.80859,3.29261,3.29261,0,0,0-.6416,2.10938,3.23612,3.23612,0,0,0,.54492,1.97851,1.64115,1.64115,0,0,0,1.36231.72852,1.649,1.649,0,0,0,1.00635-.27149,2.35537,2.35537,0,0,0,.65918-.88867,9.12029,9.12029,0,0,0,.56689-1.793,7.6547,7.6547,0,0,1,.6416-1.86328,2.51531,2.51531,0,0,1,.87451-.99219,2.33349,2.33349,0,0,1,1.23487-.30859,2.14939,2.14939,0,0,1,1.81054.92383,3.95,3.95,0,0,1,.68555,2.416,4.23466,4.23466,0,0,1-.7251,2.58008,2.22735,2.22735,0,0,1-1.86767.98047v-.47461a1.96644,1.96644,0,0,0,1.56006-.88379,3.83558,3.83558,0,0,0,.5581-2.20215,3.37212,3.37212,0,0,0-.59326-2.06933A1.74948,1.74948,0,0,0,12.17383,241.72554Z" transform="translate(-1.53027 -7.1025)"/><path class="bcc7a15f-309d-4ed8-8191-78518853ab03" d="M15.60156,234.95015v.51758L1.70605,230.124v-.51758Z" transform="translate(-1.53027 -7.1025)"/><path class="bcc7a15f-309d-4ed8-8191-78518853ab03" d="M14.50293,213.77632v.47461H8.15723v8.17383h6.3457v.47461H1.70605v-.47461H7.68262v-8.17383H1.70605v-.47461Z" transform="translate(-1.53027 -7.1025)"/><path class="bcc7a15f-309d-4ed8-8191-78518853ab03" d="M9.56348,211.22749a5.5683,5.5683,0,0,1-2.44776-.52246,4.02188,4.02188,0,0,1-1.69189-1.47656,3.93344,3.93344,0,0,1-.60645-2.15723,3.91467,3.91467,0,0,1,2.25879-3.626,5.52558,5.52558,0,0,1,2.43457-.54h.42188a5.60019,5.60019,0,0,1,2.45215.51758,3.999,3.999,0,0,1,1.6875,1.47265,3.9368,3.9368,0,0,1,.60644,2.1582,3.9369,3.9369,0,0,1-2.272,3.63868,5.51563,5.51563,0,0,1-2.42139.53515Zm.36914-.47461a4.99971,4.99971,0,0,0,2.17529-.46972,3.7048,3.7048,0,0,0,1.54248-1.30957,3.40643,3.40643,0,0,0,.55371-1.91993,3.29787,3.29787,0,0,0-1.22168-2.65039,4.732,4.732,0,0,0-3.14648-1.02343H9.56348a4.94906,4.94906,0,0,0-2.16211.47461,3.76018,3.76018,0,0,0-1.55127,1.31347,3.36016,3.36016,0,0,0-.55811,1.90332,3.29066,3.29066,0,0,0,1.23926,2.6543,4.7213,4.7213,0,0,0,3.12012,1.02734Z" transform="translate(-1.53027 -7.1025)"/><path class="bcc7a15f-309d-4ed8-8191-78518853ab03" d="M14.50293,194.22945H12.96484a3.10408,3.10408,0,0,1,1.25245,1.23046,4.09379,4.09379,0,0,1,.46142,2.04883,2.9,2.9,0,0,1-.90967,2.333,4.0386,4.0386,0,0,1-2.6499.7959h-6.126V200.163h6.14356a3.4928,3.4928,0,0,0,2.28955-.68555,2.43054,2.43054,0,0,0,.77783-1.95117,3.58657,3.58657,0,0,0-.6416-2.21484,2.90514,2.90514,0,0,0-1.88086-1.082H4.99316V193.747h9.50977Z" transform="translate(-1.53027 -7.1025)"/><path class="bcc7a15f-309d-4ed8-8191-78518853ab03" d="M5.34473,186.55708l-.05274.61524a2.815,2.815,0,0,0,.78613,2.03027,3.91633,3.91633,0,0,0,2.19922,1.07227h6.22559v.47461H4.99316v-.47461H6.9707a3.501,3.501,0,0,1-1.57324-1.16016,3.14688,3.14688,0,0,1-.58008-1.94238,1.87961,1.87961,0,0,1,.09864-.668Z" transform="translate(-1.53027 -7.1025)"/><path class="bcc7a15f-309d-4ed8-8191-78518853ab03" d="M134.73242,351.50874v-11.375h2.99219a4.40741,4.40741,0,0,1,2.77734.7461,2.60381,2.60381,0,0,1,.94141,2.168,2.7236,2.7236,0,0,1-.52344,1.71093,2.36208,2.36208,0,0,1-1.47656.86719,2.84889,2.84889,0,0,1,1.79687.93359,2.63017,2.63017,0,0,1,.71875,1.81641,2.91666,2.91666,0,0,1-.9414,2.293,3.7982,3.7982,0,0,1-2.6211.83984Zm.42188-6.03906h2.72656a3.85009,3.85009,0,0,0,2.34375-.59766,2.17776,2.17776,0,0,0,.78906-1.85546q0-2.42139-3.19531-2.46094H135.1543Zm0,.42188v5.19531h3.28906a3.35,3.35,0,0,0,2.26953-.71485,2.48346,2.48346,0,0,0,.82422-1.98046,2.26157,2.26157,0,0,0-.79688-1.77735,3.20952,3.20952,0,0,0-2.13281-.72265Z" transform="translate(-1.53027 -7.1025)"/><path class="bcc7a15f-309d-4ed8-8191-78518853ab03" d="M149.62305,351.50874a5.8533,5.8533,0,0,1-.15625-1.54687,3.3896,3.3896,0,0,1-1.36719,1.25781,4.23077,4.23077,0,0,1-1.96094.44531,2.72936,2.72936,0,0,1-1.88672-.63672,2.117,2.117,0,0,1-.71484-1.66015,2.14362,2.14362,0,0,1,1.05078-1.86328,5.05746,5.05746,0,0,1,2.793-.71485h2.08594v-1.23437a2.07712,2.07712,0,0,0-.668-1.64844,2.8079,2.8079,0,0,0-1.91016-.58594,3.07724,3.07724,0,0,0-1.92969.59375,1.79116,1.79116,0,0,0-.77343,1.46875l-.42188-.01562a2.16328,2.16328,0,0,1,.90625-1.75,3.46255,3.46255,0,0,1,2.21875-.71875,3.24885,3.24885,0,0,1,2.17188.68359,2.4553,2.4553,0,0,1,.82812,1.92578v4.03907a5.41344,5.41344,0,0,0,.21875,1.89062v.07031Zm-3.48438-.26562a3.79266,3.79266,0,0,0,2.043-.53125,3.28822,3.28822,0,0,0,1.28516-1.49219v-2.00781h-1.95313a4.57684,4.57684,0,0,0-2.77344.71875,1.76441,1.76441,0,0,0-.78125,1.46094,1.6792,1.6792,0,0,0,.61719,1.3125A2.28818,2.28818,0,0,0,146.13867,351.24312Z" transform="translate(-1.53027 -7.1025)"/><path class="bcc7a15f-309d-4ed8-8191-78518853ab03" d="M157.81836,349.43843q0-1.53808-2.625-2.09375a5.15469,5.15469,0,0,1-2.19531-.86328,1.80388,1.80388,0,0,1-.61719-1.44922,1.852,1.852,0,0,1,.78516-1.53125,3.27034,3.27034,0,0,1,2.043-.60156,3.45071,3.45071,0,0,1,2.19532.65234,2.12709,2.12709,0,0,1,.82812,1.76172h-.42969a1.74882,1.74882,0,0,0-.71875-1.42187,2.92984,2.92984,0,0,0-1.875-.57032,2.87743,2.87743,0,0,0-1.75781.48438,1.5628,1.5628,0,0,0-.40625,2.10547,2.07248,2.07248,0,0,0,.78906.58593,8.04832,8.04832,0,0,0,1.59375.50391,6.83428,6.83428,0,0,1,1.65625.57031,2.24606,2.24606,0,0,1,.88282.77735,2.07779,2.07779,0,0,1,.27343,1.09765,1.90938,1.90938,0,0,1-.82031,1.60938,3.51419,3.51419,0,0,1-2.14844.60937,3.76174,3.76174,0,0,1-2.293-.64453,1.97782,1.97782,0,0,1-.8711-1.66015h.42188a1.74565,1.74565,0,0,0,.78515,1.38671,3.40394,3.40394,0,0,0,1.957.4961,3.00011,3.00011,0,0,0,1.83985-.52735A1.555,1.555,0,0,0,157.81836,349.43843Z" transform="translate(-1.53027 -7.1025)"/><path class="bcc7a15f-309d-4ed8-8191-78518853ab03" d="M163.60742,351.665a3.40017,3.40017,0,0,1-1.8789-.55078,3.77781,3.77781,0,0,1-1.33985-1.51172,4.66629,4.66629,0,0,1-.48437-2.13281v-.35156a4.90075,4.90075,0,0,1,.46875-2.14844,3.72183,3.72183,0,0,1,1.28906-1.52344,3.16246,3.16246,0,0,1,1.78906-.54687,2.95738,2.95738,0,0,1,2.3125,1.00781,3.83266,3.83266,0,0,1,.89844,2.64844v.44531h-6.33594v.46a4.24561,4.24561,0,0,0,.4336,1.90723,3.41253,3.41253,0,0,0,1.19531,1.376,2.95427,2.95427,0,0,0,1.65234.499,3.35565,3.35565,0,0,0,1.44922-.28321,2.94291,2.94291,0,0,0,1.05859-.873l.29688.21094A3.18678,3.18678,0,0,1,163.60742,351.665Zm-.15625-8.34375a2.76156,2.76156,0,0,0-2.09375.918,3.90843,3.90843,0,0,0-1.00781,2.33985h5.89062v-.10157a3.57124,3.57124,0,0,0-.36328-1.59765,2.802,2.802,0,0,0-1-1.14844A2.57787,2.57787,0,0,0,163.45117,343.32124Z" transform="translate(-1.53027 -7.1025)"/><path class="bcc7a15f-309d-4ed8-8191-78518853ab03" d="M169.1543,351.50874h-.42188v-12h.42188Z" transform="translate(-1.53027 -7.1025)"/><path class="bcc7a15f-309d-4ed8-8191-78518853ab03" d="M171.81055,340.415a.42807.42807,0,0,1,.125-.30859.40729.40729,0,0,1,.30468-.12891.44014.44014,0,0,1,.4375.4375.4073.4073,0,0,1-.1289.30469.42535.42535,0,0,1-.3086.125.42681.42681,0,0,1-.42968-.42969Zm.64062,11.09375h-.42187v-8.45312h.42187Z" transform="translate(-1.53027 -7.1025)"/><path class="bcc7a15f-309d-4ed8-8191-78518853ab03" d="M175.64648,345.02437a3.53668,3.53668,0,0,1,1.21875-1.55469,3.0121,3.0121,0,0,1,1.78125-.57031,2.5181,2.5181,0,0,1,2.01954.76953,3.52838,3.52838,0,0,1,.668,2.32422v5.51562h-.42187v-5.52539a3.11527,3.11527,0,0,0-.55469-2.00976,2.14084,2.14084,0,0,0-1.73437-.65235,2.62967,2.62967,0,0,0-1.89453.77637,3.94511,3.94511,0,0,0-1.082,2.002v5.40918h-.42187v-8.45312h.42187Z" transform="translate(-1.53027 -7.1025)"/><path class="bcc7a15f-309d-4ed8-8191-78518853ab03" d="M187.02148,351.665a3.40019,3.40019,0,0,1-1.8789-.55078,3.77788,3.77788,0,0,1-1.33985-1.51172,4.66629,4.66629,0,0,1-.48437-2.13281v-.35156a4.90075,4.90075,0,0,1,.46875-2.14844,3.7219,3.7219,0,0,1,1.28906-1.52344,3.16248,3.16248,0,0,1,1.78906-.54687,2.95736,2.95736,0,0,1,2.3125,1.00781,3.83261,3.83261,0,0,1,.89844,2.64844v.44531h-6.33594v.46a4.24574,4.24574,0,0,0,.4336,1.90723,3.41253,3.41253,0,0,0,1.19531,1.376,2.95427,2.95427,0,0,0,1.65234.499,3.35559,3.35559,0,0,0,1.44922-.28321,2.943,2.943,0,0,0,1.0586-.873l.29687.21094A3.18678,3.18678,0,0,1,187.02148,351.665Zm-.15625-8.34375a2.76156,2.76156,0,0,0-2.09375.918,3.90843,3.90843,0,0,0-1.00781,2.33985h5.89063v-.10157a3.57137,3.57137,0,0,0-.36328-1.59765,2.80217,2.80217,0,0,0-1-1.14844A2.57793,2.57793,0,0,0,186.86523,343.32124Z" transform="translate(-1.53027 -7.1025)"/><path class="bcc7a15f-309d-4ed8-8191-78518853ab03" d="M251.90283,346.67281a6.14566,6.14566,0,0,1-.52734,2.61328,4.039,4.039,0,0,1-1.50391,1.75781,4.10339,4.10339,0,0,1-2.25.62109,3.91869,3.91869,0,0,1-3.10937-1.36718,5.42651,5.42651,0,0,1-1.1875-3.6875v-1.64063a6.15552,6.15552,0,0,1,.52734-2.60937,4.02779,4.02779,0,0,1,1.50781-1.76172,4.386,4.386,0,0,1,4.5,0,4.05217,4.05217,0,0,1,1.51172,1.76562,6.126,6.126,0,0,1,.53125,2.60547Zm-.42187-1.71875a4.97567,4.97567,0,0,0-1.04688-3.3086,3.8139,3.8139,0,0,0-5.63281-.00781,5.05491,5.05491,0,0,0-1.04688,3.37109v1.66407a5.76013,5.76013,0,0,0,.47266,2.40234,3.63283,3.63283,0,0,0,1.34766,1.60547,3.701,3.701,0,0,0,2.04687.5625,3.48411,3.48411,0,0,0,2.82031-1.24219,5.12353,5.12353,0,0,0,1.03907-3.39062Z" transform="translate(-1.53027 -7.1025)"/><path class="bcc7a15f-309d-4ed8-8191-78518853ab03" d="M258.01221,343.36812l-.54688-.04688a2.50213,2.50213,0,0,0-1.80469.69922,3.47725,3.47725,0,0,0-.95312,1.95508v5.5332h-.42188v-8.45312h.42188v1.75781a3.11306,3.11306,0,0,1,1.03125-1.39844,2.79623,2.79623,0,0,1,1.72656-.51562,1.672,1.672,0,0,1,.59375.08789Z" transform="translate(-1.53027 -7.1025)"/><path class="bcc7a15f-309d-4ed8-8191-78518853ab03" d="M259.09814,347.19624a5.17236,5.17236,0,0,1,.85157-3.16015,2.75893,2.75893,0,0,1,2.33593-1.13672,3.26248,3.26248,0,0,1,1.6836.42969,3.17062,3.17062,0,0,1,1.18359,1.28125v-5.10157h.42188v12h-.42188v-1.35156a2.94074,2.94074,0,0,1-1.17969,1.11328,3.60692,3.60692,0,0,1-1.70312.39453,2.721,2.721,0,0,1-2.32031-1.16406,5.3105,5.3105,0,0,1-.85157-3.19531Zm.4375.16407a4.97425,4.97425,0,0,0,.71094,2.83984,2.29647,2.29647,0,0,0,2.01563,1.043,3.29876,3.29876,0,0,0,1.78906-.46485,2.7602,2.7602,0,0,0,1.10156-1.36328v-3.96093a2.82226,2.82226,0,0,0-2.875-2.13282,2.33322,2.33322,0,0,0-2.01953,1.02344A5.21683,5.21683,0,0,0,259.53564,347.36031Z" transform="translate(-1.53027 -7.1025)"/><path class="bcc7a15f-309d-4ed8-8191-78518853ab03" d="M271.28564,351.665a3.40019,3.40019,0,0,1-1.8789-.55078,3.77788,3.77788,0,0,1-1.33985-1.51172,4.66629,4.66629,0,0,1-.48437-2.13281v-.35156a4.90075,4.90075,0,0,1,.46875-2.14844,3.7219,3.7219,0,0,1,1.28906-1.52344,3.16248,3.16248,0,0,1,1.78906-.54687,2.95736,2.95736,0,0,1,2.3125,1.00781,3.83261,3.83261,0,0,1,.89844,2.64844v.44531h-6.33594v.46a4.24574,4.24574,0,0,0,.4336,1.90723,3.41253,3.41253,0,0,0,1.19531,1.376,2.95427,2.95427,0,0,0,1.65234.499,3.35559,3.35559,0,0,0,1.44922-.28321,2.943,2.943,0,0,0,1.0586-.873l.29687.21094A3.18678,3.18678,0,0,1,271.28564,351.665Zm-.15625-8.34375a2.76156,2.76156,0,0,0-2.09375.918,3.90843,3.90843,0,0,0-1.00781,2.33985h5.89063v-.10157a3.57137,3.57137,0,0,0-.36328-1.59765,2.80217,2.80217,0,0,0-1-1.14844A2.57793,2.57793,0,0,0,271.12939,343.32124Z" transform="translate(-1.53027 -7.1025)"/><path class="bcc7a15f-309d-4ed8-8191-78518853ab03" d="M280.03564,343.36812l-.54687-.04688a2.50213,2.50213,0,0,0-1.80469.69922,3.47725,3.47725,0,0,0-.95312,1.95508v5.5332h-.42188v-8.45312h.42188v1.75781a3.11306,3.11306,0,0,1,1.03125-1.39844,2.79621,2.79621,0,0,1,1.72656-.51562,1.672,1.672,0,0,1,.59375.08789Z" transform="translate(-1.53027 -7.1025)"/><path class="bcc7a15f-309d-4ed8-8191-78518853ab03" d="M284.55127,351.665a3.40022,3.40022,0,0,1-1.87891-.55078,3.77778,3.77778,0,0,1-1.33984-1.51172,4.6663,4.6663,0,0,1-.48438-2.13281v-.35156a4.90075,4.90075,0,0,1,.46875-2.14844,3.72185,3.72185,0,0,1,1.28907-1.52344,3.16243,3.16243,0,0,1,1.78906-.54687,2.95738,2.95738,0,0,1,2.3125,1.00781,3.83266,3.83266,0,0,1,.89844,2.64844v.44531H281.27v.46a4.24573,4.24573,0,0,0,.43359,1.90723,3.41255,3.41255,0,0,0,1.19532,1.376,2.95427,2.95427,0,0,0,1.65234.499,3.35565,3.35565,0,0,0,1.44922-.28321,2.943,2.943,0,0,0,1.05859-.873l.29688.21094A3.18678,3.18678,0,0,1,284.55127,351.665Zm-.15625-8.34375a2.76154,2.76154,0,0,0-2.09375.918,3.90843,3.90843,0,0,0-1.00781,2.33985h5.89062v-.10157a3.57124,3.57124,0,0,0-.36328-1.59765,2.8021,2.8021,0,0,0-1-1.14844A2.57787,2.57787,0,0,0,284.395,343.32124Z" transform="translate(-1.53027 -7.1025)"/><path class="bcc7a15f-309d-4ed8-8191-78518853ab03" d="M289.18408,347.19624a5.17236,5.17236,0,0,1,.85156-3.16015,2.759,2.759,0,0,1,2.33594-1.13672,3.26248,3.26248,0,0,1,1.6836.42969,3.17069,3.17069,0,0,1,1.18359,1.28125v-5.10157h.42187v12h-.42187v-1.35156a2.94074,2.94074,0,0,1-1.17969,1.11328,3.60692,3.60692,0,0,1-1.70312.39453,2.721,2.721,0,0,1-2.32032-1.16406,5.3105,5.3105,0,0,1-.85156-3.19531Zm.4375.16407a4.97425,4.97425,0,0,0,.71094,2.83984,2.29647,2.29647,0,0,0,2.01562,1.043,3.29877,3.29877,0,0,0,1.78907-.46485,2.76025,2.76025,0,0,0,1.10156-1.36328v-3.96093a2.82226,2.82226,0,0,0-2.875-2.13282,2.3332,2.3332,0,0,0-2.01953,1.02344A5.21675,5.21675,0,0,0,289.62158,347.36031Z" transform="translate(-1.53027 -7.1025)"/><path class="bcc7a15f-309d-4ed8-8191-78518853ab03" d="M257.18408,365.11519H251.356v5.59375h-.42188v-11.375H257.981v.42187h-6.625v4.92188h5.82812Z" transform="translate(-1.53027 -7.1025)"/><path class="bcc7a15f-309d-4ed8-8191-78518853ab03" d="M259.75439,359.61519a.42813.42813,0,0,1,.125-.3086.40734.40734,0,0,1,.30469-.1289.44012.44012,0,0,1,.4375.4375.40734.40734,0,0,1-.1289.30469.42535.42535,0,0,1-.3086.125.42681.42681,0,0,1-.42969-.42969Zm.64063,11.09375h-.42188v-8.45313h.42188Z" transform="translate(-1.53027 -7.1025)"/><path class="bcc7a15f-309d-4ed8-8191-78518853ab03" d="M266.20752,370.86519a3.4003,3.4003,0,0,1-1.87891-.55078,3.77785,3.77785,0,0,1-1.33984-1.51172,4.66633,4.66633,0,0,1-.48438-2.13281v-.35157a4.90068,4.90068,0,0,1,.46875-2.14843,3.72172,3.72172,0,0,1,1.28907-1.52344,3.16244,3.16244,0,0,1,1.78906-.54688,2.95736,2.95736,0,0,1,2.3125,1.00782,3.83262,3.83262,0,0,1,.89844,2.64843v.44532h-6.33594v.46a4.24569,4.24569,0,0,0,.43359,1.90722,3.41265,3.41265,0,0,0,1.19532,1.376,2.95426,2.95426,0,0,0,1.65234.499,3.3558,3.3558,0,0,0,1.44922-.2832,2.943,2.943,0,0,0,1.05859-.873l.29688.21094A3.18677,3.18677,0,0,1,266.20752,370.86519Zm-.15625-8.34375a2.76154,2.76154,0,0,0-2.09375.918,3.90838,3.90838,0,0,0-1.00781,2.33984h5.89062v-.10156a3.57128,3.57128,0,0,0-.36328-1.59766,2.8021,2.8021,0,0,0-1-1.14844A2.57794,2.57794,0,0,0,266.05127,362.52144Z" transform="translate(-1.53027 -7.1025)"/><path class="bcc7a15f-309d-4ed8-8191-78518853ab03" d="M271.75439,370.70894h-.42187v-12h.42187Z" transform="translate(-1.53027 -7.1025)"/><path class="bcc7a15f-309d-4ed8-8191-78518853ab03" d="M274.13721,366.39644a5.17239,5.17239,0,0,1,.85156-3.16016,2.759,2.759,0,0,1,2.33594-1.13672,3.26254,3.26254,0,0,1,1.68359.42969,3.17068,3.17068,0,0,1,1.18359,1.28125v-5.10156h.42188v12h-.42188v-1.35156a2.94078,2.94078,0,0,1-1.17968,1.11328,3.60705,3.60705,0,0,1-1.70313.39453,2.721,2.721,0,0,1-2.32031-1.16406,5.31054,5.31054,0,0,1-.85156-3.19532Zm.4375.16406a4.97425,4.97425,0,0,0,.71093,2.83984,2.29646,2.29646,0,0,0,2.01563,1.043,3.29876,3.29876,0,0,0,1.78906-.46484,2.7602,2.7602,0,0,0,1.10156-1.36328v-3.96094a2.82226,2.82226,0,0,0-2.875-2.13281,2.3332,2.3332,0,0,0-2.01953,1.02344A5.2168,5.2168,0,0,0,274.57471,366.5605Z" transform="translate(-1.53027 -7.1025)"/><path class="bcc7a15f-309d-4ed8-8191-78518853ab03" d="M288.49658,368.63863q0-1.5381-2.625-2.09375a5.15473,5.15473,0,0,1-2.19531-.86329,1.80386,1.80386,0,0,1-.61719-1.44921,1.85193,1.85193,0,0,1,.78516-1.53125,3.27031,3.27031,0,0,1,2.043-.60157,3.4507,3.4507,0,0,1,2.19531.65235,2.127,2.127,0,0,1,.82812,1.76172H288.481a1.74887,1.74887,0,0,0-.71875-1.42188,2.92993,2.92993,0,0,0-1.875-.57031,2.87751,2.87751,0,0,0-1.75782.48437,1.56283,1.56283,0,0,0-.40625,2.10547,2.07254,2.07254,0,0,0,.78907.58594,8.04921,8.04921,0,0,0,1.59375.50391,6.834,6.834,0,0,1,1.65625.57031,2.246,2.246,0,0,1,.88281.77734,2.07785,2.07785,0,0,1,.27344,1.09766,1.90937,1.90937,0,0,1-.82032,1.60937,3.51418,3.51418,0,0,1-2.14843.60938,3.76182,3.76182,0,0,1-2.293-.64453,1.97783,1.97783,0,0,1-.8711-1.66016h.42188a1.74567,1.74567,0,0,0,.78516,1.38672,3.404,3.404,0,0,0,1.957.49609,3.00016,3.00016,0,0,0,1.83984-.52734A1.555,1.555,0,0,0,288.49658,368.63863Z" transform="translate(-1.53027 -7.1025)"/><path class="bcc7a15f-309d-4ed8-8191-78518853ab03" d="M356.71094,350.29a3.103,3.103,0,0,1-1.50782.98438,6.92051,6.92051,0,0,1-2.375.39062,4.10876,4.10876,0,0,1-3.80859-2.35937,5.80472,5.80472,0,0,1-.57422-2.54688v-1.95312a5.6686,5.6686,0,0,1,.53907-2.50781A4.04375,4.04375,0,0,1,350.5,340.583a4.0848,4.0848,0,0,1,2.19531-.60547,4.23874,4.23874,0,0,1,2.76172.86719,3.41827,3.41827,0,0,1,1.23828,2.36719h-.42187a3.1512,3.1512,0,0,0-1.13282-2.08594,3.83864,3.83864,0,0,0-2.44531-.72656,3.48147,3.48147,0,0,0-2.77343,1.22656,4.77739,4.77739,0,0,0-1.05469,3.22656v1.8125a5.49283,5.49283,0,0,0,.49609,2.38282,3.69754,3.69754,0,0,0,3.46484,2.19531,6.47629,6.47629,0,0,0,2.11719-.33594,2.82976,2.82976,0,0,0,1.34375-.81445v-3.31836H352.8125v-.42188h3.89844Z" transform="translate(-1.53027 -7.1025)"/><path class="bcc7a15f-309d-4ed8-8191-78518853ab03" d="M364.92188,351.50874a5.85323,5.85323,0,0,1-.15626-1.54687,3.38638,3.38638,0,0,1-1.36718,1.25781,4.22938,4.22938,0,0,1-1.96094.44531,2.72934,2.72934,0,0,1-1.88672-.63672,2.117,2.117,0,0,1-.71484-1.66015,2.14464,2.14464,0,0,1,1.05078-1.86328,5.05857,5.05857,0,0,1,2.793-.71485h2.08593v-1.23437a2.07711,2.07711,0,0,0-.668-1.64844,2.80793,2.80793,0,0,0-1.91016-.58594,3.07819,3.07819,0,0,0-1.92969.59375,1.79116,1.79116,0,0,0-.77343,1.46875l-.42188-.01562a2.16328,2.16328,0,0,1,.90625-1.75,3.46348,3.46348,0,0,1,2.21875-.71875,3.248,3.248,0,0,1,2.17188.68359,2.4553,2.4553,0,0,1,.82812,1.92578v4.03907a5.42531,5.42531,0,0,0,.21875,1.89062v.07031Zm-3.48438-.26562a3.79151,3.79151,0,0,0,2.043-.53125,3.28532,3.28532,0,0,0,1.28515-1.49219v-2.00781H362.8125a4.57782,4.57782,0,0,0-2.77344.71875,1.76562,1.76562,0,0,0-.78125,1.46094,1.68074,1.68074,0,0,0,.61719,1.3125A2.289,2.289,0,0,0,361.4375,351.24312Z" transform="translate(-1.53027 -7.1025)"/><path class="bcc7a15f-309d-4ed8-8191-78518853ab03" d="M368.32812,345.02437a3.54359,3.54359,0,0,1,1.21876-1.55469,3.012,3.012,0,0,1,1.78124-.57031,2.51808,2.51808,0,0,1,2.01954.76953,3.5229,3.5229,0,0,1,.668,2.32422v5.51562h-.42187v-5.52539a3.11236,3.11236,0,0,0-.55469-2.00976,2.13952,2.13952,0,0,0-1.73437-.65235,2.63049,2.63049,0,0,0-1.89453.77637,3.94511,3.94511,0,0,0-1.082,2.002v5.40918h-.42187v-8.45312h.42187Z" transform="translate(-1.53027 -7.1025)"/><path class="bcc7a15f-309d-4ed8-8191-78518853ab03" d="M376.26562,347.19624a5.17557,5.17557,0,0,1,.85157-3.16015,2.75954,2.75954,0,0,1,2.33593-1.13672,3.24088,3.24088,0,0,1,1.67969.43359,3.157,3.157,0,0,1,1.17969,1.26953v-1.54687h.42969v8.30469a3.73249,3.73249,0,0,1-.85938,2.61328,3.00534,3.00534,0,0,1-2.33593.9414,3.329,3.329,0,0,1-1.5586-.36816,3.44691,3.44691,0,0,1-1.207-1.05664l.29687-.28223a3.72393,3.72393,0,0,0,1.07813.9541,2.74791,2.74791,0,0,0,1.375.33106,2.61937,2.61937,0,0,0,2.03125-.791,3.26808,3.26808,0,0,0,.75-2.23437v-1.29492a2.95178,2.95178,0,0,1-1.18359,1.10546,3.62121,3.62121,0,0,1-1.69141.38672,2.721,2.721,0,0,1-2.32031-1.16406,5.31383,5.31383,0,0,1-.85157-3.19531Zm.42969.16407a4.92225,4.92225,0,0,0,.71875,2.84765,2.31448,2.31448,0,0,0,2.01563,1.03516,3.22235,3.22235,0,0,0,1.82031-.4961,2.66332,2.66332,0,0,0,1.0625-1.39453v-3.83593a2.79108,2.79108,0,0,0-2.86719-2.19532,2.3404,2.3404,0,0,0-2.02734,1.02344A5.22055,5.22055,0,0,0,376.69531,347.36031Z" transform="translate(-1.53027 -7.1025)"/><path class="bcc7a15f-309d-4ed8-8191-78518853ab03" d="M388.47656,351.665a3.40019,3.40019,0,0,1-1.8789-.55078,3.78136,3.78136,0,0,1-1.33985-1.51172,4.66629,4.66629,0,0,1-.48437-2.13281v-.35156a4.90075,4.90075,0,0,1,.46875-2.14844,3.7219,3.7219,0,0,1,1.28906-1.52344,3.16358,3.16358,0,0,1,1.78906-.54687,2.95666,2.95666,0,0,1,2.3125,1.00781,3.83261,3.83261,0,0,1,.89844,2.64844v.44531h-6.33594v.46a4.24561,4.24561,0,0,0,.4336,1.90723,3.41253,3.41253,0,0,0,1.19531,1.376,2.95427,2.95427,0,0,0,1.65234.499,3.35562,3.35562,0,0,0,1.44922-.28321,2.943,2.943,0,0,0,1.0586-.873l.29687.21094A3.18621,3.18621,0,0,1,388.47656,351.665Zm-.15625-8.34375a2.76229,2.76229,0,0,0-2.09375.918,3.90843,3.90843,0,0,0-1.00781,2.33985h5.89063v-.10157a3.57125,3.57125,0,0,0-.36329-1.59765,2.7985,2.7985,0,0,0-1-1.14844A2.57671,2.57671,0,0,0,388.32031,343.32124Z" transform="translate(-1.53027 -7.1025)"/><path class="bcc7a15f-309d-4ed8-8191-78518853ab03" d="M393.10938,347.19624a5.17557,5.17557,0,0,1,.85156-3.16015,2.75955,2.75955,0,0,1,2.33594-1.13672,3.26122,3.26122,0,0,1,1.68359.42969,3.164,3.164,0,0,1,1.18359,1.28125v-5.10157h.42188v12h-.42188v-1.35156a2.93759,2.93759,0,0,1-1.17968,1.11328,3.60557,3.60557,0,0,1-1.70313.39453,2.721,2.721,0,0,1-2.32031-1.16406,5.31383,5.31383,0,0,1-.85156-3.19531Zm.4375.16407a4.9781,4.9781,0,0,0,.71093,2.83984,2.29649,2.29649,0,0,0,2.01563,1.043,3.29759,3.29759,0,0,0,1.78906-.46485,2.75506,2.75506,0,0,0,1.10156-1.36328v-3.96093a2.82189,2.82189,0,0,0-2.875-2.13282,2.33379,2.33379,0,0,0-2.01953,1.02344A5.22063,5.22063,0,0,0,393.54688,347.36031Z" transform="translate(-1.53027 -7.1025)"/><path class="bcc7a15f-309d-4ed8-8191-78518853ab03" d="M358.56641,370.70894h-.42188v-11.375h.42188Z" transform="translate(-1.53027 -7.1025)"/><path class="bcc7a15f-309d-4ed8-8191-78518853ab03" d="M362.207,364.22456a3.54356,3.54356,0,0,1,1.21875-1.55468,3.012,3.012,0,0,1,1.78125-.57032,2.51811,2.51811,0,0,1,2.01953.76953,3.52294,3.52294,0,0,1,.668,2.32422v5.51563h-.42187v-5.52539a3.11243,3.11243,0,0,0-.55469-2.00977,2.13953,2.13953,0,0,0-1.73438-.65234,2.63049,2.63049,0,0,0-1.89453.77637,3.94505,3.94505,0,0,0-1.082,2.00195v5.40918h-.42187v-8.45313h.42187Z" transform="translate(-1.53027 -7.1025)"/><path class="bcc7a15f-309d-4ed8-8191-78518853ab03" d="M377.00391,366.5605a5.21038,5.21038,0,0,1-.85157,3.14063,2.721,2.721,0,0,1-2.32031,1.16406,3.64536,3.64536,0,0,1-1.71094-.39063,2.92269,2.92269,0,0,1-1.17187-1.07812v4.5625h-.42188V362.25581h.42188v1.50782a3.10614,3.10614,0,0,1,1.17969-1.23438,3.311,3.311,0,0,1,1.6875-.42969,2.75957,2.75957,0,0,1,2.33593,1.13672,5.23508,5.23508,0,0,1,.85157,3.19141Zm-.42969-.16406a4.89,4.89,0,0,0-.72266-2.84766,2.33686,2.33686,0,0,0-2.02734-1.02734,2.94463,2.94463,0,0,0-1.80469.55078,3.04911,3.04911,0,0,0-1.07031,1.582v3.95313a2.68194,2.68194,0,0,0,1.07422,1.35546,3.28338,3.28338,0,0,0,1.8164.48047,2.31783,2.31783,0,0,0,2.01563-1.03125A5.25893,5.25893,0,0,0,376.57422,366.39644Z" transform="translate(-1.53027 -7.1025)"/><path class="bcc7a15f-309d-4ed8-8191-78518853ab03" d="M384.96484,370.70894v-1.36719a2.7571,2.7571,0,0,1-1.09375,1.11328,3.63615,3.63615,0,0,1-1.82031.41016,2.57876,2.57876,0,0,1-2.07422-.8086,3.59163,3.59163,0,0,1-.707-2.35546v-5.44532h.42188v5.46094a3.10713,3.10713,0,0,0,.60937,2.03516,2.1596,2.1596,0,0,0,1.73438.6914,3.18259,3.18259,0,0,0,1.96875-.57031,2.58334,2.58334,0,0,0,.96093-1.67187v-5.94532h.42969v8.45313Z" transform="translate(-1.53027 -7.1025)"/><path class="bcc7a15f-309d-4ed8-8191-78518853ab03" d="M389.00391,359.97456v2.28125h1.92187v.42188h-1.92187v6.00586a2.39692,2.39692,0,0,0,.293,1.33008,1.10121,1.10121,0,0,0,.98046.42968,6.05739,6.05739,0,0,0,.83594-.07031l.07031.39844a2.88228,2.88228,0,0,1-.88281.09375,1.57387,1.57387,0,0,1-1.32031-.51172,2.66421,2.66421,0,0,1-.40625-1.61524v-6.06054h-1.5625v-.42188h1.5625v-2.28125Z" transform="translate(-1.53027 -7.1025)"/></svg>