<svg id="0cb97ef9-9e1d-48af-b86f-40a1048d9f29" data-name="Layer 1" xmlns="http://www.w3.org/2000/svg" width="52.39356" height="56.27664" viewBox="0 0 52.39356 56.27664"><defs><style>.edea1e8b-26fb-434a-87f2-292f0eaff6f4{fill:#fff;}.\37 94a5ac7-6c27-48a5-9125-f01ac2f57d33{opacity:0.9;}</style></defs><title>angular</title><polygon class="edea1e8b-26fb-434a-87f2-292f0eaff6f4" points="26.197 34.723 19.247 34.723 15.954 42.939 15.954 42.939 9.848 42.939 9.82 42.939 26.197 6.219 26.197 6.247 26.197 6.247 26.197 0 26.197 0 0 9.342 3.996 43.98 26.197 56.277 26.197 56.277 26.197 34.723"/><polygon class="edea1e8b-26fb-434a-87f2-292f0eaff6f4" points="21.413 29.658 26.197 29.658 26.197 29.658 26.197 18.149 21.413 29.658"/><g class="794a5ac7-6c27-48a5-9125-f01ac2f57d33"><polygon class="edea1e8b-26fb-434a-87f2-292f0eaff6f4" points="26.197 34.723 33.147 34.723 36.439 42.939 36.439 42.939 42.545 42.939 42.573 42.939 26.197 6.219 26.197 6.247 26.197 6.247 26.197 0 26.197 0 52.394 9.342 48.398 43.98 26.197 56.277 26.197 56.277 26.197 34.723"/><polygon class="edea1e8b-26fb-434a-87f2-292f0eaff6f4" points="30.98 29.658 26.197 29.658 26.197 29.658 26.197 18.149 30.98 29.658"/></g></svg>