<svg id="674850fa-8427-49ef-828d-7d6b1c7aae7b" data-name="Layer 1" xmlns="http://www.w3.org/2000/svg" width="115.47015" height="74.60052" viewBox="0 0 115.47015 74.60052"><defs><style>.\32 8daba17-475a-43e9-96d7-d4fdf5b2eb8d,.\36 21df030-d188-411f-aa2c-a9966ed71730,.\36 b5df91a-482e-4fe1-8980-395c1bbc8a44,.ee501b1c-0dfd-4008-b3d5-ac889ba8a2c7{fill:#fff;}.ee501b1c-0dfd-4008-b3d5-ac889ba8a2c7{opacity:0.55;}.\36 b5df91a-482e-4fe1-8980-395c1bbc8a44{opacity:0.75;}.\32 8daba17-475a-43e9-96d7-d4fdf5b2eb8d{opacity:0.5;}</style></defs><title>aws</title><g id="6a68b377-0608-4805-8577-a5717f2b3fb9" data-name="g10"><g id="af611bd9-f1e8-4597-b706-394057921875" data-name="g12"><path id="d86c0600-8ba9-4803-aef0-449ed5c55b9e" data-name="path14" class="621df030-d188-411f-aa2c-a9966ed71730" d="M33.35506,16.42761l-6.711-2.23972V4.48243l6.71917,1.99086-.00821,9.95432" transform="translate(-1.26058 -1.49613)"/><path id="ffb708ed-4251-4f88-9403-65ff73d71908" data-name="path16" class="621df030-d188-411f-aa2c-a9966ed71730" d="M35.10527,6.47329l6.71917-1.99086L41.801,14.18117l-6.69578,2.24644V6.47329" transform="translate(-1.26058 -1.49613)"/><path id="f555183c-f2a4-4855-8a72-be41cd726b7a" data-name="path18" class="621df030-d188-411f-aa2c-a9966ed71730" d="M40.45572,3.4315,34.19346,1.49613,28.01282,3.4315l6.1896,1.65914,6.2533-1.65914" transform="translate(-1.26058 -1.49613)"/><path id="d6d13179-3186-495a-9893-4f7fed08e761" data-name="path20" class="621df030-d188-411f-aa2c-a9966ed71730" d="M50.27741,16.42761l-6.711-2.23972V4.48243l6.71917,1.99086-.00821,9.95432" transform="translate(-1.26058 -1.49613)"/><path id="b22501fd-5a7d-400f-89fd-977eeb8cbeb8" data-name="path22" class="621df030-d188-411f-aa2c-a9966ed71730" d="M52.02762,6.47329l6.71917-1.99086-.02339,9.69874-6.69578,2.24644V6.47329" transform="translate(-1.26058 -1.49613)"/><path id="c997609a-69d8-4b27-84bc-55e0c4c1e87e" data-name="path24" class="621df030-d188-411f-aa2c-a9966ed71730" d="M57.37807,3.4315,51.11581,1.49613,44.93517,3.4315l6.1896,1.65914,6.2533-1.65914" transform="translate(-1.26058 -1.49613)"/><path id="2ce63c77-5e98-4076-a94b-8b6a0f44ba2c" data-name="path26" class="621df030-d188-411f-aa2c-a9966ed71730" d="M7.97974,20.6582,1.26058,18.66734V28.3728l6.711,2.23972.00816-9.95432" transform="translate(-1.26058 -1.49613)"/><path id="75312b3b-af01-46a7-a27e-325fbb6327c2" data-name="path28" class="621df030-d188-411f-aa2c-a9966ed71730" d="M9.72175,20.6582l6.71917-1.99086-.02332,9.69894L9.72175,30.61252V20.6582" transform="translate(-1.26058 -1.49613)"/><path id="fc40abd0-32ea-4bb4-ad37-346bdc2cc9fb" data-name="path30" class="621df030-d188-411f-aa2c-a9966ed71730" d="M15.0722,17.61641,8.80991,15.681,2.6293,17.61641,8.819,19.27554l6.25323-1.65913" transform="translate(-1.26058 -1.49613)"/><path id="c13ef1c2-c73d-4e0f-b4d8-df8464c3a8a7" data-name="path32" class="621df030-d188-411f-aa2c-a9966ed71730" d="M24.89393,30.61252l-6.711-2.23972V18.66734l6.71916,1.99086-.00816,9.95432" transform="translate(-1.26058 -1.49613)"/><path id="ff9ec963-8ad5-4950-b63c-d116132f0ab6" data-name="path34" class="621df030-d188-411f-aa2c-a9966ed71730" d="M26.6441,20.6582l6.71917-1.99086-.02339,9.69894L26.6441,30.61252V20.6582" transform="translate(-1.26058 -1.49613)"/><path id="3cc915fd-9b83-4efc-8181-18e2983dc9ac" data-name="path36" class="621df030-d188-411f-aa2c-a9966ed71730" d="M31.99455,17.61641,25.73226,15.681l-6.18062,1.93537,6.18968,1.65913,6.25323-1.65913" transform="translate(-1.26058 -1.49613)"/><path id="4aec7016-bdbb-48a3-a672-1ac2d9228a56" data-name="path38" class="621df030-d188-411f-aa2c-a9966ed71730" d="M16.43276,44.79743l-6.711-2.23972V32.85225l6.71917,1.99086-.00816,9.95432" transform="translate(-1.26058 -1.49613)"/><path id="86f143db-5942-4743-984b-f53653d37b36" data-name="path40" class="621df030-d188-411f-aa2c-a9966ed71730" d="M18.18293,34.84311l6.71916-1.99086-.02332,9.699-6.69584,2.24623V34.84311" transform="translate(-1.26058 -1.49613)"/><path id="a24a47cc-7e4a-4423-876f-417ed26d77a9" data-name="path42" class="621df030-d188-411f-aa2c-a9966ed71730" d="M23.53337,31.80132,17.27108,29.866l-6.18061,1.93537,6.18967,1.65916,6.25323-1.65916" transform="translate(-1.26058 -1.49613)"/><path id="1c86676c-8aa8-4472-b3df-bc4b7e6fa44f" data-name="path44" class="621df030-d188-411f-aa2c-a9966ed71730" d="M46.15208,36.21805l-.49373.00174a.50352.50352,0,0,0-.46885.32081l-1.49787,5.27706-1.48145-5.26559a.44309.44309,0,0,0-.41162-.33228H41.214a.43788.43788,0,0,0-.40664.33569l-1.37817,5.21084-1.424-5.227a.52147.52147,0,0,0-.47855-.31954l-.71049-.00124a.45482.45482,0,0,0-.36856.17019.245.245,0,0,0-.04181.222l2.1999,7.7882a.43272.43272,0,0,0,.39793.32876h.70651a.4273.4273,0,0,0,.40638-.33644l1.354-5.18791,1.47348,5.19384a.43166.43166,0,0,0,.39544.33051h.69506a.41765.41765,0,0,0,.4039-.33119L46.556,36.614a.25275.25275,0,0,0-.04006-.22846.4488.4488,0,0,0-.36384-.16748" transform="translate(-1.26058 -1.49613)"/><path id="a627d93a-ff3f-4bfa-858d-ca2e1778d63f" data-name="path46" class="621df030-d188-411f-aa2c-a9966ed71730" d="M52.26105,39.52465H48.52868a2.18836,2.18836,0,0,1,1.91819-2.17527A1.98611,1.98611,0,0,1,52.26105,39.52465Zm-1.81691-3.36229c-2.52119,0-3.66941,2.22892-3.66941,4.29969,0,2.58443,1.42744,4.25421,3.63656,4.25421a3.32835,3.32835,0,0,0,3.30682-2.19442.29467.29467,0,0,0-.02438-.24409.412.412,0,0,0-.2725-.1916l-.69979-.13386a.46616.46616,0,0,0-.47433.24331A1.91165,1.91165,0,0,1,50.50983,43.434a2.01671,2.01671,0,0,1-1.75022-1.13183,3.70107,3.70107,0,0,1-.29788-1.62106l5.067-.00174a.42285.42285,0,0,0,.2939-.12542.32076.32076,0,0,0,.09955-.22746c-.01245-2.01324-.93247-4.16409-3.478-4.16409" transform="translate(-1.26058 -1.49613)"/><path id="3af4fbb6-5b91-4cf9-919d-d2059ce8c6b3" data-name="path48" class="621df030-d188-411f-aa2c-a9966ed71730" d="M60.15583,40.47449c0,.47682-.08635,2.85769-1.77784,2.91864a1.88723,1.88723,0,0,1-1.4598-.84757,3.19143,3.19143,0,0,1-.40862-1.52505V39.61972a2.26276,2.26276,0,0,1,1.863-2.29629c1.69721.067,1.78331,2.63643,1.78331,3.15106Zm-1.51256-4.38438h-.13413a2.32178,2.32178,0,0,0-1.99958,1.06019l-.00075-3.28319a.39353.39353,0,0,0-.40066-.35238h-.72866a.39788.39788,0,0,0-.40389.35238v10.249a.39577.39577,0,0,0,.40116.3553l.214-.00117a.43569.43569,0,0,0,.39444-.31408l.22795-.72344a2.6788,2.6788,0,0,0,2.18074,1.19374h.13065c2.24844,0,3.25482-2.18694,3.25482-4.35424a5.36881,5.36881,0,0,0-.72966-2.83,2.90716,2.90716,0,0,0-2.40645-1.3521" transform="translate(-1.26058 -1.49613)"/><path id="899562a6-fe2f-4fe3-ba7d-2ad263d9dbf5" data-name="path50" class="621df030-d188-411f-aa2c-a9966ed71730" d="M69.758,40.24383a4.01691,4.01691,0,0,0-1.61409-.56812l-1.09423-.20287c-.78515-.12908-1.23956-.33964-1.23956-1.03246,0-.73239.759-1.01236,1.40256-1.02975a1.76553,1.76553,0,0,1,1.66387.98717.42477.42477,0,0,0,.37628.24311.3806.3806,0,0,0,.08013-.00864l.68286-.15088a.42394.42394,0,0,0,.27126-.20036.29315.29315,0,0,0,.02762-.24184,2.90861,2.90861,0,0,0-3.0836-1.86041c-1.45009.00321-2.99973.648-2.99973,2.44891,0,1.23088.77345,2.01254,2.30044,2.32362l1.22488.2334c.67241.12871,1.36.35763,1.36,1.07962,0,1.06883-1.2438,1.1778-1.61982,1.18558a2.06432,2.06432,0,0,1-2.03069-1.19133.40645.40645,0,0,0-.46039-.25886l-.71422.14737a.41272.41272,0,0,0-.263.18694.31288.31288,0,0,0-.03957.24711c.36856,1.32215,1.645,2.11947,3.41433,2.13289l.03932.00029c1.58025,0,3.26875-.67668,3.26875-2.57492a2.29162,2.29162,0,0,0-.95337-1.89557" transform="translate(-1.26058 -1.49613)"/><path id="8c2fb3fa-038a-4693-a4cb-b0e8968a836d" data-name="path52" class="621df030-d188-411f-aa2c-a9966ed71730" d="M76.98187,39.53234H73.2485a2.18487,2.18487,0,0,1,1.9177-2.17479A1.98687,1.98687,0,0,1,76.98187,39.53234Zm-1.81766-3.36279c-2.52168,0-3.67016,2.229-3.67016,4.29969,0,2.58424,1.4277,4.25383,3.63706,4.25383a3.32976,3.32976,0,0,0,3.30757-2.19423.296.296,0,0,0-.02489-.24458.41022.41022,0,0,0-.2725-.19122l-.70078-.13386a.4589.4589,0,0,0-.47333.24361,1.915,1.915,0,0,1-1.737,1.23885,2.01546,2.01546,0,0,1-1.74947-1.1323,3.68265,3.68265,0,0,1-.29813-1.62157l5.0665-.00125a.42217.42217,0,0,0,.29241-.12463.32144.32144,0,0,0,.09979-.22825c-.01169-2.013-.931-4.16409-3.477-4.16409" transform="translate(-1.26058 -1.49613)"/><path id="7550c5f4-de09-4217-ac57-f61604598046" data-name="path54" class="621df030-d188-411f-aa2c-a9966ed71730" d="M83.4258,36.26431a2.61236,2.61236,0,0,0-.28619-.01612,2.25845,2.25845,0,0,0-2.02023,1.34557l.00174-.7735a.38932.38932,0,0,0-.39991-.35188h-.63285a.38637.38637,0,0,0-.3922.35489l-.001,7.51378a.38445.38445,0,0,0,.3922.35413l.73836-.00029a.40374.40374,0,0,0,.41012-.35384l.00049-3.7881a3.16882,3.16882,0,0,1,.35662-1.652,1.98543,1.98543,0,0,1,1.8199-1.1883.38674.38674,0,0,0,.37577-.374v-.70282a.39222.39222,0,0,0-.36283-.36757" transform="translate(-1.26058 -1.49613)"/><path id="5a6b479c-14a9-4ecc-816e-5da54c2bafe0" data-name="path56" class="621df030-d188-411f-aa2c-a9966ed71730" d="M91.178,36.11677l-.58307.00027a.52009.52009,0,0,0-.47358.32351L88.23125,42.381,86.3011,36.4465a.5201.5201,0,0,0-.47532-.32946l-.83268-.00077a.4704.4704,0,0,0-.37627.17343.24436.24436,0,0,0-.03957.22494L87.2189,44.351a.44746.44746,0,0,0,.39842.33625h1.00762a.43575.43575,0,0,0,.40589-.33694l2.56224-7.83308a.244.244,0,0,0-.03858-.22524.47.47,0,0,0-.37652-.17517" transform="translate(-1.26058 -1.49613)"/><path id="40299811-18b9-4ace-8a2d-aa38c61a1334" data-name="path58" class="621df030-d188-411f-aa2c-a9966ed71730" d="M93.09368,33.10461a.97662.97662,0,1,0,.97453.97677.97616.97616,0,0,0-.97453-.97677" transform="translate(-1.26058 -1.49613)"/><path id="c9be2153-a639-4c23-aeb8-fdb4a784b4a1" data-name="path60" class="621df030-d188-411f-aa2c-a9966ed71730" d="M93.4946,36.069l-.79958-.00079a.41013.41013,0,0,0-.41559.36883l-.004,7.97813a.34839.34839,0,0,0,.13588.26354.44814.44814,0,0,0,.281.102l.80531.00127h.00049a.406.406,0,0,0,.4146-.36629V36.43707a.40606.40606,0,0,0-.41808-.368" transform="translate(-1.26058 -1.49613)"/><path id="120b0975-eb7a-4ae1-89c2-ac495c0972a6" data-name="path62" class="621df030-d188-411f-aa2c-a9966ed71730" d="M100.96706,41.47916l-.66769.00254a.43128.43128,0,0,0-.41211.30649c-.24388,1.05221-.79635,1.59746-1.634,1.62157-1.63152-.04851-1.75818-2.32255-1.75818-3.01838,0-1.38759.48055-2.885,1.82214-2.92456a1.68243,1.68243,0,0,1,1.57552,1.55166.43734.43734,0,0,0,.38424.36455l.71447.007a.40278.40278,0,0,0,.3795-.38506,3.036,3.036,0,0,0-3.02113-2.815l-.05475.00147-.062-.00147c-2.30294,0-3.334,2.14932-3.334,4.27929,0,1.95286.86926,4.23312,3.321,4.23312h.11746a3.125,3.125,0,0,0,3.043-2.837.31487.31487,0,0,0-.08063-.23517.47241.47241,0,0,0-.333-.15106" transform="translate(-1.26058 -1.49613)"/><path id="91317f32-8215-42e4-b706-829c1d03fd59" data-name="path64" class="621df030-d188-411f-aa2c-a9966ed71730" d="M107.5613,39.53234h-3.73387a2.18489,2.18489,0,0,1,1.9187-2.17479A1.986,1.986,0,0,1,107.5613,39.53234Zm-1.81766-3.36279c-2.52143,0-3.66966,2.229-3.66966,4.29969,0,2.58424,1.4277,4.25383,3.63706,4.25383a3.32939,3.32939,0,0,0,3.30682-2.19394.29932.29932,0,0,0-.02538-.24487.40776.40776,0,0,0-.27225-.19122l-.6998-.13386a.45835.45835,0,0,0-.47332.24361,1.91837,1.91837,0,0,1-1.738,1.23914,2.01581,2.01581,0,0,1-1.749-1.13259,3.68728,3.68728,0,0,1-.29863-1.62157l5.067-.00078a.42341.42341,0,0,0,.2944-.12587.32087.32087,0,0,0,.09831-.22748c-.0117-2.013-.93123-4.16409-3.47755-4.16409" transform="translate(-1.26058 -1.49613)"/><path id="67c60da9-258d-41a3-b402-b3bfcf9af647" data-name="path66" class="621df030-d188-411f-aa2c-a9966ed71730" d="M115.56881,40.24383a4.021,4.021,0,0,0-1.61459-.56812L112.86,39.47284c-.7844-.12908-1.23856-.33964-1.23856-1.03246,0-.94469,1.17236-1.02363,1.40106-1.02975a1.76439,1.76439,0,0,1,1.66412.98747.42661.42661,0,0,0,.37751.24281.38721.38721,0,0,0,.08064-.00864l.68237-.15088a.42413.42413,0,0,0,.271-.20053.29365.29365,0,0,0,.02737-.24167,2.9083,2.9083,0,0,0-3.0841-1.86041c-1.4496.00321-2.99874.648-2.99874,2.44891,0,1.23118.7732,2.01284,2.29995,2.32362l1.22538.2334c.67241.12871,1.36.35763,1.36,1.07962,0,1.06883-1.2438,1.1778-1.61982,1.18558a2.05062,2.05062,0,0,1-2.03043-1.19033.4058.4058,0,0,0-.46238-.25986l-.713.14737a.41473.41473,0,0,0-.26379.18791.31166.31166,0,0,0-.03883.24614c.36757,1.32215,1.6437,2.11947,3.41334,2.13289l.03932.00029c1.5805,0,3.26926-.67668,3.26926-2.57492a2.29029,2.29029,0,0,0-.95288-1.89557" transform="translate(-1.26058 -1.49613)"/><path id="42b812c3-6e9e-4fa2-87f5-91b64ad8801b" data-name="path68" class="621df030-d188-411f-aa2c-a9966ed71730" d="M83.064,20.70847V18.89678a.44885.44885,0,0,1,.45988-.45889l8.11651-.00025a.45257.45257,0,0,1,.4681.45715v1.55362a2.55412,2.55412,0,0,1-.61144,1.1401l-4.204,6.00263a8.99654,8.99654,0,0,1,4.62876.99349.83041.83041,0,0,1,.43153.70641v1.93313c0,.26655-.29166.57461-.59776.41412a9.351,9.351,0,0,0-8.57689.01516c-.282.15058-.5776-.15273-.5776-.41928V29.3973a2.192,2.192,0,0,1,.30186-1.245l4.8714-6.98749-4.24079-.001a.4521.4521,0,0,1-.4696-.45541" transform="translate(-1.26058 -1.49613)"/><path id="2cd387ad-6cfc-44e9-aa4d-67805f968d30" data-name="path70" class="621df030-d188-411f-aa2c-a9966ed71730" d="M53.45731,32.01954H50.9874a.46521.46521,0,0,1-.44123-.41811l.00174-12.67379a.46566.46566,0,0,1,.47632-.45616l2.29969-.00124a.46829.46829,0,0,1,.44994.42555v1.656h.04579a3.39172,3.39172,0,0,1,6.45339,0,3.6478,3.6478,0,0,1,6.26948-.96091c.78365,1.06735.62214,2.61318.62214,3.97394l-.00149,7.99814a.46622.46622,0,0,1-.47582.45661H64.22116a.464.464,0,0,1-.44371-.45544V24.84474a16.26276,16.26276,0,0,0-.06943-2.37339,1.28679,1.28679,0,0,0-1.45184-1.09283A1.6387,1.6387,0,0,0,60.78,22.41723a7.68016,7.68016,0,0,0-.23,2.42751v6.71819a.46634.46634,0,0,1-.47631.45661H57.607a.46426.46426,0,0,1-.443-.45544l-.00323-6.71936c0-1.41362.23119-3.493-1.52028-3.493-1.77486,0-1.70567,2.02635-1.70567,3.493l-.0015,6.71819a.46517.46517,0,0,1-.47606.45661" transform="translate(-1.26058 -1.49613)"/><path id="bd1e4a38-e29a-4a0b-bf31-9965843878e3" data-name="path72" class="621df030-d188-411f-aa2c-a9966ed71730" d="M99.11879,20.79119c-1.82189,0-1.93662,2.48-1.93662,4.02742,0,1.5465-.02289,4.8532,1.91422,4.8532,1.91346,0,2.0053-2.667,2.0053-4.29357a11.72,11.72,0,0,0-.36831-3.35988A1.54708,1.54708,0,0,0,99.11879,20.79119Zm-.0224-2.586c3.66469,0,5.64734,3.14659,5.64734,7.14551,0,3.86791-2.19069,6.93508-5.64733,6.93508-3.59625,0-5.556-3.14746-5.556-7.06777,0-3.94691,1.98191-7.01282,5.556-7.01282" transform="translate(-1.26058 -1.49613)"/><path id="539743ed-122b-468a-9e7d-72d85b023968" data-name="path74" class="621df030-d188-411f-aa2c-a9966ed71730" d="M109.49691,32.01954h-2.46046a.46394.46394,0,0,1-.44322-.45543l-.00349-12.67952a.46714.46714,0,0,1,.47333-.41311l2.29123-.00124a.4701.4701,0,0,1,.4385.35512v1.93928h.04678c.69058-1.73372,1.65939-2.55944,3.36431-2.55944a3.236,3.236,0,0,1,2.88177,1.49265,8.06453,8.06453,0,0,1,.64506,3.94635v7.9757a.46761.46761,0,0,1-.47183.39964h-2.47664a.46767.46767,0,0,1-.43973-.39964V24.7381c0-1.38668.16176-3.414-1.54466-3.414a1.61745,1.61745,0,0,0-1.42844,1.0136,5.626,5.626,0,0,0-.392,2.40041v6.82483a.473.473,0,0,1-.48055.45661" transform="translate(-1.26058 -1.49613)"/><path class="621df030-d188-411f-aa2c-a9966ed71730" d="M80.992,29.6965a3.37077,3.37077,0,0,1-.93322-2.28879v-3.847c0-1.63051.11572-3.12705-1.085-4.25007a5.60444,5.60444,0,0,0-3.71918-1.22912c-2.35,0-4.97194.87748-5.52192,3.7816a.43347.43347,0,0,0,.36832.51552l2.39277.25926a.51957.51957,0,0,0,.42878-.4535,1.88088,1.88088,0,0,1,1.98489-1.48315,1.64709,1.64709,0,0,1,1.38589.641,3.15789,3.15789,0,0,1,.30087,1.79043V23.453a17.09143,17.09143,0,0,0-4.64319.85611A4.19483,4.19483,0,0,0,69.318,28.3449a3.50461,3.50461,0,0,0,3.6963,3.84884A4.89367,4.89367,0,0,0,77.0849,30.399a6.0366,6.0366,0,0,0,1.4155,1.646.512.512,0,0,0,.58282-.05747l.00672.00546c.49249-.43968,1.38864-1.21736,1.89282-1.64A.467.467,0,0,0,80.992,29.6965Zm-4.86021-1.11091a2.00525,2.00525,0,0,1-1.7099,1.12278c-.94616,0-1.50037-.72138-1.50037-1.791,0-2.10266,1.88685-2.48547,3.67265-2.48547v.53417A4.84205,4.84205,0,0,1,76.13176,28.58559Z" transform="translate(-1.26058 -1.49613)"/><path class="621df030-d188-411f-aa2c-a9966ed71730" d="M48.62026,29.6965a3.37612,3.37612,0,0,1-.93222-2.28879v-3.847c0-1.63051.116-3.12705-1.08528-4.25007a5.60357,5.60357,0,0,0-3.71968-1.22912c-2.34971,0-4.97193.87748-5.52191,3.7816a.43423.43423,0,0,0,.36856.51552l2.39376.25926a.5209.5209,0,0,0,.42879-.4535,1.88063,1.88063,0,0,1,1.98514-1.48315,1.64939,1.64939,0,0,1,1.38564.641,3.15774,3.15774,0,0,1,.30037,1.79043V23.453a17.09319,17.09319,0,0,0-4.64319.85611,4.19561,4.19561,0,0,0-2.63391,4.03578,3.50478,3.50478,0,0,0,3.696,3.84884A4.893,4.893,0,0,0,44.71369,30.399a6.04539,6.04539,0,0,0,1.4155,1.646.51385.51385,0,0,0,.58406-.05747h0l.00572.00546c.49225-.43968,1.38888-1.21736,1.89357-1.64A.46679.46679,0,0,0,48.62026,29.6965ZM43.7618,28.58559a2.00509,2.00509,0,0,1-1.70916,1.12278c-.94815,0-1.5021-.72138-1.5021-1.791,0-2.10266,1.88634-2.48547,3.67289-2.48547v.53417A4.85089,4.85089,0,0,1,43.7618,28.58559Z" transform="translate(-1.26058 -1.49613)"/></g></g><polygon class="621df030-d188-411f-aa2c-a9966ed71730" points="28.004 56.323 26.631 55.82 26.631 55.826 26.631 57.617 26.631 70.069 26.631 71.866 28.004 71.364 28.004 56.323"/><polygon class="621df030-d188-411f-aa2c-a9966ed71730" points="25.417 57.273 24.338 56.967 24.338 56.973 24.338 70.72 25.417 70.413 25.417 57.273"/><polygon class="621df030-d188-411f-aa2c-a9966ed71730" points="29.572 54.349 29.572 54.356 29.572 56.896 29.572 70.79 29.572 73.334 37.435 69.402 37.435 58.281 29.572 54.349"/><polygon class="621df030-d188-411f-aa2c-a9966ed71730" points="23.371 58.091 22.5 57.892 22.5 69.792 23.371 69.593 23.371 58.091"/><path class="ee501b1c-0dfd-4008-b3d5-ac889ba8a2c7" d="M29.26461,56.636l1.56754-.78389V74.83643l-1.56754-.78365V56.636m-2.5869,1.2933,1.21345-.6067V73.36593l-1.21345-.60669v-14.83M24.6319,58.95232l.96661-.48331V72.21949l-.96661-.48361V58.95232m-.87092.43533-.78837.39419V70.9069l.78837.39394V59.38765" transform="translate(-1.26058 -1.49613)"/><path class="6b5df91a-482e-4fe1-8980-395c1bbc8a44" d="M89.38661,73.73014l3.35051,1.67541.32726-.24415-.13774-18.67724-.18952-.22285-3.35051,1.67541V73.73014" transform="translate(-1.26058 -1.49613)"/><path class="28daba17-475a-43e9-96d7-d4fdf5b2eb8d" d="M91.47382,63.22983l-1.17577.17119-5.48666-.61818.02323-.06088.89031-.26712.0947.05363.02143-.05363,5.5974.65422.03536.12077" transform="translate(-1.26058 -1.49613)"/><path class="6b5df91a-482e-4fe1-8980-395c1bbc8a44" d="M84.81139,60.22442l1.00824-.5044v2.78845l-1.00824.27437V60.22442" transform="translate(-1.26058 -1.49613)"/><path class="621df030-d188-411f-aa2c-a9966ed71730" d="M91.47382,63.22983l-5.65419-.72136V59.72l5.65419,1.32629v2.18352" transform="translate(-1.26058 -1.49613)"/><polygon class="621df030-d188-411f-aa2c-a9966ed71730" points="93.791 63.153 92.74 63.081 92.74 63.081 92.74 60.799 94.827 60.44 94.827 56.441 91.477 54.765 91.477 73.909 94.827 72.234 94.827 63.098 93.791 63.153"/><path class="621df030-d188-411f-aa2c-a9966ed71730" d="M100.66681,64.37873l-1.01227-.13161V61.35394l1.01227.37068v2.65411" transform="translate(-1.26058 -1.49613)"/><path class="28daba17-475a-43e9-96d7-d4fdf5b2eb8d" d="M100.66681,64.34786l-5.61511.30157-1.05135-.0721.19806-.08237,5.47353-.31358.99487.16648" transform="translate(-1.26058 -1.49613)"/><path class="6b5df91a-482e-4fe1-8980-395c1bbc8a44" d="M99.65454,61.32307l-5.65419.97183v2.28243l5.65419-.33928.03289-.06441L99.67584,61.375l-.0213-.0519" transform="translate(-1.26058 -1.49613)"/><path class="28daba17-475a-43e9-96d7-d4fdf5b2eb8d" d="M55.201,59.80491l-1.31383.657V71.99361l1.31383.65322.0079-.00949V59.814l-.0079-.00905" transform="translate(-1.26058 -1.49613)"/><path class="621df030-d188-411f-aa2c-a9966ed71730" d="M59.05816,70.38738l.01282.00317-.0125-.00349,2.98248-.54727.19137.0351V62.60358l-.19137.03487-2.98248-.54371h0V60.70313L55.201,59.80491V72.64683l3.8572-.91817Zm.00032-2.0347V64.1346l2.98248-.37419.03548.03822-.01675,4.89054-.01873.04319-2.98248-.37968Z" transform="translate(-1.26058 -1.49613)"/><path class="28daba17-475a-43e9-96d7-d4fdf5b2eb8d" d="M59.05848,68.35268l2.98248.37968.01873-.04319.01675-4.89054-.03548-.03822-2.98248.37419v4.21808" transform="translate(-1.26058 -1.49613)"/><polygon class="28daba17-475a-43e9-96d7-d4fdf5b2eb8d" points="67.62 58.309 63.764 59.242 63.764 60.599 60.78 61.142 60.78 62.264 63.764 62.638 63.764 66.857 60.78 67.236 60.78 68.344 63.764 68.891 63.755 68.893 63.763 68.891 63.763 70.219 67.62 71.154 67.62 58.309 67.62 58.309"/><path class="28daba17-475a-43e9-96d7-d4fdf5b2eb8d" d="M59.05848,62.09474l2.98248-.73807.02414-.00745V56.40485l-.02414-.01994L59.05848,57.8764v4.21834" transform="translate(-1.26058 -1.49613)"/><path class="28daba17-475a-43e9-96d7-d4fdf5b2eb8d" d="M62.041,76.09664l-2.9828-1.491V70.38738l2.9828.73782.04389.04988-.01191,4.8355-.032.08606" transform="translate(-1.26058 -1.49613)"/><path class="621df030-d188-411f-aa2c-a9966ed71730" d="M65.02427,68.35268l-2.98331.37968V63.76041l2.98331.37419v4.21808" transform="translate(-1.26058 -1.49613)"/><path class="621df030-d188-411f-aa2c-a9966ed71730" d="M65.02427,62.09474,62.041,61.35667V56.38491l2.98331,1.49149v4.21834" transform="translate(-1.26058 -1.49613)"/><path class="621df030-d188-411f-aa2c-a9966ed71730" d="M62.041,76.09664l2.98306-1.491V70.38738L62.041,71.1252v4.97144M68.8809,59.80491l1.3144.657V71.99361l-1.3144.65679V59.80491" transform="translate(-1.26058 -1.49613)"/></svg>