<svg id="461f5bb1-aaf0-44bf-9d36-c5f6e8ea1214" data-name="Layer 1" xmlns="http://www.w3.org/2000/svg" width="43.43659" height="61.31086" viewBox="0 0 43.43659 61.31086"><defs><style>.\36 53b0c73-a35d-4f5d-bc81-e74ab3b6c698,.\36 f225b20-4f95-4322-bad4-784a21d43ea5{fill:#fff;}.\36 53b0c73-a35d-4f5d-bc81-e74ab3b6c698{opacity:0.53;}</style></defs><title>css3</title><g id="5ac010fb-29eb-4e38-b820-f254b1d86999" data-name="layer1"><g id="6f531510-4830-44b8-8d2a-7dcb3f2f36e4" data-name="g3013"><path id="984e6683-d725-4fc0-8c1d-7892d94ee54c" data-name="path2999" class="6f225b20-4f95-4322-bad4-784a21d43ea5" d="M9.84511,2.55847h6.58613v2.7542H12.59931v2.7542h3.83193v2.7542H9.84511Z" transform="translate(0.3774 -2.55847)"/><path id="c3da2a86-ac30-4991-887e-82034ced308b" data-name="path3001" class="6f225b20-4f95-4322-bad4-784a21d43ea5" d="M17.74846,2.55847h6.58613v2.395H20.50266v.479h3.83193v5.5084H17.74846V8.42611h3.83193v-.479H17.74846Z" transform="translate(0.3774 -2.55847)"/><path id="966986cf-a87f-46fe-b19a-dd37e9bf653c" data-name="path3003" class="6f225b20-4f95-4322-bad4-784a21d43ea5" d="M25.65182,2.55847H32.238v2.395H28.406v.479H32.238v5.5084H25.65182V8.42611h3.83193v-.479H25.65182Z" transform="translate(0.3774 -2.55847)"/><polygon class="653b0c73-a35d-4f5d-bc81-e74ab3b6c698" points="28.396 37.556 21.718 37.556 21.718 46.24 27.764 44.609 28.396 37.556"/><polygon class="653b0c73-a35d-4f5d-bc81-e74ab3b6c698" points="21.718 21.112 35.321 21.112 34.34 32.118 34.207 33.579 32.929 47.895 32.847 48.813 21.718 51.898 21.718 51.899 21.718 57.542 36.092 53.557 39.473 15.674 21.718 15.674 21.718 21.112"/><polygon class="653b0c73-a35d-4f5d-bc81-e74ab3b6c698" points="29.362 26.55 21.718 26.55 21.718 32.118 28.867 32.118 29.362 26.55"/><path class="6f225b20-4f95-4322-bad4-784a21d43ea5" d="M-.3774,14.60749,3.5756,58.945l17.73872,4.92439L39.102,58.938l3.95718-44.33051ZM35.71423,56.11518,21.34089,60.1V54.457l-.025.00694L10.17693,51.37174l-.76184-8.53813H14.8738l.38715,4.3369,6.05612,1.63527.005-.00134V48.804l.01879-.00507v-8.6843H9.17213l-.48737-5.43774H21.34089v-5.5684H8.19977l-.49431-5.43786H21.34089V18.23274h17.755Z" transform="translate(0.3774 -2.55847)"/></g></g></svg>