<svg id="0028cdc8-bddd-4b4c-aba8-b51fe4c9c699" data-name="Layer 1" xmlns="http://www.w3.org/2000/svg" width="43.52461" height="61.31086" viewBox="0 0 43.52461 61.31086"><defs><style>.\32 136bf10-ea3c-426c-969a-4275d1a722cb,.e73afe3f-b83c-4e1f-97e3-95a61a9e365e{fill:#fff;}.e73afe3f-b83c-4e1f-97e3-95a61a9e365e{opacity:0.8;isolation:isolate;}.\36 85c0abd-bb15-42ab-b5fb-0075bd5b8ece{opacity:0.2;}</style></defs><title>html5</title><path class="2136bf10-ea3c-426c-969a-4275d1a722cb" d="M4.3905,1.55847H7.16069V4.29575H9.69506V1.55847h2.77083V9.84731H9.69506V7.07179H7.16069V9.84718H4.3905Z" transform="translate(-0.39729 -1.55847)"/><path class="2136bf10-ea3c-426c-969a-4275d1a722cb" d="M16.109,4.30707h-2.4393V1.55847h7.64955V4.3072H18.87928V9.84731H16.10883V4.30707Z" transform="translate(-0.39729 -1.55847)"/><path class="2136bf10-ea3c-426c-969a-4275d1a722cb" d="M22.53393,1.55847h2.8888L27.19959,4.471l1.77517-2.91248h2.89V9.84731h-2.759V5.739L27.19959,8.68606H27.152L25.24454,5.739v4.1082H22.53393Z" transform="translate(-0.39729 -1.55847)"/><path class="2136bf10-ea3c-426c-969a-4275d1a722cb" d="M33.24371,1.55847H36.0152V7.10769h3.89618V9.84718H33.24371Z" transform="translate(-0.39729 -1.55847)"/><path class="2136bf10-ea3c-426c-969a-4275d1a722cb" d="M14.96177,33.60251h7.19769V28.02h-7.696ZM.39729,13.48179,4.36046,57.93118,22.1488,62.86934l17.80512-4.93582,3.968-44.45173Zm36.1599,41.62158-14.39773,3.9914V53.4376l-.00871.0026L10.98338,50.34l-.78092-8.7533h5.4726l.40529,4.54119,6.07157,1.63976.00767-.00247v-8.711H9.97626L8.50572,22.5682H22.15946V17.11654H39.94832Z" transform="translate(-0.39729 -1.55847)"/><path class="e73afe3f-b83c-4e1f-97e3-95a61a9e365e" d="M28.86992,39.05417H22.15946v8.71117l6.07781-1.64055ZM22.15946,17.11654V22.5682H35.81334L35.32506,28.02H22.15946v5.58251H34.82885L33.3332,50.34,22.15946,53.4376v5.65717l14.39773-3.9914,3.391-37.987H22.15946Z" transform="translate(-0.39729 -1.55847)"/><g class="685c0abd-bb15-42ab-b5fb-0075bd5b8ece"><polygon class="2136bf10-ea3c-426c-969a-4275d1a722cb" points="21.762 21.01 8.108 21.01 9.579 37.496 21.762 37.496 21.762 32.044 14.564 32.044 14.066 26.462 21.762 26.462 21.762 21.01"/><polygon class="2136bf10-ea3c-426c-969a-4275d1a722cb" points="21.762 46.207 21.754 46.209 15.683 44.569 15.278 40.028 9.805 40.028 10.586 48.781 21.753 51.882 21.762 51.879 21.762 46.207"/></g></svg>