<svg id="ecdca661-2d9f-437f-a823-63b0a4a70d94" data-name="Layer 1" xmlns="http://www.w3.org/2000/svg" width="129.38497" height="139.39326" viewBox="0 0 129.38497 139.39326"><defs><style>.\32 265e1ba-ec85-4515-b786-f5f17e0ab52f,.b222a480-ccca-4a2c-8a76-110f9fe4d744{fill:#f18f4d;}.\32 265e1ba-ec85-4515-b786-f5f17e0ab52f{stroke:#f18f4e;}.\32 265e1ba-ec85-4515-b786-f5f17e0ab52f,.c9845d07-3857-4ddf-9aa0-3d65189754b3{stroke-miterlimit:10;}.c9845d07-3857-4ddf-9aa0-3d65189754b3{fill:none;stroke:#f18f4d;stroke-width:7px;}</style></defs><title>joyride</title><path class="b222a480-ccca-4a2c-8a76-110f9fe4d744" d="M97.91941,34.94759c-8.896-8.10968-20.49037-13.88381-36.84792-13.88381-15.99327,0-27.409,6.10845-36.39414,13.88381V27.39413A51.42469,51.42469,0,0,1,61.16267,12.84418a52.64358,52.64358,0,0,1,36.75674,14.55Z" transform="translate(3.70383 3.99975)"/><path class="b222a480-ccca-4a2c-8a76-110f9fe4d744" d="M91.1176,48.02C83.872,41.41642,74.432,36.71308,61.11386,36.71308c-13.02564,0-22.31851,4.97588-29.63459,11.30687V41.86856A41.86028,41.86028,0,0,1,61.18658,30.02083a42.87035,42.87035,0,0,1,29.931,11.84773Z" transform="translate(3.70383 3.99975)"/><path class="2265e1ba-ec85-4515-b786-f5f17e0ab52f" d="M81.71443,58.25172a29.11358,29.11358,0,0,0-20.54309-7.73933,29.75872,29.75872,0,0,0-20.28956,7.73933V54.04238a28.67034,28.67034,0,0,1,20.34227-8.11227,29.35154,29.35154,0,0,1,20.49038,8.11227Z" transform="translate(3.70383 3.99975)"/><path class="b222a480-ccca-4a2c-8a76-110f9fe4d744" d="M85.09693,90.6556,90.725,88.66183a28.43648,28.43648,0,0,0-.46312-4.48609l-5.855-.615a22.756,22.756,0,0,0-1.44807-3.97586l4.02209-4.3013a28.82858,28.82858,0,0,0-2.51-3.64674l-5.48639,2.10629a23.4216,23.4216,0,0,0-3.35526-2.987l1.49522-5.603a29.50732,29.50732,0,0,0-3.88632-2.04235L69.37185,67.465a24.24116,24.24116,0,0,0-4.534-1.10887l-1.34265-5.6114c-.72755-.05226-1.453-.10831-2.19674-.10831-.74444,0-1.47142.056-2.19562.10831l-1.346,5.6114A24.2357,24.2357,0,0,0,53.22436,67.465l-3.8662-4.3541a29.54073,29.54073,0,0,0-3.88965,2.04235l1.49688,5.603a23.71282,23.71282,0,0,0-3.35526,2.987L38.127,71.63687a28.59481,28.59481,0,0,0-2.50942,3.64674l4.01987,4.3013a22.58543,22.58543,0,0,0-1.44752,3.97586l-5.855.615a28.71565,28.71565,0,0,0-.46367,4.48609L37.496,90.6556a22.79854,22.79854,0,0,0,.57009,3.92307l-4.913,3.20563a27.44721,27.44721,0,0,0,1.79977,4.2854l5.92561-.77974a24.028,24.028,0,0,0,2.22386,3.03134l-2.81563,5.05778a30.0148,30.0148,0,0,0,3.69684,3.07775l4.86905-3.35775a24.81978,24.81978,0,0,0,3.24406,1.63976l-.07661,5.75617a30.38855,30.38855,0,0,0,4.7931,1.10519L59.50889,112.44c.58688.04219,1.18354.08871,1.78955.08871.60533,0,1.20044-.04652,1.789-.08871l2.694,5.16024a30.34576,30.34576,0,0,0,4.7931-1.10519l-.07606-5.75617a24.84065,24.84065,0,0,0,3.24518-1.63976l4.86571,3.35775a29.932,29.932,0,0,0,3.70018-3.07775l-2.8173-5.05778a23.33652,23.33652,0,0,0,2.2222-3.03134l5.93272.77974a27.75424,27.75424,0,0,0,1.796-4.2854l-4.91141-3.20563A22.42041,22.42041,0,0,0,85.09693,90.6556ZM61.29844,104.541A15.42849,15.42849,0,1,1,77.14838,89.11938,15.63758,15.63758,0,0,1,61.29844,104.541Z" transform="translate(3.70383 3.99975)"/><path class="c9845d07-3857-4ddf-9aa0-3d65189754b3" d="M122.18114,105.268c0,14.70531-12.25407,26.62553-27.36669,26.62553H27.1613c-15.11429,0-27.36513-11.92022-27.36513-26.62553V26.1273c0-14.70628,12.25084-26.627,27.36513-26.627H94.81445c15.11262,0,27.36669,11.92077,27.36669,26.62705Z" transform="translate(3.70383 3.99975)"/></svg>