<svg id="bda106c5-3923-4509-939d-894ba43964cb" data-name="Layer 1" xmlns="http://www.w3.org/2000/svg" width="120.7004" height="29.56446" viewBox="0 0 120.7004 29.56446"><defs><style>.\37 580582d-d56f-433f-9aac-dcd98e0f9add{fill:#fff;}</style></defs><title>jquery</title><path class="7580582d-d56f-433f-9aac-dcd98e0f9add" d="M53.16683,11.57808l.00024-.00116-.77271,2.7386.77243-2.73744Z" transform="translate(-1.55298 -0.93465)"/><path class="7580582d-d56f-433f-9aac-dcd98e0f9add" d="M57.141,17.52347l-.8515-.00508Z" transform="translate(-1.55298 -0.93465)"/><path class="7580582d-d56f-433f-9aac-dcd98e0f9add" d="M56.922,21.61316H56.923l-5.10168.01858,5.101-.01858Z" transform="translate(-1.55298 -0.93465)"/><path class="7580582d-d56f-433f-9aac-dcd98e0f9add" d="M57.99166,17.52854l-.8518-.00507Z" transform="translate(-1.55298 -0.93465)"/><path class="7580582d-d56f-433f-9aac-dcd98e0f9add" d="M57.36925,21.26553l.88866-3.38914-.88866,3.38983v-.00069Z" transform="translate(-1.55298 -0.93465)"/><path class="7580582d-d56f-433f-9aac-dcd98e0f9add" d="M76.15217,5.658,74.4967,13.44046Z" transform="translate(-1.55298 -0.93465)"/><path class="7580582d-d56f-433f-9aac-dcd98e0f9add" d="M71.89674,5.658,70.64,11.47181l1.25673-5.81423Z" transform="translate(-1.55298 -0.93465)"/><path class="7580582d-d56f-433f-9aac-dcd98e0f9add" d="M75.86863,5.30788H72.32874a.46557.46557,0,0,0-.43336.34949L70.63867,11.4716l-1.25674,5.81422a.46408.46408,0,0,1-.43278.34894H66.44358c-2.4788,0-2.1921-1.71427-1.68444-4.06341l.01518-.07091.05572-.296.0104-.05572.11312-.60277.12128-.64608c.03687-.19473.09287-.47951.12945-.65847L65.77552,8.45l.57181-2.79139a.28121.28121,0,0,0-.28589-.35062H62.428a.46184.46184,0,0,0-.4311.35007L61.21568,9.3646l-.78117,3.7061-.00115.00563-.0726.34444c-.89991,4.10837-.66128,8.02609,4.22938,8.14872.07993.00231.14183.00288.14183.00288h7.67684a.463.463,0,0,0,.432-.35007l1.65547-7.78172,1.65547-7.78242a.27844.27844,0,0,0-.28308-.35007Z" transform="translate(-1.55298 -0.93465)"/><path class="7580582d-d56f-433f-9aac-dcd98e0f9add" d="M89.99041,17.67538a.28066.28066,0,0,1,.28589.35007l-.34387,1.68" transform="translate(-1.55298 -0.93465)"/><path class="7580582d-d56f-433f-9aac-dcd98e0f9add" d="M89.5893,21.38632l.34359-1.68108L89.589,21.38687l.00023-.00046Z" transform="translate(-1.55298 -0.93465)"/><path class="7580582d-d56f-433f-9aac-dcd98e0f9add" d="M89.15822,21.73994l.00161-.00046c-1.04173.00844-4.17221.03208-6.52515.03208,2.86354,0,6.52331-.03152,6.52331-.03152Z" transform="translate(-1.55298 -0.93465)"/><path class="7580582d-d56f-433f-9aac-dcd98e0f9add" d="M80.52287,15.51147c-.00288-.184.20655-.5009.40325-.5009l-.44207-.00731c-.19923,2.00356.03884.50821.03884.50821Z" transform="translate(-1.55298 -0.93465)"/><path class="7580582d-d56f-433f-9aac-dcd98e0f9add" d="M82.95718,21.77083c-.0225,0-.04558,0-.0681.00046C82.91158,21.77083,82.93468,21.77083,82.95718,21.77083Z" transform="translate(-1.55298 -0.93465)"/><path class="7580582d-d56f-433f-9aac-dcd98e0f9add" d="M89.99041,17.67538a.28066.28066,0,0,1,.28589.35007l-.34387,1.68-.056.27409" transform="translate(-1.55298 -0.93465)"/><path class="7580582d-d56f-433f-9aac-dcd98e0f9add" d="M84.63307,21.76691h0Z" transform="translate(-1.55298 -0.93465)"/><path class="7580582d-d56f-433f-9aac-dcd98e0f9add" d="M83.764,21.76968h0Z" transform="translate(-1.55298 -0.93465)"/><path class="7580582d-d56f-433f-9aac-dcd98e0f9add" d="M83.49891,21.77037c-.02813,0-.05572,0-.08329.00046C83.44319,21.77037,83.47077,21.77037,83.49891,21.77037Z" transform="translate(-1.55298 -0.93465)"/><path class="7580582d-d56f-433f-9aac-dcd98e0f9add" d="M83.2292,21.77083h0Z" transform="translate(-1.55298 -0.93465)"/><path class="7580582d-d56f-433f-9aac-dcd98e0f9add" d="M83.71329,21.76968c-.07175,0-.14351.00046-.21441.00046C83.56979,21.77014,83.64154,21.76968,83.71329,21.76968Z" transform="translate(-1.55298 -0.93465)"/><path class="7580582d-d56f-433f-9aac-dcd98e0f9add" d="M84.61924,21.76691c-.28647.00116-.57236.00231-.854.00289C84.04688,21.76933,84.33308,21.76818,84.61924,21.76691Z" transform="translate(-1.55298 -0.93465)"/><path class="7580582d-d56f-433f-9aac-dcd98e0f9add" d="M89.16053,21.73925h.00023c-.76344.0062-2.64869.02026-4.52883.02758C86.5111,21.7601,88.39681,21.74546,89.16053,21.73925Z" transform="translate(-1.55298 -0.93465)"/><path class="7580582d-d56f-433f-9aac-dcd98e0f9add" d="M89.5893,21.387l.28787-1.40756L89.589,21.38812l.00023-.00115Z" transform="translate(-1.55298 -0.93465)"/><path class="7580582d-d56f-433f-9aac-dcd98e0f9add" d="M83.41592,21.77083h0Z" transform="translate(-1.55298 -0.93465)"/><path class="7580582d-d56f-433f-9aac-dcd98e0f9add" d="M82.888,21.77129h0Z" transform="translate(-1.55298 -0.93465)"/><path class="7580582d-d56f-433f-9aac-dcd98e0f9add" d="M83.15543,21.77083h0Z" transform="translate(-1.55298 -0.93465)"/><path class="7580582d-d56f-433f-9aac-dcd98e0f9add" d="M31.37329,15.55366l.54984-2.43754-.62863,2.78632-.60332,2.83818.52875-2.488c.0408-.19248.11-.50708.15336-.699Z" transform="translate(-1.55298 -0.93465)"/><path class="7580582d-d56f-433f-9aac-dcd98e0f9add" d="M37.9547,5.26685H34.06717a.47074.47074,0,0,0-.43672.34836l-.36863,1.627-.36863,1.62762a.27362.27362,0,0,0,.27859.34837H37.0895a.46593.46593,0,0,0,.43391-.34895l.35624-1.627.35625-1.62592V5.61588a.276.276,0,0,0-.28112-.34894Z" transform="translate(-1.55298 -0.93465)"/><path class="7580582d-d56f-433f-9aac-dcd98e0f9add" d="M37.10868,10.67927v-.00046l-1.14023,5.275Z" transform="translate(-1.55298 -0.93465)"/><path class="7580582d-d56f-433f-9aac-dcd98e0f9add" d="M25.81541,28.157s1.95967.02533,3.20541.02533c-.94634,0-2.50923-.01743-3.207-.02588l.00184.00046Z" transform="translate(-1.55298 -0.93465)"/><path class="7580582d-d56f-433f-9aac-dcd98e0f9add" d="M32.47288,10.67858l-.55041,2.43754Z" transform="translate(-1.55298 -0.93465)"/><path class="7580582d-d56f-433f-9aac-dcd98e0f9add" d="M36.82744,10.3298H32.90926a.46968.46968,0,0,0-.43617.34894l-.55041,2.43754-.54984,2.43754c-.04334.19191-.11257.50653-.15337.699l-.52874,2.488-.52848,2.488c-.04108.19192-.1255.502-.18853.6883,0,0-.73191,2.178-1.96248,2.15325-.05234-.00115-.10328-.00161-.15364-.00288-.59629-.01127-1.06481-.01971-1.06481-.01971h-.00092a.46651.46651,0,0,0-.43926.34106l-.40634,1.7081-.40579,1.70752a.27375.27375,0,0,0,.273.35175c.69788.00844,2.26075.02588,3.207.02588,3.07378,0,4.69412-1.703,5.73285-6.60376L35.969,15.95385l1.14023-5.275a.27685.27685,0,0,0-.282-.34894Z" transform="translate(-1.55298 -0.93465)"/><path class="7580582d-d56f-433f-9aac-dcd98e0f9add" d="M92.487,21.57212a.27786.27786,0,0,1-.28253-.35007L95.15189,7.4161" transform="translate(-1.55298 -0.93465)"/><path class="7580582d-d56f-433f-9aac-dcd98e0f9add" d="M96.58333,21.2215l1.192-5.8926Z" transform="translate(-1.55298 -0.93465)"/><path class="7580582d-d56f-433f-9aac-dcd98e0f9add" d="M92.24721,21.39716a1.52368,1.52368,0,0,1,.0318-.52453l1.39883-6.55328L92.20417,21.2221a.27786.27786,0,0,0,.28252.35007h.358c-.19669,0-.57377-.07879-.59742-.175Z" transform="translate(-1.55298 -0.93465)"/><path class="7580582d-d56f-433f-9aac-dcd98e0f9add" d="M96.35051,21.49328a1.85475,1.85475,0,0,1-.55238.0788h.35793a.45656.45656,0,0,0,.42829-.35063l.07091-.35007c-.03911.19248-.19754.57857-.30475.6219Z" transform="translate(-1.55298 -0.93465)"/><path class="7580582d-d56f-433f-9aac-dcd98e0f9add" d="M97.18038,18.2752l.52622-2.60075-.00093.00507-.52535,2.59568Z" transform="translate(-1.55298 -0.93465)"/><path class="7580582d-d56f-433f-9aac-dcd98e0f9add" d="M108.81021,8.34086l.16237.67086a.27142.27142,0,0,1-.2755.34837" transform="translate(-1.55298 -0.93465)"/><path class="7580582d-d56f-433f-9aac-dcd98e0f9add" d="M96.65479,20.87157l.52481-2.59614Z" transform="translate(-1.55298 -0.93465)"/><path class="7580582d-d56f-433f-9aac-dcd98e0f9add" d="M108.64885,7.65367l.16067.68719Z" transform="translate(-1.55298 -0.93465)"/><path class="7580582d-d56f-433f-9aac-dcd98e0f9add" d="M97.706,15.67468c.03911-.19248.10384-.50427.14465-.69505l.56194-2.63279-.63651,2.98227-.07007.34555Z" transform="translate(-1.55298 -0.93465)"/><path class="7580582d-d56f-433f-9aac-dcd98e0f9add" d="M95.2002,7.18986c-.03912.18573-.08921.4204-.12241.57575L93.679,14.31935l1.47367-6.90321.04756-.22624Z" transform="translate(-1.55298 -0.93465)"/><path class="7580582d-d56f-433f-9aac-dcd98e0f9add" d="M108.97158,9.01168l-.16237-.67087-.16067-.68718-.08133-.34782c-.31825-1.23647-1.25252-1.9501-3.281-1.9501L102.128,5.35235,99.21954,5.349H95.94687a.46124.46124,0,0,0-.43138.3495h-.00023l-.14464.68379-.17081.80761-.04756.22625-1.47367,6.90321-1.39884,6.55327a1.52413,1.52413,0,0,0-.03179.52453c.02363.09624.40072.175.5974.175h2.95252a1.85458,1.85458,0,0,0,.55238-.07879c.10722-.04333.26564-.42942.30475-.6219l.52481-2.59614.52536-2.59568.00092-.00507.07007-.34555.63651-2.98226.56225-2.634a.46348.46348,0,0,1,.43137-.34836l9.29-.0045a.27138.27138,0,0,0,.2755-.34836Z" transform="translate(-1.55298 -0.93465)"/><path class="7580582d-d56f-433f-9aac-dcd98e0f9add" d="M120.93105,2.94581c-.1967.00139-.51832.00261-.715.00261h-2.9735a.76064.76064,0,0,0-.55943.29518l-6.57518,9.63282c-.11115.16265-.23778.13845-.2814-.0529l-.48372-2.1223a.47042.47042,0,0,0-.437-.34837h-4.22708a.25554.25554,0,0,0-.25945.34332l1.89411,6.63534a1.56458,1.56458,0,0,1,.00929.69l-.82561,3.2114a.26451.26451,0,0,0,.26874.34668h4.17774a.48608.48608,0,0,0,.446-.34668l.82591-3.2114a2.13611,2.13611,0,0,1,.30392-.632L122.1939,3.22184c.11847-.157.05431-.28478-.14211-.28335l-1.12051.0073Z" transform="translate(-1.55298 -0.93465)"/><path class="7580582d-d56f-433f-9aac-dcd98e0f9add" d="M87.34862,11.256l-.00023-.00395a.43065.43065,0,0,1-.41789.36976H81.57133a.23054.23054,0,0,1-.25215-.2814l.00507-.01238-.00336.00162.00289-.018.02449-.09117a3.3581,3.3581,0,0,1,3.51385-2.254c2.20588,0,2.63648,1.07776,2.48664,2.28945ZM85.77644,5.07021c-6.879,0-8.509,4.17545-9.4235,8.38962-.91455,4.29531-.83576,8.31146,6.28241,8.31146H82.888c.0225-.00046.0456-.00046.0681-.00046h.45924c.02758-.00046.05516-.00046.0833-.00046.07091,0,.14267-.00046.21442-.00046h.05037c.28168-.00046.56759-.00184.854-.00288h.01436c1.88-.00731,3.76534-.02137,4.52907-.02757a.46346.46346,0,0,0,.4266-.35118l.28815-1.40868.056-.27409.34387-1.68a.28067.28067,0,0,0-.2859-.35007H83.59015c-2.5452,0-3.30108-.67649-3.02261-2.66483H90.79742l-.00092.00115.007-.00115a.422.422,0,0,0,.37258-.26395.37535.37535,0,0,0,.02475-.08948l-.00116.00115c1.519-5.72939,1.08339-9.58787-5.42372-9.58787Z" transform="translate(-1.55298 -0.93465)"/><path class="7580582d-d56f-433f-9aac-dcd98e0f9add" d="M53.26366,11.23414l-.09681.34274-.00023.00115-.77243,2.73745-.77216,2.737a.50091.50091,0,0,1-.45475.34387H47.07874c-3.10121,0-3.8564-2.42555-3.10121-6.00325.755-3.6593,2.23544-5.93409,5.28771-6.16438,4.17107-.31462,5.00556,2.61919,3.99841,6.00555Zm2.80383,5.95161a45.84831,45.84831,0,0,0,2.36539-7.38384c.59705-3.619-1.21485-8.86726-8.2135-8.86726-6.95876,0-9.98044,5.01085-11.13351,10.45809-1.15289,5.48665.35765,10.29856,7.27688,10.25914l5.45853-.02026L56.923,21.613a.49339.49339,0,0,0,.44742-.34726L58.259,17.876a.26477.26477,0,0,0-.267-.34781l-.8518-.00507-.8515-.00508a.2184.2184,0,0,1-.24255-.25269.32881.32881,0,0,1,.02083-.07992Z" transform="translate(-1.55298 -0.93465)"/><path class="7580582d-d56f-433f-9aac-dcd98e0f9add" d="M90.516,14.05319a.2347.2347,0,1,1-.2347-.23412A.23473.23473,0,0,1,90.516,14.05319Z" transform="translate(-1.55298 -0.93465)"/><path class="7580582d-d56f-433f-9aac-dcd98e0f9add" d="M2.93116,7.96764c-1.9214,2.76165-1.68222,6.35457-.21443,9.28888.0349.07035.07147.13957.10749.2088.02308.0439.04475.08892.06866.13226.01352.02587.0287.05121.04278.076.025.04671.05065.09117.07654.13676q.06837.12072.14013.24032c.02645.04389.05263.08779.07992.13169.0529.08554.10722.17.16265.25438.02308.036.04558.072.06922.10693.07654.11425.15477.22793.23553.33993l.00674.009c.01268.018.02674.03545.03968.05346.06979.09624.14182.19135.2147.28535l.08077.103q.0975.1224.19838.24368c.025.03039.05037.06078.0757.09061.09033.10637.18234.21217.27632.31572l.00562.00563.01069.0118c.09174.10018.18572.1981.28085.296.02954.0304.05965.06079.09.09062q.1106.11144.22428.22005c.03067.02927.06106.05909.09173.08723q.15153.14268.30729.27972l.00478.00394c.01772.01577.036.03039.05347.04559.09174.07935.18516.15814.27914.23582.03827.031.0771.06135.11565.0923q.11525.092.23272.18179l.12438.09455q.12957.09539.26113.18741c.03208.02308.063.04558.09511.06753L6.795,21.903c.08329.05741.16855.11256.25355.16771.03658.02421.07288.04953.10974.07316.13057.08274.26312.16434.39706.24314.03629.02084.07316.04108.10974.06191.09849.05684.19754.11256.298.16715.05431.02926.11.05684.1649.085.07092.03714.14127.07485.2133.11087l.04925.02363c.029.01406.05825.02757.08723.04221q.16758.08021.338.15646l.07148.03208q.19542.08526.39424.16377c.03179.01293.06387.02533.096.03771.12269.04727.24708.094.372.13788l.04671.0163c.137.04784.2755.0923.41478.13564.0332.00956.06669.02026.10018.02983a4.03432,4.03432,0,0,0,.42828.121c9.29234,1.69459,11.99152-5.58417,11.99152-5.58417-2.26695,2.95345-6.29094,3.73239-10.10354,2.86516-.14436-.03264-.28449-.07766-.42548-.11931l-.10609-.03208q-.2064-.06331-.4097-.13338l-.05628-.02027c-.12157-.04277-.24173-.08779-.36132-.13394l-.10131-.04q-.1967-.07767-.39-.16208c-.02645-.01128-.05177-.02309-.07794-.03434-.1106-.05008-.22006-.10073-.329-.15308-.03151-.01519-.063-.02983-.09511-.04558-.08553-.04173-.17013-.08622-.2545-.12956-.05648-.02973-.11388-.05786-.16989-.089-.103-.05509-.20425-.11249-.305-.171-.03412-.01914-.0687-.03758-.103-.0574-.13393-.07884-.26625-.16045-.39719-.2432-.03619-.02306-.07146-.04772-.10719-.07147-.095-.06131-.18949-.12379-.28262-.18787-.03089-.021-.06063-.04334-.091-.06409q-.13486-.09543-.26718-.19317c-.04011-.02974-.07953-.05971-.11849-.08945-.08091-.062-.16136-.12448-.24112-.18856-.036-.0287-.072-.05741-.1075-.08611-.1013-.0833-.20148-.16715-.30025-.25326l-.03293-.02757c-.10693-.094-.21189-.19023-.31572-.287-.03011-.02869-.05938-.05684-.08892-.08554-.07682-.07317-.15252-.14689-.22681-.22231-.02983-.02983-.05966-.05909-.08892-.08892q-.14182-.1452-.27831-.29433l-.01378-.01464c-.09624-.10524-.19022-.21274-.28225-.32135l-.074-.08779c-.06866-.08273-.13675-.16659-.20317-.251-.02489-.03043-.04979-.06155-.07445-.09291-.08-.10373-.15814-.20723-.23468-.31235a9.79483,9.79483,0,0,1-1.18534-10.14" transform="translate(-1.55298 -0.93465)"/><path class="7580582d-d56f-433f-9aac-dcd98e0f9add" d="M8.89556,5.641a6.68034,6.68034,0,0,0-.23018,6.79118,8.84655,8.84655,0,0,0,.61457,1.026,4.88,4.88,0,0,0,.71531.89316c.10018.11031.20486.2178.31178.32361.027.02757.05459.054.08217.081.10384.10074.20936.19979.31854.296l.01293.01127.00309.00288c.12072.10581.24536.20768.372.30784.02815.02137.056.0439.08442.06585.12691.09736.25637.193.38917.28421l.01127.00844c.05853.04052.11819.07823.17756.11706.02841.01858.05544.03827.08414.05572q.14224.09117.28843.17671l.0408.02363c.08414.0484.1694.09624.255.14239.02983.01687.06022.03152.09061.04727.05909.031.11819.06248.1784.0923l.027.01241c.12241.06021.24594.11818.372.17334.027.01182.05487.0225.08216.03376.10075.04278.20261.08442.305.12382.04334.01632.08723.03208.13057.04784.09286.03433.186.06585.28.09736.04249.01351.08414.02758.12663.04052a3.05523,3.05523,0,0,0,.40494.11707c7.17453,1.18861,8.83083-4.3352,8.83083-4.3352A6.81556,6.81556,0,0,1,15.78465,15.074c-.137-.036-.27211-.07542-.40634-.11763-.04109-.01238-.08133-.02588-.12213-.03939q-.1431-.04644-.28421-.09793c-.04305-.01577-.08611-.03152-.12832-.04784q-.15449-.05908-.30588-.12325c-.02758-.01183-.05544-.0225-.08245-.03489q-.18995-.08274-.37426-.17391c-.06331-.031-.1255-.06359-.18769-.09567l-.10834-.05572c-.07992-.04334-.15927-.08836-.23751-.134-.01855-.01069-.038-.02083-.05684-.03208q-.14562-.08526-.2876-.17559c-.02926-.01858-.0574-.03883-.08667-.058-.06247-.04052-.12494-.0816-.18628-.12325-.13226-.09118-.26086-.18685-.38776-.28366-.02927-.02308-.05853-.04558-.08724-.06866A8.651,8.651,0,0,1,9.525,9.23672a6.47964,6.47964,0,0,1,.50577-5.1985" transform="translate(-1.55298 -0.93465)"/><path class="7580582d-d56f-433f-9aac-dcd98e0f9add" d="M13.912,3.90262a4.18108,4.18108,0,0,0-.33121,4.03413,5.68055,5.68055,0,0,0,3.26119,3.0475c.0591.022.11819.04165.17813.06191.02616.00788.05206.0169.07851.02475a2.24454,2.24454,0,0,0,.25551.07373C21.3156,11.91,22.39006,9.1118,22.67614,8.7c-.94127,1.35522-2.52306,1.68051-4.46383,1.20946-.15329-.03734-.32181-.09267-.46957-.145a5.6808,5.6808,0,0,1-1.53528-.82826c-1.73675-1.31767-2.81559-3.83151-1.68235-5.87877" transform="translate(-1.55298 -0.93465)"/><path class="7580582d-d56f-433f-9aac-dcd98e0f9add" d="M58.52878,27.38243l-1.14192,2.60075H56.12619l.10327-2.36308-.92806,2.36308H54.0807l-.03208-2.60075.13479-.64214h.86446l-.16659,2.5687.95957-2.5687h1.20524L56.95886,29.341l.95169-2.60074h.753l-.13479.64214Z" transform="translate(-1.55298 -0.93465)"/><path class="7580582d-d56f-433f-9aac-dcd98e0f9add" d="M60.51818,28.15237c.11115-.50766.07936-.60277-.18235-.60277h-.3965l-.25383,1.18975-.38861,1.24436h-.73726l.60247-2.82251.08751-.41255h.674l.08723.19023a1.76928,1.76928,0,0,1,.76879-.22962c.809,0,.74569.61008.571,1.443h-.83236Z" transform="translate(-1.55298 -0.93465)"/><path class="7580582d-d56f-433f-9aac-dcd98e0f9add" d="M62.9133,26.33586c-.32473,0-.531-.09511-.45191-.49134a.57858.57858,0,0,1,.65791-.49188c.3177,0,.53156.09511.44433.49188a.57289.57289,0,0,1-.65031.49134Zm-.34864,3.64755h-.73l.14295-1.26854.25383-1.17343L61.72414,27.43l.14267-.68942h1.3873l-.68942,3.24275Z" transform="translate(-1.55298 -0.93465)"/><path class="7580582d-d56f-433f-9aac-dcd98e0f9add" d="M65.728,27.42853l-.91174.11144-.262,1.237c-.07148.34106-.07148.43617.23018.43617h.61036l-.12691.65a4.26827,4.26827,0,0,1-.793.16659c-.93564,0-.92778-.51552-.76091-1.28486l.25383-1.21283-.50766-.11087.15055-.69h.53156l.30139-.81717h.72151l-.17475.81717h.88809l-.15055.69731Z" transform="translate(-1.55298 -0.93465)"/><path class="7580582d-d56f-433f-9aac-dcd98e0f9add" d="M67.62286,27.47a.68855.68855,0,0,0-.73726.61851l1.221-.103c.05543-.26957,0-.51552-.48373-.51552Zm-.856,1.20493c-.056.39678.09483.53129.60219.53129h1.27643l-.12663.60277a6.17943,6.17943,0,0,1-1.34.21386c-1.41937,0-1.43542-.8003-1.2528-1.65687.18234-.84083.50736-1.67265,1.87889-1.67265,1.32456,0,1.38814.80031,1.06285,1.98161H66.76684Z" transform="translate(-1.55298 -0.93465)"/><path class="7580582d-d56f-433f-9aac-dcd98e0f9add" d="M71.77687,29.98272h-.7291l.14267-1.26854.51551-2.41057-.50793-.11875.15083-.69h1.38786l-.95985,4.4878Z" transform="translate(-1.55298 -0.93465)"/><path class="7580582d-d56f-433f-9aac-dcd98e0f9add" d="M74.41173,27.47a.6891.6891,0,0,0-.73783.61851l1.22126-.103c.05515-.26957,0-.51552-.48345-.51552ZM73.55516,28.675c-.05543.39678.0954.53129.60247.53129h1.2767l-.12691.60277a6.18332,6.18332,0,0,1-1.3403.21386c-1.41937,0-1.43486-.8003-1.25252-1.65687.18262-.84083.50763-1.67265,1.87918-1.67265,1.32426,0,1.38758.80031,1.06285,1.98161H73.55516Z" transform="translate(-1.55298 -0.93465)"/><path class="7580582d-d56f-433f-9aac-dcd98e0f9add" d="M79.00143,27.50921s-.92776.00791-1.18132.00791c-.53944,0-.59488.166-.63428.34048l-.03208.15871,1.71287.12719a4.70814,4.70814,0,0,1-.06359.856,1.47886,1.47886,0,0,1-1.59356,1.03836,7.08468,7.08468,0,0,1-1.24519-.18178l.13479-.6264h1.18159c.5234,0,.59488-.14295.627-.28534l.03939-.206-1.68109-.1272a2.70988,2.70988,0,0,1,.02363-.84025,1.479,1.479,0,0,1,1.6096-1.06256,7.38247,7.38247,0,0,1,1.24491.1739l-.14267.62695Z" transform="translate(-1.55298 -0.93465)"/><path class="7580582d-d56f-433f-9aac-dcd98e0f9add" d="M82.18954,27.50921s-.92748.00791-1.18131.00791c-.53917,0-.59458.166-.63428.34048l-.03208.15871,1.71315.12719a4.70753,4.70753,0,0,1-.0636.856,1.479,1.479,0,0,1-1.59385,1.03836,7.08948,7.08948,0,0,1-1.24491-.18178l.13479-.6264H80.469c.52312,0,.59458-.14295.62668-.28534l.03939-.206-1.68108-.1272a2.70952,2.70952,0,0,1,.02363-.84025,1.47915,1.47915,0,0,1,1.60987-1.06256,7.3824,7.3824,0,0,1,1.24464.1739l-.14267.62695Z" transform="translate(-1.55298 -0.93465)"/><path class="7580582d-d56f-433f-9aac-dcd98e0f9add" d="M83.1877,30.49908h-.634l.02363-.47612c-.23018-.01519-.34894-.18178-.2935-.45979a.5747.5747,0,0,1,.65819-.49132c.31713,0,.5307.09511.444.49132l-.19839.93594Z" transform="translate(-1.55298 -0.93465)"/><path class="7580582d-d56f-433f-9aac-dcd98e0f9add" d="M87.42931,27.54149c-.47557,0-.64187.28534-.753.80874s-.07935.83237.39623.83237h.65818l.365-1.64111Zm1.08647,2.02156-.08751.4204-.66552-.00786-.09539-.206a3.21916,3.21916,0,0,1-.98292.25326c-1.01529,0-1.06285-.83237-.88051-1.67265.18235-.85657.57884-1.66531,1.586-1.66531a3.0641,3.0641,0,0,1,.8563.18235l.40438-1.37154h.72968L88.5158,29.563Z" transform="translate(-1.55298 -0.93465)"/><path class="7580582d-d56f-433f-9aac-dcd98e0f9add" d="M91.14071,27.50921c-.61823,0-.8169.34837-.92778.856-.103.51552-.05515.86446.55491.86446.63456,0,.82506-.34106.93565-.86446.11143-.49188.07935-.856-.5628-.856Zm-.53886,2.52145c-1.30852,0-1.41179-.81662-1.23731-1.66531a1.83641,1.83641,0,0,1,1.95093-1.65688c1.3,0,1.41937.80874,1.23648,1.65688A1.83065,1.83065,0,0,1,90.60185,30.03066Z" transform="translate(-1.55298 -0.93465)"/><path class="7580582d-d56f-433f-9aac-dcd98e0f9add" d="M98.02409,29.98272l.14295-1.2528.0712-.3568c.10327-.47557.16658-.82451-.33318-.82451h-.38834a3.07716,3.07716,0,0,1-.09511.81663l-.34078,1.61748h-.73755l.14266-1.2528.0712-.3568c.10327-.47557.1663-.82451-.33262-.82451h-.31743l-.52341,2.43408H94.535l.69-3.24275h.66607l.103.19811A2.16315,2.16315,0,0,1,96.811,26.7a.58879.58879,0,0,1,.55519.28534A2.41535,2.41535,0,0,1,98.30208,26.7c1.01416,0,.98292.8245.8003,1.66531l-.34078,1.61748h-.73755Z" transform="translate(-1.55298 -0.93465)"/><path class="7580582d-d56f-433f-9aac-dcd98e0f9add" d="M101.39432,27.50921c-.61879,0-.8169.34837-.92778.856-.103.51552-.05515.86446.55491.86446.63428,0,.82506-.34106.93594-.86446C102.06826,27.87335,102.03647,27.50921,101.39432,27.50921Zm-.53917,2.52145c-1.30878,0-1.41148-.81662-1.237-1.66531a1.83594,1.83594,0,0,1,1.95066-1.65688c1.30063,0,1.41937.80874,1.23675,1.65688A1.83074,1.83074,0,0,1,100.85515,30.03066Z" transform="translate(-1.55298 -0.93465)"/><path class="7580582d-d56f-433f-9aac-dcd98e0f9add" d="M105.00891,28.15237c.11087-.50766.07935-.60277-.18207-.60277h-.39677l-.25383,1.18975-.38861,1.24436h-.73726l.60247-2.82251.08752-.41255h.674l.087.19023a1.77011,1.77011,0,0,1,.76961-.22962c.80847,0,.74487.61008.57041,1.443h-.83237Z" transform="translate(-1.55298 -0.93465)"/><path class="7580582d-d56f-433f-9aac-dcd98e0f9add" d="M107.84893,27.47a.68844.68844,0,0,0-.737.61851l1.22042-.103c.056-.26957,0-.51552-.48345-.51552Zm-.85629,1.20493c-.05516.39678.09511.53129.60247.53129h1.27669l-.12662.60277a6.1831,6.1831,0,0,1-1.34.21386c-1.41936,0-1.43513-.8003-1.25335-1.65687.18263-.84083.50794-1.67265,1.87947-1.67265,1.324,0,1.38786.80031,1.06257,1.98161h-2.1012Z" transform="translate(-1.55298 -0.93465)"/><path class="7580582d-d56f-433f-9aac-dcd98e0f9add" d="M109.80607,30.03112c-.33318,0-.53886-.09511-.45164-.48345.07879-.39732.32474-.49188.65819-.49188.309,0,.52284.09455.44405.49188A.58174.58174,0,0,1,109.80607,30.03112Z" transform="translate(-1.55298 -0.93465)"/></svg>