<svg id="f38bbf5d-b3e6-47d3-9543-17b445430c21" data-name="Layer 1" xmlns="http://www.w3.org/2000/svg" width="104.28655" height="36.66757" viewBox="0 0 104.28655 36.66757"><defs><style>.\35 466b168-8b0f-4bca-a9e4-ef01408a71be{fill:#fff;}</style></defs><title>ror</title><path class="5466b168-8b0f-4bca-a9e4-ef01408a71be" d="M91.681,32.20249v4.76784h8.61371a4.926,4.926,0,0,0,4.89955-4.89955V30.22687a4.865,4.865,0,0,0-4.89955-4.89955H96.001v-2.2127h8.50834V18.32045h-8.1659A5.01321,5.01321,0,0,0,91.41757,23.299v1.65953a4.9241,4.9241,0,0,0,4.92589,4.89954c5.92686.02634-1.42245,0,4.05661,0v2.31807M45.53043,31.04346s4.60979-.39513,4.60979-6.34834a6.29288,6.29288,0,0,0-5.58443-6.50638H34.49329V36.97033h5.05759V32.43957l4.37271,4.53076h7.481Zm-1.94928-3.84588H39.55088V22.90389H43.6075a2.11667,2.11667,0,0,1,1.13268,2.13367A2.17371,2.17371,0,0,1,43.58115,27.19758Zm19.045-8.87713H57.48954A4.934,4.934,0,0,0,52.59,23.22V36.97033h5.13662V33.67762h4.82052v3.29271H67.5257V23.22A4.86018,4.86018,0,0,0,62.62616,18.32045Zm-.079,10.03616H57.70027v-4.5571s0-1.02733,1.60684-1.02733H61.072c1.42245,0,1.44879,1.02733,1.44879,1.02733v4.5571Z" transform="translate(-0.90769 -0.30276)"/><rect class="5466b168-8b0f-4bca-a9e4-ef01408a71be" x="68.96241" y="18.01768" width="5.34735" height="18.64988"/><polygon class="5466b168-8b0f-4bca-a9e4-ef01408a71be" points="81.817 31.847 81.817 18.018 76.496 18.018 76.496 31.847 76.496 36.668 81.817 36.668 89.008 36.668 89.008 31.847 81.817 31.847"/><path class="5466b168-8b0f-4bca-a9e4-ef01408a71be" d="M2.75161,36.97033h20.8099s-3.97759-18.14939,9.19323-25.49871c2.87124-1.39611,12.01179-6.61175,26.97384,4.45174.47415-.39513.922-.71123.922-.71123S46.95288,1.54082,31.70107,3.06864c-7.66541.68488-17.09572,7.66541-22.62747,16.885A45.56434,45.56434,0,0,0,2.75161,36.97033Z" transform="translate(-0.90769 -0.30276)"/><path class="5466b168-8b0f-4bca-a9e4-ef01408a71be" d="M2.75161,36.97033h20.8099s-3.97759-18.14939,9.19323-25.49871c2.87124-1.39611,12.01179-6.61175,26.97384,4.45174.47415-.39513.922-.71123.922-.71123S46.95288,1.54082,31.70107,3.06864c-7.66541.68488-17.09572,7.66541-22.62747,16.885A45.56434,45.56434,0,0,0,2.75161,36.97033Z" transform="translate(-0.90769 -0.30276)"/><path class="5466b168-8b0f-4bca-a9e4-ef01408a71be" d="M2.75161,36.97033h20.8099s-3.97759-18.14939,9.19323-25.49871c2.87124-1.39611,12.01179-6.61175,26.97384,4.45174.47415-.39513.922-.71123.922-.71123S46.95288,1.54082,31.70107,3.06864c-7.69176.68488-17.12206,7.66541-22.65381,16.885A45.19254,45.19254,0,0,0,2.75161,36.97033ZM46.11,4.54377l.10537-1.76489a12.88178,12.88178,0,0,0-2.55514-.922l-.10537,1.73855C44.42408,3.88523,45.267,4.20133,46.11,4.54377Z" transform="translate(-0.90769 -0.30276)"/><path class="5466b168-8b0f-4bca-a9e4-ef01408a71be" d="M43.6075,10.1282l-.10537,1.65952a14.68923,14.68923,0,0,1,2.60782.3161l.10537-1.63318A18.65192,18.65192,0,0,0,43.6075,10.1282ZM33.86109,1.9096h.26341L33.59767.30276a21.0196,21.0196,0,0,0-2.5288.15805L31.56936,2.015A22.23709,22.23709,0,0,1,33.86109,1.9096Zm1.26439,9.69373.60586,1.81757a16.66682,16.66682,0,0,1,2.29172-.922l-.57951-1.73855A19.11172,19.11172,0,0,0,35.12548,11.60333ZM23.16638,4.67548,21.981,2.8579c-.65854.34244-1.34343.71123-2.05465,1.13269l1.21172,1.84392C21.823,5.413,22.4815,5.01792,23.16638,4.67548Zm5.4,11.85373,1.2644,1.8966A14.626,14.626,0,0,1,31.385,16.55556L30.1996,14.76432A14.57363,14.57363,0,0,0,28.56642,16.52921Zm-3.81954,8.482,2.13367,1.68587a21.0366,21.0366,0,0,1,.55318-3.082l-1.8966-1.50148A25.04486,25.04486,0,0,0,24.74688,25.01122ZM13.20924,12.49894,11.339,10.86576c-.68488.65854-1.34342,1.31708-1.94928,1.97562L11.418,14.57993A26.67673,26.67673,0,0,1,13.20924,12.49894ZM5.25406,24.27366,2.22478,23.16731C1.72428,24.3,1.17111,25.61708.90769,26.3283L3.937,27.43465C4.27942,26.539,4.8326,25.2483,5.25406,24.27366ZM24.35175,31.702a26.76334,26.76334,0,0,0,.3161,3.319l3.161,1.1327a34.81816,34.81816,0,0,1-.6322-3.42442Z" transform="translate(-0.90769 -0.30276)"/></svg>