<svg id="e475118f-da2b-4c9f-93e4-e6a38bf68b58" data-name="Layer 1" xmlns="http://www.w3.org/2000/svg" width="595.42285" height="237.76269" viewBox="0 0 595.42285 237.76269"><defs><style>.bb03c1c7-895f-4a0b-9899-ca3c64f8bec0{fill:#010101;}.e00be228-c2d1-4c49-96c9-3e25d328f52c{fill:#969696;}.\35 1ef6aaa-5534-43a8-b758-9e73575e6702,.\38 d5f9c32-939f-4ce7-8142-b99e6dc1f0f6{fill:#fff;}.\35 1ef6aaa-5534-43a8-b758-9e73575e6702,.fe4b5eed-e4ad-43e0-90d3-c4e8ae95c8f9{stroke:#010101;stroke-miterlimit:10;}.fe4b5eed-e4ad-43e0-90d3-c4e8ae95c8f9{fill:none;}</style></defs><title>sign-chart-1</title><path class="bb03c1c7-895f-4a0b-9899-ca3c64f8bec0" d="M477.95508,21.82459a18.38016,18.38016,0,0,0-3.82324.23145,15.30674,15.30674,0,0,0-13.09375,13.38379h.17382a11.22071,11.22071,0,0,1,9.09571-4.34571c6.66308,0,11.35644,4.80957,11.35644,12.167,0,6.89454-4.69336,13.26758-12.51465,13.26758-8.05371,0-13.32617-6.25683-13.32617-16.04883,0-7.416,2.665-13.26757,6.373-16.97558a20.504,20.504,0,0,1,12.05176-5.56153,24.51378,24.51378,0,0,1,3.707-.29Zm-1.44824,21.72656c0-5.38867-3.07032-8.63281-7.76368-8.63281a8.39089,8.39089,0,0,0-7.2998,4.63477,4.34261,4.34261,0,0,0-.5791,2.25976c.11523,6.19922,2.9541,10.77637,8.28515,10.77637C473.55273,52.58924,476.50684,48.93885,476.50684,43.55115Z" transform="translate(-2.53027 -5.98085)"/><path class="bb03c1c7-895f-4a0b-9899-ca3c64f8bec0" d="M497.24414,22.98279h-.11523L490.582,26.517l-.98535-3.88183,8.22754-4.40332H502.169V55.892h-4.92481Z" transform="translate(-2.53027 -5.98085)"/><path class="bb03c1c7-895f-4a0b-9899-ca3c64f8bec0" d="M532.87109,28.83533c0,7.93653-4.17187,11.877-9.03808,11.877-4.69336,0-8.749-3.76661-8.80664-11.35645,0-7.53125,4.11328-11.76074,9.0957-11.76074C529.39453,17.5951,532.87109,21.65076,532.87109,28.83533ZM519.082,29.182c-.11621,4.80957,1.67969,8.459,4.86621,8.459,3.36035,0,4.86719-3.5918,4.86719-8.57422,0-4.57715-1.333-8.40137-4.86719-8.40137C520.76172,20.66541,519.082,24.432,519.082,29.182Zm4.40332,27.34668L545.61719,17.5951h3.24414L526.72949,56.52869Zm33.89356-12.1084c0,7.9375-4.17188,11.877-8.98047,11.877-4.69336,0-8.749-3.76563-8.80664-11.29785,0-7.58985,4.11328-11.81934,9.0957-11.81934C553.96,33.18006,557.37891,37.23572,557.37891,44.42029Zm-13.78907.34766c-.05859,4.80859,1.7959,8.459,4.92383,8.459,3.36133,0,4.86719-3.59277,4.86719-8.57519,0-4.57715-1.332-8.40039-4.86719-8.40039C545.32715,36.25135,543.58984,40.017,543.58984,44.768Z" transform="translate(-2.53027 -5.98085)"/><path class="bb03c1c7-895f-4a0b-9899-ca3c64f8bec0" d="M457.8252,73.29236a1.63483,1.63483,0,0,1-3.26954,0,1.60788,1.60788,0,0,1,1.64942-1.64941A1.56667,1.56667,0,0,1,457.8252,73.29236ZM454.88477,91.892V77.37244h2.64062V91.892Z" transform="translate(-2.53027 -5.98085)"/><path class="bb03c1c7-895f-4a0b-9899-ca3c64f8bec0" d="M461.9043,81.30213c0-1.5-.0293-2.72949-.11914-3.92969H464.125l.14941,2.39942h.06055a5.33821,5.33821,0,0,1,4.79981-2.7295c2.00976,0,5.12988,1.2002,5.12988,6.17969V91.892H471.624V83.52186c0-2.33985-.87011-4.29-3.35937-4.29a3.75127,3.75127,0,0,0-3.54,2.70019,3.79562,3.79562,0,0,0-.17969,1.23047V91.892H461.9043Z" transform="translate(-2.53027 -5.98085)"/><path class="bb03c1c7-895f-4a0b-9899-ca3c64f8bec0" d="M488.9043,91.35193a9.7292,9.7292,0,0,1-4.16895.83985c-4.37988,0-7.23047-2.96973-7.23047-7.41016a7.37722,7.37722,0,0,1,7.79981-7.709,8.81681,8.81681,0,0,1,3.66015.75l-.59961,2.04a6.12121,6.12121,0,0,0-3.06054-.69043c-3.33008,0-5.12989,2.46-5.12989,5.49023,0,3.35938,2.16016,5.42969,5.04,5.42969a7.49879,7.49879,0,0,0,3.24024-.7207Z" transform="translate(-2.53027 -5.98085)"/><path class="bb03c1c7-895f-4a0b-9899-ca3c64f8bec0" d="M491.99414,81.90174c0-1.71-.0293-3.17969-.11914-4.5293h2.30957l.08984,2.84961h.12012a4.35592,4.35592,0,0,1,4.01953-3.17969,2.87631,2.87631,0,0,1,.75.08985v2.49023a3.93147,3.93147,0,0,0-.89941-.08984c-1.86035,0-3.18067,1.40918-3.54,3.38965a7.36641,7.36641,0,0,0-.12012,1.22949V91.892h-2.61035Z" transform="translate(-2.53027 -5.98085)"/><path class="bb03c1c7-895f-4a0b-9899-ca3c64f8bec0" d="M502.97461,85.1117c.05957,3.57031,2.33984,5.04,4.97949,5.04a9.54409,9.54409,0,0,0,4.01953-.75l.4502,1.88965a11.75774,11.75774,0,0,1-4.83008.90039c-4.46973,0-7.13965-2.93945-7.13965-7.31934s2.58008-7.83008,6.80957-7.83008c4.74024,0,6,4.16993,6,6.83985a9.8919,9.8919,0,0,1-.08984,1.22949Zm7.73926-1.88965c.03027-1.67969-.68946-4.29-3.66016-4.29-2.66992,0-3.83984,2.46-4.0498,4.29Z" transform="translate(-2.53027 -5.98085)"/><path class="bb03c1c7-895f-4a0b-9899-ca3c64f8bec0" d="M524.57422,91.892l-.21-1.83007h-.08985a5.40846,5.40846,0,0,1-4.43945,2.16015,4.13706,4.13706,0,0,1-4.44043-4.16992c0-3.50977,3.12012-5.42969,8.72949-5.40039v-.29981c0-1.20019-.33007-3.35937-3.2998-3.35937a7.23033,7.23033,0,0,0-3.7793,1.08008l-.60058-1.74024a9.01117,9.01117,0,0,1,4.7705-1.29c4.43946,0,5.51954,3.03028,5.51954,5.93946V88.4115a20.37708,20.37708,0,0,0,.24023,3.48047Zm-.38965-7.41015c-2.87988-.05957-6.15039.45019-6.15039,3.27051a2.33621,2.33621,0,0,0,2.49023,2.51953,3.61294,3.61294,0,0,0,3.50977-2.42969,2.7652,2.7652,0,0,0,.15039-.83984Z" transform="translate(-2.53027 -5.98085)"/><path class="bb03c1c7-895f-4a0b-9899-ca3c64f8bec0" d="M530.63477,89.19178a6.92212,6.92212,0,0,0,3.47949,1.0498c1.91992,0,2.82031-.96,2.82031-2.16015,0-1.25977-.75-1.94922-2.70019-2.66895-2.60938-.93066-3.83985-2.37012-3.83985-4.11035,0-2.33984,1.88965-4.25977,5.00977-4.25977a7.2459,7.2459,0,0,1,3.57031.90039l-.66016,1.91993a5.648,5.648,0,0,0-2.96972-.84082c-1.56055,0-2.43067.90039-2.43067,1.98047,0,1.20019.87012,1.74023,2.76074,2.46,2.51954.96,3.80958,2.21972,3.80958,4.37988,0,2.5498-1.98047,4.34961-5.42969,4.34961a8.27352,8.27352,0,0,1-4.08008-.99024Z" transform="translate(-2.53027 -5.98085)"/><path class="bb03c1c7-895f-4a0b-9899-ca3c64f8bec0" d="M544.34473,85.1117c.05957,3.57031,2.33984,5.04,4.97949,5.04a9.54413,9.54413,0,0,0,4.01953-.75l.4502,1.88965a11.75777,11.75777,0,0,1-4.83008.90039c-4.46973,0-7.13965-2.93945-7.13965-7.31934s2.58008-7.83008,6.80957-7.83008c4.74023,0,6,4.16993,6,6.83985a9.8919,9.8919,0,0,1-.08984,1.22949Zm7.73925-1.88965c.03028-1.67969-.68945-4.29-3.66015-4.29-2.66992,0-3.83985,2.46-4.04981,4.29Z" transform="translate(-2.53027 -5.98085)"/><path class="bb03c1c7-895f-4a0b-9899-ca3c64f8bec0" d="M567.2041,73.29236a1.63483,1.63483,0,0,1-3.26953,0A1.60787,1.60787,0,0,1,565.584,71.643,1.56666,1.56666,0,0,1,567.2041,73.29236ZM564.26367,91.892V77.37244h2.64063V91.892Z" transform="translate(-2.53027 -5.98085)"/><path class="bb03c1c7-895f-4a0b-9899-ca3c64f8bec0" d="M571.2832,81.30213c0-1.5-.02929-2.72949-.11914-3.92969h2.33985l.14941,2.39942h.06055a5.33818,5.33818,0,0,1,4.7998-2.7295c2.00977,0,5.12988,1.2002,5.12988,6.17969V91.892h-2.64062V83.52186c0-2.33985-.87012-4.29-3.35938-4.29a3.75127,3.75127,0,0,0-3.54,2.70019,3.79562,3.79562,0,0,0-.17969,1.23047V91.892H571.2832Z" transform="translate(-2.53027 -5.98085)"/><path class="bb03c1c7-895f-4a0b-9899-ca3c64f8bec0" d="M458.06543,109.20252v4.16992h3.7793v2.00977h-3.7793v7.83008c0,1.7998.50977,2.81933,1.97949,2.81933a5.88244,5.88244,0,0,0,1.53028-.17969l.12011,1.9795a6.46612,6.46612,0,0,1-2.33984.36035,3.65675,3.65675,0,0,1-2.85059-1.11035c-.75-.7793-1.01953-2.06934-1.01953-3.7793v-7.91992h-2.25v-2.00977h2.25V109.893Z" transform="translate(-2.53027 -5.98085)"/><path class="bb03c1c7-895f-4a0b-9899-ca3c64f8bec0" d="M464.81445,106.59217h2.64063v9.06055h.05957a4.90254,4.90254,0,0,1,1.88965-1.86036,5.43237,5.43237,0,0,1,2.70019-.75c1.9502,0,5.07031,1.2002,5.07031,6.21V127.892h-2.64062v-8.33984c0-2.33984-.87012-4.32031-3.35938-4.32031a3.79356,3.79356,0,0,0-3.54,2.64062,3.18719,3.18719,0,0,0-.17969,1.25977V127.892h-2.64063Z" transform="translate(-2.53027 -5.98085)"/><path class="bb03c1c7-895f-4a0b-9899-ca3c64f8bec0" d="M481.46484,117.90174c0-1.71-.02929-3.17969-.11914-4.5293h2.30957l.08985,2.84961h.12011a4.35593,4.35593,0,0,1,4.01954-3.17969,2.87642,2.87642,0,0,1,.75.08985v2.49023a3.93156,3.93156,0,0,0-.89942-.08984c-1.86035,0-3.18066,1.40918-3.54,3.38965a7.36753,7.36753,0,0,0-.12011,1.22949V127.892h-2.61036Z" transform="translate(-2.53027 -5.98085)"/><path class="bb03c1c7-895f-4a0b-9899-ca3c64f8bec0" d="M504.11426,120.51209c0,5.37012-3.71973,7.71-7.22949,7.71-3.92969,0-6.96-2.87988-6.96-7.46972,0-4.86036,3.18067-7.71,7.2002-7.71C501.29492,113.04236,504.11426,116.07264,504.11426,120.51209Zm-11.51953.15039c0,3.17969,1.83007,5.5791,4.41015,5.5791,2.51953,0,4.41016-2.37011,4.41016-5.63965,0-2.46-1.23047-5.58007-4.35059-5.58007C493.94531,115.02186,492.59473,117.90174,492.59473,120.66248Z" transform="translate(-2.53027 -5.98085)"/><path class="bb03c1c7-895f-4a0b-9899-ca3c64f8bec0" d="M519.59473,123.932c0,1.5.02929,2.81934.11914,3.96H517.374l-.14941-2.37011h-.06055a5.46217,5.46217,0,0,1-4.7998,2.70019c-2.2793,0-5.00977-1.26074-5.00977-6.36035v-8.48926h2.64063v8.04c0,2.75977.83984,4.61914,3.23926,4.61914a3.81682,3.81682,0,0,0,3.48046-2.39941,3.87814,3.87814,0,0,0,.23926-1.35059v-8.90918h2.64063Z" transform="translate(-2.53027 -5.98085)"/><path class="bb03c1c7-895f-4a0b-9899-ca3c64f8bec0" d="M536.48438,113.37244c-.05958,1.04981-.12012,2.21973-.12012,3.98926v8.42969c0,3.33008-.65918,5.37011-2.06934,6.62988a7.6967,7.6967,0,0,1-5.28027,1.74023,9.36733,9.36733,0,0,1-4.8291-1.20019l.65918-2.00977a8.19109,8.19109,0,0,0,4.25976,1.13965c2.7002,0,4.68067-1.40918,4.68067-5.06933v-1.62012h-.06055a5.18365,5.18365,0,0,1-4.62012,2.42969c-3.59961,0-6.17969-3.05957-6.17969-7.0791,0-4.91993,3.21-7.71,6.54-7.71a4.83251,4.83251,0,0,1,4.53028,2.51954h.05957l.12011-2.18946Zm-2.7295,5.72949a3.75779,3.75779,0,0,0-.15039-1.20019,3.80189,3.80189,0,0,0-3.68945-2.78906c-2.52051,0-4.32031,2.12988-4.32031,5.48925,0,2.84961,1.44043,5.21973,4.29,5.21973a3.859,3.859,0,0,0,3.66015-2.70019,4.60547,4.60547,0,0,0,.21-1.40918Z" transform="translate(-2.53027 -5.98085)"/><path class="bb03c1c7-895f-4a0b-9899-ca3c64f8bec0" d="M540.74414,106.59217h2.64063v9.06055h.05957a4.90252,4.90252,0,0,1,1.88964-1.86036,5.43244,5.43244,0,0,1,2.7002-.75c1.9502,0,5.07031,1.2002,5.07031,6.21V127.892h-2.64062v-8.33984c0-2.33984-.87012-4.32031-3.35938-4.32031a3.79358,3.79358,0,0,0-3.54,2.64062,3.1872,3.1872,0,0,0-.17968,1.25977V127.892h-2.64063Z" transform="translate(-2.53027 -5.98085)"/><path class="bb03c1c7-895f-4a0b-9899-ca3c64f8bec0" d="M557.39355,118.1117c0-1.85937-.05957-3.35937-.11914-4.73926h2.36914l.12012,2.49024h.06055a5.70731,5.70731,0,0,1,5.15918-2.82032c3.50976,0,6.15039,2.96973,6.15039,7.37989,0,5.21972-3.18067,7.7998-6.59961,7.7998a5.09253,5.09253,0,0,1-4.4707-2.28027h-.05957v7.88965h-2.61036Zm2.61036,3.87012a5.89245,5.89245,0,0,0,.12011,1.08008,4.07233,4.07233,0,0,0,3.96,3.08984c2.79,0,4.40918-2.28027,4.40918-5.60938,0-2.91015-1.52929-5.40039-4.31933-5.40039a4.21367,4.21367,0,0,0-3.99024,3.27051,4.287,4.287,0,0,0-.17968,1.08008Z" transform="translate(-2.53027 -5.98085)"/><path class="bb03c1c7-895f-4a0b-9899-ca3c64f8bec0" d="M586.61328,123.932c0,1.5.0293,2.81934.11914,3.96h-2.33984l-.14942-2.37011h-.06054a5.4622,5.4622,0,0,1-4.79981,2.70019c-2.27929,0-5.00976-1.26074-5.00976-6.36035v-8.48926h2.64062v8.04c0,2.75977.83985,4.61914,3.23926,4.61914a3.81684,3.81684,0,0,0,3.48047-2.39941,3.87837,3.87837,0,0,0,.23926-1.35059v-8.90918h2.64062Z" transform="translate(-2.53027 -5.98085)"/><path class="bb03c1c7-895f-4a0b-9899-ca3c64f8bec0" d="M594.17383,109.20252v4.16992h3.77929v2.00977h-3.77929v7.83008c0,1.7998.50976,2.81933,1.97949,2.81933a5.88229,5.88229,0,0,0,1.53027-.17969l.12012,1.9795a6.46612,6.46612,0,0,1-2.33984.36035,3.65673,3.65673,0,0,1-2.85059-1.11035c-.75-.7793-1.01953-2.06934-1.01953-3.7793v-7.91992h-2.25v-2.00977h2.25V109.893Z" transform="translate(-2.53027 -5.98085)"/><rect class="e00be228-c2d1-4c49-96c9-3e25d328f52c" x="223.61578" y="0.5" width="83.75559" height="198.57315"/><rect class="bb03c1c7-895f-4a0b-9899-ca3c64f8bec0" x="116.23926" y="89.57862" width="83.75559" height="109.49453"/><rect class="bb03c1c7-895f-4a0b-9899-ca3c64f8bec0" x="223.61578" y="89.57862" width="83.75559" height="109.49453"/><line class="51ef6aaa-5534-43a8-b758-9e73575e6702" x1="223.22876" y1="0.5" x2="489.63929" y2="0.5"/><path class="8d5f9c32-939f-4ce7-8142-b99e6dc1f0f6" d="M145.88916,114.0575v-.86426l1.10449-1.07275c2.65723-2.52881,3.85742-3.87354,3.87354-5.4419a1.856,1.856,0,0,0-2.06494-2.03271,3.54028,3.54028,0,0,0-2.2085.88037l-.44824-.99267a4.56364,4.56364,0,0,1,2.94482-1.05616,2.92746,2.92746,0,0,1,3.18555,3.02491c0,1.92089-1.39258,3.47363-3.58545,5.58642l-.83252.76807v.03222h4.67383v1.16846Z" transform="translate(-2.53027 -5.98085)"/><path class="8d5f9c32-939f-4ce7-8142-b99e6dc1f0f6" d="M160.03564,104.64588a5.086,5.086,0,0,0-1.05664.064,4.22889,4.22889,0,0,0-3.61718,3.69727h.04785a3.17153,3.17153,0,0,1,5.65039,2.16113,3.479,3.479,0,0,1-3.45752,3.66553c-2.22461,0-3.68115-1.729-3.68115-4.43408a6.54158,6.54158,0,0,1,1.76025-4.68994,5.66744,5.66744,0,0,1,3.32959-1.53662,6.7678,6.7678,0,0,1,1.02441-.08008Zm-.40039,6.00244a2.114,2.114,0,0,0-2.14453-2.38525,2.31818,2.31818,0,0,0-2.01709,1.28076,1.2009,1.2009,0,0,0-.15967.624c.03174,1.71289.81592,2.97705,2.28858,2.97705C158.81934,113.1449,159.63525,112.1366,159.63525,110.64832Z" transform="translate(-2.53027 -5.98085)"/><path class="8d5f9c32-939f-4ce7-8142-b99e6dc1f0f6" d="M162.417,113.225a.946.946,0,0,1,.96-1.0083,1.01025,1.01025,0,1,1-.96,1.0083Z" transform="translate(-2.53027 -5.98085)"/><path class="8d5f9c32-939f-4ce7-8142-b99e6dc1f0f6" d="M169.9707,114.0575v-2.833h-4.834v-.92871l4.6416-6.64258h1.52051V110.12h1.457v1.10449h-1.457v2.833Zm0-3.9375v-3.47363q0-.81593.04785-1.63233h-.04785c-.32031.60791-.57617,1.05616-.86474,1.53662l-2.54492,3.53711V110.12Z" transform="translate(-2.53027 -5.98085)"/><path class="8d5f9c32-939f-4ce7-8142-b99e6dc1f0f6" d="M252.48438,25.724V22.891h-4.834v-.92871l4.6416-6.64258h1.52051V21.7865h1.457V22.891h-1.457v2.833Zm0-3.9375V18.31287q0-.81591.04785-1.63232h-.04785c-.32032.60791-.57618,1.05615-.86475,1.53662l-2.54492,3.53711v.03222Z" transform="translate(-2.53027 -5.98085)"/><path class="8d5f9c32-939f-4ce7-8142-b99e6dc1f0f6" d="M256.33838,25.724v-.86425l1.10449-1.07276c2.65723-2.52881,3.85742-3.87353,3.87354-5.44189a1.856,1.856,0,0,0-2.065-2.03272,3.54027,3.54027,0,0,0-2.20849.88037l-.44824-.99267a4.56363,4.56363,0,0,1,2.94482-1.05615,2.92746,2.92746,0,0,1,3.18555,3.0249c0,1.9209-1.39258,3.47363-3.58545,5.58642l-.83252.76807v.03223H262.981V25.724Z" transform="translate(-2.53027 -5.98085)"/><path class="8d5f9c32-939f-4ce7-8142-b99e6dc1f0f6" d="M264.6582,24.89149a.946.946,0,0,1,.96-1.00831,1.01025,1.01025,0,1,1-.96,1.00831Z" transform="translate(-2.53027 -5.98085)"/><path class="8d5f9c32-939f-4ce7-8142-b99e6dc1f0f6" d="M273.79639,16.31238a5.08535,5.08535,0,0,0-1.05664.064,4.22887,4.22887,0,0,0-3.61719,3.69726h.04785a3.17154,3.17154,0,0,1,5.65039,2.16114,3.479,3.479,0,0,1-3.45752,3.66552c-2.22461,0-3.68115-1.729-3.68115-4.43408a6.54158,6.54158,0,0,1,1.76025-4.68994,5.66756,5.66756,0,0,1,3.32959-1.53662,6.76782,6.76782,0,0,1,1.02442-.08008Zm-.40039,6.00245a2.11406,2.11406,0,0,0-2.14454-2.38526,2.31816,2.31816,0,0,0-2.01708,1.28076,1.20084,1.20084,0,0,0-.15967.624c.03174,1.71289.81591,2.977,2.28857,2.977C272.58008,24.81141,273.396,23.80311,273.396,22.31483Z" transform="translate(-2.53027 -5.98085)"/><path class="8d5f9c32-939f-4ce7-8142-b99e6dc1f0f6" d="M276.06543,25.724v-.86425l1.10449-1.07276c2.65723-2.52881,3.85742-3.87353,3.87354-5.44189a1.856,1.856,0,0,0-2.06494-2.03272,3.54028,3.54028,0,0,0-2.2085.88037l-.44824-.99267a4.56363,4.56363,0,0,1,2.94482-1.05615,2.92746,2.92746,0,0,1,3.18555,3.0249c0,1.9209-1.39258,3.47363-3.58545,5.58642l-.83252.76807v.03223H282.708V25.724Z" transform="translate(-2.53027 -5.98085)"/><line class="51ef6aaa-5534-43a8-b758-9e73575e6702" x1="23.63959" y1="199.07315" x2="552.63929" y2="199.07315"/><line class="fe4b5eed-e4ad-43e0-90d3-c4e8ae95c8f9" x1="23.63959" y1="199.07315" x2="23.63959" y2="3.25634"/><path class="bb03c1c7-895f-4a0b-9899-ca3c64f8bec0" d="M12.43555,145.63123a2.41867,2.41867,0,0,0-1.38428.38281,3.23559,3.23559,0,0,0-1.002,1.20411,12.9653,12.9653,0,0,0-.89209,2.48339,11.677,11.677,0,0,1-.92285,2.49121,3.297,3.297,0,0,1-1.08106,1.21778,2.75231,2.75231,0,0,1-1.49414.38672A2.68331,2.68331,0,0,1,3.396,152.61951a5.05577,5.05577,0,0,1-.86573-3.06836,4.96574,4.96574,0,0,1,.479-2.21,3.59032,3.59032,0,0,1,1.34472-1.5166,3.63746,3.63746,0,0,1,1.95557-.53516v.47461a3.02979,3.02979,0,0,0-2.36865,1.05469,3.96178,3.96178,0,0,0-.936,2.73242,4.56089,4.56089,0,0,0,.75147,2.7295,2.28493,2.28493,0,0,0,3.73974.13574,8.55371,8.55371,0,0,0,1.24366-2.98828,9.19768,9.19768,0,0,1,1.25244-3.04883,2.861,2.861,0,0,1,2.42578-1.23047,2.81389,2.81389,0,0,1,1.70947.54492,3.4702,3.4702,0,0,1,1.147,1.54688,5.966,5.966,0,0,1,.4043,2.25,6.43553,6.43553,0,0,1-.46142,2.49609,3.54935,3.54935,0,0,1-1.314,1.665,3.59109,3.59109,0,0,1-2.0127.55762v-.47461A2.86205,2.86205,0,0,0,14.334,152.557a5.03116,5.03116,0,0,0,.87012-3.0664,4.69223,4.69223,0,0,0-.769-2.76953A2.34751,2.34751,0,0,0,12.43555,145.63123Z" transform="translate(-2.53027 -5.98085)"/><path class="bb03c1c7-895f-4a0b-9899-ca3c64f8bec0" d="M3.02246,143.02967a.48116.48116,0,0,1-.34717-.14063.45724.45724,0,0,1-.145-.34179.49431.49431,0,0,1,.49219-.49219.4589.4589,0,0,1,.34277.14453.48226.48226,0,0,1,.14063.34766.48017.48017,0,0,1-.4834.48242Zm12.48047-.7207v.47461H5.99316V142.309Z" transform="translate(-2.53027 -5.98085)"/><path class="bb03c1c7-895f-4a0b-9899-ca3c64f8bec0" d="M10.65137,139.63709a5.81944,5.81944,0,0,1-3.55518-.957,3.1063,3.1063,0,0,1-1.27881-2.62891,3.64237,3.64237,0,0,1,.4878-1.88867,3.54645,3.54645,0,0,1,1.42822-1.32812H5.99316v-.48243h9.34278a4.19953,4.19953,0,0,1,2.93994.9668,3.37962,3.37962,0,0,1,1.05908,2.627,3.74348,3.74348,0,0,1-.41406,1.75391,3.88857,3.88857,0,0,1-1.18945,1.35742l-.31739-.334a4.1819,4.1819,0,0,0,1.07373-1.21289,3.095,3.095,0,0,0,.37256-1.54688,2.94607,2.94607,0,0,0-.89062-2.28515,3.67525,3.67525,0,0,0-2.51319-.84375H14a3.31989,3.31989,0,0,1,1.24365,1.332,4.07191,4.07191,0,0,1,.43506,1.90234,3.06461,3.06461,0,0,1-1.30957,2.61133,5.97789,5.97789,0,0,1-3.59473.957Zm.18457-.48242a5.54354,5.54354,0,0,0,3.20361-.80859,2.60377,2.60377,0,0,0,1.16455-2.26758,3.63218,3.63218,0,0,0-.5581-2.04883,3.00377,3.00377,0,0,0-1.56885-1.19531H8.76172A3.14055,3.14055,0,0,0,6.292,136.06092a2.63127,2.63127,0,0,0,1.15137,2.28027A5.86931,5.86931,0,0,0,10.83594,139.15467Z" transform="translate(-2.53027 -5.98085)"/><path class="bb03c1c7-895f-4a0b-9899-ca3c64f8bec0" d="M8.208,128.84412a3.97976,3.97976,0,0,1-1.749-1.3706,3.3877,3.3877,0,0,1-.6416-2.00391,2.83115,2.83115,0,0,1,.86573-2.272,3.96532,3.96532,0,0,1,2.61474-.75147h6.20508v.47461H9.28613a3.50021,3.50021,0,0,0-2.26074.624A2.40814,2.40814,0,0,0,6.292,125.496a2.96044,2.96044,0,0,0,.87354,2.13135A4.43562,4.43562,0,0,0,9.418,128.84412h6.085v.47461H5.99316v-.47461Z" transform="translate(-2.53027 -5.98085)"/><path class="bb03c1c7-895f-4a0b-9899-ca3c64f8bec0" d="M13.17383,113.60438q-1.73145,0-2.35547,2.95312a5.807,5.807,0,0,1-.97119,2.46973,2.03093,2.03093,0,0,1-1.63037.69433,2.082,2.082,0,0,1-1.72266-.8833,3.67532,3.67532,0,0,1-.67676-2.29834,3.87875,3.87875,0,0,1,.73389-2.46972,2.39051,2.39051,0,0,1,1.98193-.93164v.48339a1.96552,1.96552,0,0,0-1.59961.8086,3.2926,3.2926,0,0,0-.6416,2.10937,3.233,3.233,0,0,0,.54492,1.97754,1.64216,1.64216,0,0,0,1.36231.72949,1.649,1.649,0,0,0,1.00635-.27246,2.35107,2.35107,0,0,0,.65918-.88769,9.12052,9.12052,0,0,0,.56689-1.793,7.65454,7.65454,0,0,1,.6416-1.86328,2.5187,2.5187,0,0,1,.87451-.99317,2.33328,2.33328,0,0,1,1.23487-.30761,2.14848,2.14848,0,0,1,1.81054.92285,3.953,3.953,0,0,1,.68555,2.417,4.23312,4.23312,0,0,1-.7251,2.57959,2.22687,2.22687,0,0,1-1.86767.98v-.47461a1.966,1.966,0,0,0,1.56006-.8833,3.8339,3.8339,0,0,0,.5581-2.20166,3.37365,3.37365,0,0,0-.59326-2.06982A1.74893,1.74893,0,0,0,13.17383,113.60438Z" transform="translate(-2.53027 -5.98085)"/><path class="bb03c1c7-895f-4a0b-9899-ca3c64f8bec0" d="M16.60156,106.828v.51855L2.70605,102.00281v-.51855Z" transform="translate(-2.53027 -5.98085)"/><path class="bb03c1c7-895f-4a0b-9899-ca3c64f8bec0" d="M15.50293,85.65516v.47461H9.15723v8.17382h6.3457v.47461H2.70605v-.47461H8.68262V86.12977H2.70605v-.47461Z" transform="translate(-2.53027 -5.98085)"/><path class="bb03c1c7-895f-4a0b-9899-ca3c64f8bec0" d="M10.56348,83.10633a5.56846,5.56846,0,0,1-2.44776-.52295,4.02188,4.02188,0,0,1-1.69189-1.47656,3.93508,3.93508,0,0,1-.60645-2.15772,3.91333,3.91333,0,0,1,2.25879-3.62549,5.52591,5.52591,0,0,1,2.43457-.54052h.42188a5.60059,5.60059,0,0,1,2.45215.51855,3.99794,3.99794,0,0,1,1.6875,1.47217,3.93515,3.93515,0,0,1,.60644,2.15771,3.93555,3.93555,0,0,1-2.272,3.63868,5.516,5.516,0,0,1-2.42139.53613Zm.36914-.47461a4.99984,4.99984,0,0,0,2.17529-.47022,3.70472,3.70472,0,0,0,1.54248-1.30957,3.408,3.408,0,0,0,.55371-1.92041,3.29691,3.29691,0,0,0-1.22168-2.6499,4.73222,4.73222,0,0,0-3.14648-1.02392h-.27246a4.94906,4.94906,0,0,0-2.16211.47461,3.76122,3.76122,0,0,0-1.55127,1.314A3.35858,3.35858,0,0,0,6.292,78.9491a3.29066,3.29066,0,0,0,1.23926,2.6543,4.72186,4.72186,0,0,0,3.12012,1.02832Z" transform="translate(-2.53027 -5.98085)"/><path class="bb03c1c7-895f-4a0b-9899-ca3c64f8bec0" d="M15.50293,66.10828H13.96484a3.1041,3.1041,0,0,1,1.25245,1.23047,4.08985,4.08985,0,0,1,.46142,2.04785,2.90112,2.90112,0,0,1-.90967,2.3335,4.03861,4.03861,0,0,1-2.6499.79541h-6.126V72.0409h6.14356a3.49286,3.49286,0,0,0,2.28955-.68555,2.43054,2.43054,0,0,0,.77783-1.95117,3.58657,3.58657,0,0,0-.6416-2.21484,2.90417,2.90417,0,0,0-1.88086-1.08106H5.99316v-.4834h9.50977Z" transform="translate(-2.53027 -5.98085)"/><path class="bb03c1c7-895f-4a0b-9899-ca3c64f8bec0" d="M6.34473,58.43543l-.05274.61523a2.815,2.815,0,0,0,.78613,2.03028A3.91625,3.91625,0,0,0,9.27734,62.1532h6.22559v.47461H5.99316V62.1532H7.9707a3.50093,3.50093,0,0,1-1.57324-1.16015,3.14689,3.14689,0,0,1-.58008-1.94239,1.87955,1.87955,0,0,1,.09864-.668Z" transform="translate(-2.53027 -5.98085)"/><path class="bb03c1c7-895f-4a0b-9899-ca3c64f8bec0" d="M135.73242,224.38709v-11.375h2.99219a4.40741,4.40741,0,0,1,2.77734.74609,2.60383,2.60383,0,0,1,.94141,2.168,2.72363,2.72363,0,0,1-.52344,1.71094,2.36208,2.36208,0,0,1-1.47656.86719,2.84889,2.84889,0,0,1,1.79687.93359,2.63017,2.63017,0,0,1,.71875,1.81641,2.91666,2.91666,0,0,1-.9414,2.293,3.79825,3.79825,0,0,1-2.6211.83984Zm.42188-6.03906h2.72656a3.85009,3.85009,0,0,0,2.34375-.59766,2.17778,2.17778,0,0,0,.78906-1.85547q0-2.42138-3.19531-2.46093H136.1543Zm0,.42187v5.19532h3.28906a3.35006,3.35006,0,0,0,2.26953-.71485,2.48348,2.48348,0,0,0,.82422-1.98047,2.26155,2.26155,0,0,0-.79688-1.77734,3.20958,3.20958,0,0,0-2.13281-.72266Z" transform="translate(-2.53027 -5.98085)"/><path class="bb03c1c7-895f-4a0b-9899-ca3c64f8bec0" d="M150.62305,224.38709a5.8533,5.8533,0,0,1-.15625-1.54687,3.38967,3.38967,0,0,1-1.36719,1.25781,4.2309,4.2309,0,0,1-1.96094.44531,2.72936,2.72936,0,0,1-1.88672-.63672,2.117,2.117,0,0,1-.71484-1.66015,2.14364,2.14364,0,0,1,1.05078-1.86329,5.05746,5.05746,0,0,1,2.793-.71484h2.08594V218.434a2.0771,2.0771,0,0,0-.668-1.64844,2.80785,2.80785,0,0,0-1.91016-.58594,3.07724,3.07724,0,0,0-1.92969.59375,1.79116,1.79116,0,0,0-.77343,1.46875l-.42188-.01562a2.16328,2.16328,0,0,1,.90625-1.75,3.46255,3.46255,0,0,1,2.21875-.71875,3.24885,3.24885,0,0,1,2.17188.68359,2.45528,2.45528,0,0,1,.82812,1.92578v4.03906a5.41347,5.41347,0,0,0,.21875,1.89063v.07031Zm-3.48438-.26562a3.79266,3.79266,0,0,0,2.043-.53125,3.28827,3.28827,0,0,0,1.28516-1.49219v-2.00781h-1.95313a4.57684,4.57684,0,0,0-2.77344.71875,1.76441,1.76441,0,0,0-.78125,1.46093,1.67917,1.67917,0,0,0,.61719,1.3125A2.28814,2.28814,0,0,0,147.13867,224.12147Z" transform="translate(-2.53027 -5.98085)"/><path class="bb03c1c7-895f-4a0b-9899-ca3c64f8bec0" d="M158.81836,222.31678q0-1.53808-2.625-2.09375a5.15469,5.15469,0,0,1-2.19531-.86328,1.80389,1.80389,0,0,1-.61719-1.44922,1.852,1.852,0,0,1,.78516-1.53125,3.27034,3.27034,0,0,1,2.043-.60156,3.45071,3.45071,0,0,1,2.19532.65234,2.12709,2.12709,0,0,1,.82812,1.76172h-.42969a1.74886,1.74886,0,0,0-.71875-1.42188,2.92989,2.92989,0,0,0-1.875-.57031,2.87743,2.87743,0,0,0-1.75781.48438,1.56279,1.56279,0,0,0-.40625,2.10546,2.07249,2.07249,0,0,0,.78906.58594,8.04832,8.04832,0,0,0,1.59375.50391,6.83428,6.83428,0,0,1,1.65625.57031,2.24612,2.24612,0,0,1,.88282.77734,2.07785,2.07785,0,0,1,.27343,1.09766,1.90938,1.90938,0,0,1-.82031,1.60938,3.51419,3.51419,0,0,1-2.14844.60937,3.76174,3.76174,0,0,1-2.293-.64453,1.97782,1.97782,0,0,1-.8711-1.66016h.42188a1.74568,1.74568,0,0,0,.78515,1.38672,3.40394,3.40394,0,0,0,1.957.4961,3.00017,3.00017,0,0,0,1.83985-.52735A1.555,1.555,0,0,0,158.81836,222.31678Z" transform="translate(-2.53027 -5.98085)"/><path class="bb03c1c7-895f-4a0b-9899-ca3c64f8bec0" d="M164.60742,224.54334a3.40017,3.40017,0,0,1-1.8789-.55078,3.77781,3.77781,0,0,1-1.33985-1.51172,4.66629,4.66629,0,0,1-.48437-2.13281v-.35156a4.90075,4.90075,0,0,1,.46875-2.14844,3.72183,3.72183,0,0,1,1.28906-1.52344,3.16246,3.16246,0,0,1,1.78906-.54687,2.95735,2.95735,0,0,1,2.3125,1.00781,3.83264,3.83264,0,0,1,.89844,2.64844v.44531h-6.33594v.46a4.24564,4.24564,0,0,0,.4336,1.90723,3.41259,3.41259,0,0,0,1.19531,1.376,2.95427,2.95427,0,0,0,1.65234.499,3.35565,3.35565,0,0,0,1.44922-.28321,2.94291,2.94291,0,0,0,1.05859-.873l.29688.21093A3.18677,3.18677,0,0,1,164.60742,224.54334Zm-.15625-8.34375a2.76156,2.76156,0,0,0-2.09375.918,3.9084,3.9084,0,0,0-1.00781,2.33984h5.89062v-.10156a3.57131,3.57131,0,0,0-.36328-1.59766,2.802,2.802,0,0,0-1-1.14843A2.57787,2.57787,0,0,0,164.45117,216.19959Z" transform="translate(-2.53027 -5.98085)"/><path class="bb03c1c7-895f-4a0b-9899-ca3c64f8bec0" d="M170.1543,224.38709h-.42188v-12h.42188Z" transform="translate(-2.53027 -5.98085)"/><path class="bb03c1c7-895f-4a0b-9899-ca3c64f8bec0" d="M172.81055,213.29334a.42805.42805,0,0,1,.125-.30859.40729.40729,0,0,1,.30468-.12891.44014.44014,0,0,1,.4375.4375.4073.4073,0,0,1-.1289.30469.42535.42535,0,0,1-.3086.125.42681.42681,0,0,1-.42968-.42969Zm.64062,11.09375h-.42187V215.934h.42187Z" transform="translate(-2.53027 -5.98085)"/><path class="bb03c1c7-895f-4a0b-9899-ca3c64f8bec0" d="M176.64648,217.90272a3.53668,3.53668,0,0,1,1.21875-1.55469,3.0121,3.0121,0,0,1,1.78125-.57031,2.5181,2.5181,0,0,1,2.01954.76953,3.52838,3.52838,0,0,1,.668,2.32422v5.51562h-.42187V218.8617a3.1153,3.1153,0,0,0-.55469-2.00977,2.14083,2.14083,0,0,0-1.73437-.65234,2.62967,2.62967,0,0,0-1.89453.77637,3.94506,3.94506,0,0,0-1.082,2.002v5.40918h-.42187V215.934h.42187Z" transform="translate(-2.53027 -5.98085)"/><path class="bb03c1c7-895f-4a0b-9899-ca3c64f8bec0" d="M188.02148,224.54334a3.40019,3.40019,0,0,1-1.8789-.55078,3.77788,3.77788,0,0,1-1.33985-1.51172,4.66629,4.66629,0,0,1-.48437-2.13281v-.35156a4.90075,4.90075,0,0,1,.46875-2.14844,3.7219,3.7219,0,0,1,1.28906-1.52344,3.16248,3.16248,0,0,1,1.78906-.54687,2.95733,2.95733,0,0,1,2.3125,1.00781,3.8326,3.8326,0,0,1,.89844,2.64844v.44531h-6.33594v.46a4.24577,4.24577,0,0,0,.4336,1.90723,3.41259,3.41259,0,0,0,1.19531,1.376,2.95427,2.95427,0,0,0,1.65234.499,3.35559,3.35559,0,0,0,1.44922-.28321,2.943,2.943,0,0,0,1.0586-.873l.29687.21093A3.18677,3.18677,0,0,1,188.02148,224.54334Zm-.15625-8.34375a2.76156,2.76156,0,0,0-2.09375.918,3.9084,3.9084,0,0,0-1.00781,2.33984h5.89063v-.10156a3.57144,3.57144,0,0,0-.36328-1.59766,2.80214,2.80214,0,0,0-1-1.14843A2.57793,2.57793,0,0,0,187.86523,216.19959Z" transform="translate(-2.53027 -5.98085)"/><path class="bb03c1c7-895f-4a0b-9899-ca3c64f8bec0" d="M252.90283,219.55115a6.1456,6.1456,0,0,1-.52734,2.61328,4.039,4.039,0,0,1-1.50391,1.75782,4.10339,4.10339,0,0,1-2.25.62109,3.91866,3.91866,0,0,1-3.10937-1.36719,5.42647,5.42647,0,0,1-1.1875-3.6875V217.848a6.1556,6.1556,0,0,1,.52734-2.60938,4.0279,4.0279,0,0,1,1.50781-1.76172,4.386,4.386,0,0,1,4.5,0,4.0522,4.0522,0,0,1,1.51172,1.76563,6.126,6.126,0,0,1,.53125,2.60547Zm-.42187-1.71875a4.97563,4.97563,0,0,0-1.04688-3.30859,3.8139,3.8139,0,0,0-5.63281-.00781,5.05491,5.05491,0,0,0-1.04688,3.37109v1.66406a5.76021,5.76021,0,0,0,.47266,2.40235,3.63283,3.63283,0,0,0,1.34766,1.60547,3.701,3.701,0,0,0,2.04687.5625,3.48414,3.48414,0,0,0,2.82031-1.24219,5.12356,5.12356,0,0,0,1.03907-3.39063Z" transform="translate(-2.53027 -5.98085)"/><path class="bb03c1c7-895f-4a0b-9899-ca3c64f8bec0" d="M259.01221,216.24647l-.54688-.04688a2.50213,2.50213,0,0,0-1.80469.69922,3.47722,3.47722,0,0,0-.95312,1.95508v5.5332h-.42188V215.934h.42188v1.75781a3.11306,3.11306,0,0,1,1.03125-1.39844,2.79623,2.79623,0,0,1,1.72656-.51562,1.672,1.672,0,0,1,.59375.08789Z" transform="translate(-2.53027 -5.98085)"/><path class="bb03c1c7-895f-4a0b-9899-ca3c64f8bec0" d="M260.09814,220.07459a5.17241,5.17241,0,0,1,.85157-3.16016,2.759,2.759,0,0,1,2.33593-1.13671,3.26257,3.26257,0,0,1,1.6836.42968,3.17075,3.17075,0,0,1,1.18359,1.28125v-5.10156h.42188v12h-.42188v-1.35156a2.94081,2.94081,0,0,1-1.17969,1.11328,3.607,3.607,0,0,1-1.70312.39453,2.721,2.721,0,0,1-2.32031-1.16406,5.3105,5.3105,0,0,1-.85157-3.19531Zm.4375.16406a4.97428,4.97428,0,0,0,.71094,2.83985,2.29647,2.29647,0,0,0,2.01563,1.043,3.29876,3.29876,0,0,0,1.78906-.46485,2.7602,2.7602,0,0,0,1.10156-1.36328V218.3324a2.82226,2.82226,0,0,0-2.875-2.13281,2.33322,2.33322,0,0,0-2.01953,1.02344A5.21681,5.21681,0,0,0,260.53564,220.23865Z" transform="translate(-2.53027 -5.98085)"/><path class="bb03c1c7-895f-4a0b-9899-ca3c64f8bec0" d="M272.28564,224.54334a3.40019,3.40019,0,0,1-1.8789-.55078,3.77788,3.77788,0,0,1-1.33985-1.51172,4.66629,4.66629,0,0,1-.48437-2.13281v-.35156a4.90075,4.90075,0,0,1,.46875-2.14844,3.7219,3.7219,0,0,1,1.28906-1.52344,3.16248,3.16248,0,0,1,1.78906-.54687,2.95733,2.95733,0,0,1,2.3125,1.00781,3.8326,3.8326,0,0,1,.89844,2.64844v.44531h-6.33594v.46a4.24577,4.24577,0,0,0,.4336,1.90723,3.41259,3.41259,0,0,0,1.19531,1.376,2.95427,2.95427,0,0,0,1.65234.499,3.35559,3.35559,0,0,0,1.44922-.28321,2.943,2.943,0,0,0,1.0586-.873l.29687.21093A3.18677,3.18677,0,0,1,272.28564,224.54334Zm-.15625-8.34375a2.76156,2.76156,0,0,0-2.09375.918,3.9084,3.9084,0,0,0-1.00781,2.33984h5.89063v-.10156a3.57144,3.57144,0,0,0-.36328-1.59766,2.80214,2.80214,0,0,0-1-1.14843A2.57793,2.57793,0,0,0,272.12939,216.19959Z" transform="translate(-2.53027 -5.98085)"/><path class="bb03c1c7-895f-4a0b-9899-ca3c64f8bec0" d="M281.03564,216.24647l-.54687-.04688a2.50213,2.50213,0,0,0-1.80469.69922,3.47722,3.47722,0,0,0-.95312,1.95508v5.5332h-.42188V215.934h.42188v1.75781a3.11306,3.11306,0,0,1,1.03125-1.39844,2.79621,2.79621,0,0,1,1.72656-.51562,1.672,1.672,0,0,1,.59375.08789Z" transform="translate(-2.53027 -5.98085)"/><path class="bb03c1c7-895f-4a0b-9899-ca3c64f8bec0" d="M285.55127,224.54334a3.40022,3.40022,0,0,1-1.87891-.55078,3.77778,3.77778,0,0,1-1.33984-1.51172,4.6663,4.6663,0,0,1-.48438-2.13281v-.35156a4.90075,4.90075,0,0,1,.46875-2.14844,3.72185,3.72185,0,0,1,1.28907-1.52344,3.16243,3.16243,0,0,1,1.78906-.54687,2.95735,2.95735,0,0,1,2.3125,1.00781,3.83264,3.83264,0,0,1,.89844,2.64844v.44531H282.27v.46a4.24576,4.24576,0,0,0,.43359,1.90723,3.41262,3.41262,0,0,0,1.19532,1.376,2.95427,2.95427,0,0,0,1.65234.499,3.35565,3.35565,0,0,0,1.44922-.28321,2.943,2.943,0,0,0,1.05859-.873l.29688.21093A3.18677,3.18677,0,0,1,285.55127,224.54334Zm-.15625-8.34375a2.76154,2.76154,0,0,0-2.09375.918,3.9084,3.9084,0,0,0-1.00781,2.33984h5.89062v-.10156a3.57131,3.57131,0,0,0-.36328-1.59766,2.80207,2.80207,0,0,0-1-1.14843A2.57787,2.57787,0,0,0,285.395,216.19959Z" transform="translate(-2.53027 -5.98085)"/><path class="bb03c1c7-895f-4a0b-9899-ca3c64f8bec0" d="M290.18408,220.07459a5.17241,5.17241,0,0,1,.85156-3.16016,2.759,2.759,0,0,1,2.33594-1.13671,3.26257,3.26257,0,0,1,1.6836.42968,3.17082,3.17082,0,0,1,1.18359,1.28125v-5.10156h.42187v12h-.42187v-1.35156a2.94081,2.94081,0,0,1-1.17969,1.11328,3.607,3.607,0,0,1-1.70312.39453,2.721,2.721,0,0,1-2.32032-1.16406,5.3105,5.3105,0,0,1-.85156-3.19531Zm.4375.16406a4.97428,4.97428,0,0,0,.71094,2.83985,2.29647,2.29647,0,0,0,2.01562,1.043,3.29877,3.29877,0,0,0,1.78907-.46485,2.76025,2.76025,0,0,0,1.10156-1.36328V218.3324a2.82226,2.82226,0,0,0-2.875-2.13281,2.3332,2.3332,0,0,0-2.01953,1.02344A5.21674,5.21674,0,0,0,290.62158,220.23865Z" transform="translate(-2.53027 -5.98085)"/><path class="bb03c1c7-895f-4a0b-9899-ca3c64f8bec0" d="M258.18408,237.99354H252.356v5.59375h-.42188v-11.375H258.981v.42187h-6.625V237.556h5.82812Z" transform="translate(-2.53027 -5.98085)"/><path class="bb03c1c7-895f-4a0b-9899-ca3c64f8bec0" d="M260.75439,232.49354a.42813.42813,0,0,1,.125-.3086.4073.4073,0,0,1,.30469-.1289.44012.44012,0,0,1,.4375.4375.40732.40732,0,0,1-.1289.30468.42531.42531,0,0,1-.3086.125.42681.42681,0,0,1-.42969-.42968Zm.64063,11.09375h-.42188v-8.45313h.42188Z" transform="translate(-2.53027 -5.98085)"/><path class="bb03c1c7-895f-4a0b-9899-ca3c64f8bec0" d="M267.20752,243.74354a3.40023,3.40023,0,0,1-1.87891-.55079,3.77776,3.77776,0,0,1-1.33984-1.51171,4.66637,4.66637,0,0,1-.48438-2.13282v-.35156a4.90075,4.90075,0,0,1,.46875-2.14844,3.72176,3.72176,0,0,1,1.28907-1.52343,3.16244,3.16244,0,0,1,1.78906-.54688,2.95738,2.95738,0,0,1,2.3125,1.00781,3.83266,3.83266,0,0,1,.89844,2.64844v.44531h-6.33594v.46a4.2457,4.2457,0,0,0,.43359,1.90723,3.41265,3.41265,0,0,0,1.19532,1.376,2.95426,2.95426,0,0,0,1.65234.499,3.3558,3.3558,0,0,0,1.44922-.2832,2.943,2.943,0,0,0,1.05859-.873l.29688.21094A3.18677,3.18677,0,0,1,267.20752,243.74354Zm-.15625-8.34375a2.76157,2.76157,0,0,0-2.09375.918,3.90843,3.90843,0,0,0-1.00781,2.33985h5.89062V238.556a3.57128,3.57128,0,0,0-.36328-1.59766,2.8021,2.8021,0,0,0-1-1.14844A2.57786,2.57786,0,0,0,267.05127,235.39979Z" transform="translate(-2.53027 -5.98085)"/><path class="bb03c1c7-895f-4a0b-9899-ca3c64f8bec0" d="M272.75439,243.58729h-.42187v-12h.42187Z" transform="translate(-2.53027 -5.98085)"/><path class="bb03c1c7-895f-4a0b-9899-ca3c64f8bec0" d="M275.13721,239.27479a5.17237,5.17237,0,0,1,.85156-3.16016,2.759,2.759,0,0,1,2.33594-1.13672,3.26254,3.26254,0,0,1,1.68359.42969,3.17068,3.17068,0,0,1,1.18359,1.28125v-5.10156h.42188v12h-.42188v-1.35157a2.94065,2.94065,0,0,1-1.17968,1.11328,3.60694,3.60694,0,0,1-1.70313.39454,2.721,2.721,0,0,1-2.32031-1.16407,5.3105,5.3105,0,0,1-.85156-3.19531Zm.4375.16406a4.97425,4.97425,0,0,0,.71093,2.83984,2.29649,2.29649,0,0,0,2.01563,1.043,3.29884,3.29884,0,0,0,1.78906-.46484,2.7602,2.7602,0,0,0,1.10156-1.36328V237.5326a2.82225,2.82225,0,0,0-2.875-2.13281,2.33321,2.33321,0,0,0-2.01953,1.02343A5.21683,5.21683,0,0,0,275.57471,239.43885Z" transform="translate(-2.53027 -5.98085)"/><path class="bb03c1c7-895f-4a0b-9899-ca3c64f8bec0" d="M289.49658,241.517q0-1.53808-2.625-2.09375a5.15475,5.15475,0,0,1-2.19531-.86328,1.80386,1.80386,0,0,1-.61719-1.44922,1.852,1.852,0,0,1,.78516-1.53125,3.27037,3.27037,0,0,1,2.043-.60156,3.4507,3.4507,0,0,1,2.19531.65234,2.12708,2.12708,0,0,1,.82812,1.76172H289.481a1.74887,1.74887,0,0,0-.71875-1.42187,2.92993,2.92993,0,0,0-1.875-.57031,2.87751,2.87751,0,0,0-1.75782.48437,1.56283,1.56283,0,0,0-.40625,2.10547,2.07254,2.07254,0,0,0,.78907.58594,8.04864,8.04864,0,0,0,1.59375.5039,6.8344,6.8344,0,0,1,1.65625.57032,2.246,2.246,0,0,1,.88281.77734,2.07783,2.07783,0,0,1,.27344,1.09766,1.90937,1.90937,0,0,1-.82032,1.60937,3.51418,3.51418,0,0,1-2.14843.60938,3.76175,3.76175,0,0,1-2.293-.64454,1.9778,1.9778,0,0,1-.8711-1.66015h.42188a1.74567,1.74567,0,0,0,.78516,1.38672,3.404,3.404,0,0,0,1.957.49609,3.00016,3.00016,0,0,0,1.83984-.52734A1.55505,1.55505,0,0,0,289.49658,241.517Z" transform="translate(-2.53027 -5.98085)"/></svg>