<svg id="394ab8a5-6add-4643-849e-d41907dcdf85" data-name="Layer 1" xmlns="http://www.w3.org/2000/svg" width="1090.24805" height="245.8154" viewBox="0 0 1090.24805 245.8154"><defs><style>.ae1ef2bf-effe-4448-84a6-d6d8d4c613ce{fill:#231f20;}</style></defs><title>sn-font</title><path class="ae1ef2bf-effe-4448-84a6-d6d8d4c613ce" d="M415.46717,17.69719l-2.61851,2.009a14.31413,14.31413,0,0,0-5.20316-4.27765,15.21829,15.21829,0,0,0-6.67043-1.456A14.7301,14.7301,0,0,0,393.61616,15.88a13.697,13.697,0,0,0-5.24831,5.12415,14.17671,14.17671,0,0,0-1.8623,7.23476,13.58026,13.58026,0,0,0,4.16479,10.13544,14.43285,14.43285,0,0,0,10.5079,4.0632,14.77152,14.77152,0,0,0,11.67042-5.46275l2.61851,1.98645a16.74036,16.74036,0,0,1-6.19639,4.88714,19.43257,19.43257,0,0,1-8.29571,1.72686q-8.71472,0-13.74717-5.80136a17.51025,17.51025,0,0,1-4.22122-11.82843,16.44569,16.44569,0,0,1,5.11287-12.26862,17.62594,17.62594,0,0,1,12.81038-4.97743,18.78026,18.78026,0,0,1,8.39729,1.83973A16.30805,16.30805,0,0,1,415.46717,17.69719Z" transform="translate(-7.31828 -10.0674)"/><path class="ae1ef2bf-effe-4448-84a6-d6d8d4c613ce" d="M442.28432,36.59109l2.66366,1.39955a14.5198,14.5198,0,0,1-3.02766,4.1535,12.06705,12.06705,0,0,1-3.86286,2.40406,13.46672,13.46672,0,0,1-4.85892.82393q-6.01015,0-9.399-3.93905a13.28844,13.28844,0,0,1-3.38882-8.90519,13.12951,13.12951,0,0,1,2.86963-8.32957,11.72733,11.72733,0,0,1,9.73759-4.65011,12.11721,12.11721,0,0,1,10.031,4.763,13.30548,13.30548,0,0,1,2.71163,8.39729H423.6613a9.98761,9.98761,0,0,0,2.7342,7.01467,8.72165,8.72165,0,0,0,6.53216,2.737,10.52319,10.52319,0,0,0,3.65124-.6518,9.60725,9.60725,0,0,0,3.01637-1.73251A14.83144,14.83144,0,0,0,442.28432,36.59109Zm0-6.614a10.48989,10.48989,0,0,0-1.84255-4.04063,8.73629,8.73629,0,0,0-3.197-2.43793,9.78408,9.78408,0,0,0-4.18172-.9255,9.01276,9.01276,0,0,0-6.21614,2.32505,10.52794,10.52794,0,0,0-2.86963,5.079Z" transform="translate(-7.31828 -10.0674)"/><path class="ae1ef2bf-effe-4448-84a6-d6d8d4c613ce" d="M451.65226,20.18026h3.16027v4.4018a13.221,13.221,0,0,1,4.19865-3.781,10.3169,10.3169,0,0,1,5.01128-1.25282,8.69776,8.69776,0,0,1,4.88714,1.39954,8.34185,8.34185,0,0,1,3.149,3.76975,19.93465,19.93465,0,0,1,1.0158,7.38149V44.74007h-3.16027V33.0245a28.84948,28.84948,0,0,0-.35271-5.66591,6.21314,6.21314,0,0,0-2.105-3.66817,6.36511,6.36511,0,0,0-4.066-1.23025,7.79441,7.79441,0,0,0-5.13544,1.89616,8.893,8.893,0,0,0-2.991,4.69526,32.579,32.579,0,0,0-.45147,6.68171v9.00677h-3.16027Z" transform="translate(-7.31828 -10.0674)"/><path class="ae1ef2bf-effe-4448-84a6-d6d8d4c613ce" d="M482.60034,11.06062h3.16027v9.11964h5.01128v2.73138h-5.01128V44.74007h-3.16027V22.91164h-4.31151V20.18026h4.31151Z" transform="translate(-7.31828 -10.0674)"/><path class="ae1ef2bf-effe-4448-84a6-d6d8d4c613ce" d="M495.106,20.18026h3.16027V31.64753a24.44988,24.44988,0,0,0,.45147,5.77878A6.43361,6.43361,0,0,0,501.308,40.9929a7.86056,7.86056,0,0,0,4.55417,1.30925,7.69175,7.69175,0,0,0,4.48646-1.27539,6.51705,6.51705,0,0,0,2.54514-3.35215,23.70774,23.70774,0,0,0,.474-6.02708V20.18026h3.228V32.23443a19.06508,19.06508,0,0,1-1.1851,7.65237,9.04607,9.04607,0,0,1-3.56659,4.02935,11.27055,11.27055,0,0,1-5.97065,1.456,11.389,11.389,0,0,1-5.99323-1.456,8.97905,8.97905,0,0,1-3.58916-4.06321,19.85079,19.85079,0,0,1-1.1851-7.84424Z" transform="translate(-7.31828 -10.0674)"/><path class="ae1ef2bf-effe-4448-84a6-d6d8d4c613ce" d="M522.41974,20.18026h3.228v3.58916a11.31979,11.31979,0,0,1,3.0474-3.17155,6.01074,6.01074,0,0,1,3.34086-1.04966,5.7773,5.7773,0,0,1,2.7991.83521l-1.64786,2.66366a4.417,4.417,0,0,0-1.67043-.4289,4.56819,4.56819,0,0,0-3.0474,1.298,8.20109,8.20109,0,0,0-2.23476,4.02935,38.58469,38.58469,0,0,0-.58691,8.48758v8.307h-3.228Z" transform="translate(-7.31828 -10.0674)"/><path class="ae1ef2bf-effe-4448-84a6-d6d8d4c613ce" d="M534.88023,20.18026h3.34086l8.43962,18.91083,8.197-18.91083h3.36343L543.571,53.72427h-3.338l4.72912-10.84368Z" transform="translate(-7.31828 -10.0674)"/><path class="ae1ef2bf-effe-4448-84a6-d6d8d4c613ce" d="M607.65674,17.11028l-2.57336,2.43793a19.65991,19.65991,0,0,0-6.08352-4.14222,16.38087,16.38087,0,0,0-6.4447-1.41083,15.37534,15.37534,0,0,0-7.43792,1.91874,13.92149,13.92149,0,0,0-5.474,5.20315,13.4219,13.4219,0,0,0-1.94131,6.94131,13.6995,13.6995,0,0,0,2.009,7.1219,14.291,14.291,0,0,0,5.553,5.30474,15.9724,15.9724,0,0,0,7.76524,1.93,13.26442,13.26442,0,0,0,8.66816-2.88939,11.41324,11.41324,0,0,0,4.19865-7.49436H595.30911V28.82586h14.31151q-.04656,7.69892-4.5711,12.22347t-12.11061,4.526q-9.20992,0-14.58239-6.2754a16.67694,16.67694,0,0,1-4.13092-11.17381,17.12634,17.12634,0,0,1,2.3702-8.781,16.84784,16.84784,0,0,1,6.50113-6.3544,18.94957,18.94957,0,0,1,9.34537-2.2912,20.78379,20.78379,0,0,1,7.94582,1.5237A23.68676,23.68676,0,0,1,607.65674,17.11028Z" transform="translate(-7.31828 -10.0674)"/><path class="ae1ef2bf-effe-4448-84a6-d6d8d4c613ce" d="M627.04726,19.54821a12.16343,12.16343,0,0,1,9.40744,4.10835,13.18788,13.18788,0,0,1-.19187,17.86681,12.98442,12.98442,0,0,1-18.45372,0,13.15908,13.15908,0,0,1-.19187-17.84424A12.16265,12.16265,0,0,1,627.04726,19.54821Zm-.01129,3.09255a9.11141,9.11141,0,0,0-6.772,2.912,9.72309,9.72309,0,0,0-2.83295,7.04289,9.9643,9.9643,0,0,0,1.29232,4.96614,9.14765,9.14765,0,0,0,3.48758,3.5553,9.91791,9.91791,0,0,0,9.65011,0,9.14761,9.14761,0,0,0,3.48759-3.5553,9.99372,9.99372,0,0,0,1.29232-4.96614,9.71051,9.71051,0,0,0-2.84424-7.04289A9.12263,9.12263,0,0,0,627.036,22.64076Z" transform="translate(-7.31828 -10.0674)"/><path class="ae1ef2bf-effe-4448-84a6-d6d8d4c613ce" d="M648.4468,11.06062h3.16027v9.11964h5.01128v2.73138h-5.01128V44.74007H648.4468V22.91164h-4.31151V20.18026h4.31151Z" transform="translate(-7.31828 -10.0674)"/><path class="ae1ef2bf-effe-4448-84a6-d6d8d4c613ce" d="M661.35876,10.69945H664.519V24.58206a13.434,13.434,0,0,1,4.22122-3.781,10.26959,10.26959,0,0,1,4.98871-1.25282,8.69771,8.69771,0,0,1,4.88713,1.39954,8.35707,8.35707,0,0,1,3.149,3.75847,19.92174,19.92174,0,0,1,1.0158,7.39277V44.74007h-3.16027V33.0245a29.94917,29.94917,0,0,0-.3386-5.66591,6.43451,6.43451,0,0,0-2.13319-3.66817,6.30748,6.30748,0,0,0-4.05191-1.23025,7.7944,7.7944,0,0,0-5.13544,1.89616,8.89286,8.89286,0,0,0-2.991,4.69526,32.39065,32.39065,0,0,0-.45147,6.68171v9.00677h-3.16027Z" transform="translate(-7.31828 -10.0674)"/><path class="ae1ef2bf-effe-4448-84a6-d6d8d4c613ce" d="M690.64769,10.0674a2.61558,2.61558,0,0,1,2.60722,2.61851,2.596,2.596,0,0,1-5.19187,0,2.52211,2.52211,0,0,1,.76467-1.851A2.47852,2.47852,0,0,1,690.64769,10.0674Zm-1.56885,10.11286h3.16027V44.74007h-3.16027Z" transform="translate(-7.31828 -10.0674)"/><path class="ae1ef2bf-effe-4448-84a6-d6d8d4c613ce" d="M722.64543,25.28184l-2.50565,1.55756a10.493,10.493,0,0,0-8.86-4.31151,10.24965,10.24965,0,0,0-7.452,2.88657,9.41409,9.41409,0,0,0-2.96557,7.01185A9.95939,9.95939,0,0,0,702.225,37.4771a9.56351,9.56351,0,0,0,3.74436,3.67381,11.31453,11.31453,0,0,0,14.17042-3.00226l2.50565,1.64786a11.8624,11.8624,0,0,1-4.72912,4.114,15.11712,15.11712,0,0,1-6.76072,1.46163,13.35334,13.35334,0,0,1-9.6614-3.702,12.04338,12.04338,0,0,1-3.83747-9.00677A12.8647,12.8647,0,0,1,699.4513,26.038a12.63615,12.63615,0,0,1,4.93228-4.77427,14.4006,14.4006,0,0,1,7.02031-1.71557,14.98949,14.98949,0,0,1,4.70655.74492,13.05323,13.05323,0,0,1,3.84876,1.94131A10.58312,10.58312,0,0,1,722.64543,25.28184Z" transform="translate(-7.31828 -10.0674)"/><path class="ae1ef2bf-effe-4448-84a6-d6d8d4c613ce" d="M23.81941,78.71016l15.48532,33.20541H35.72121L30.4983,100.99006H16.19244l-5.17213,10.92551h-3.702L23.00677,78.71016Zm-.41761,7.05417L17.71049,97.78464H29.06207Z" transform="translate(-7.31828 -10.0674)"/><path class="ae1ef2bf-effe-4448-84a6-d6d8d4c613ce" d="M57.34085,78.71016h6.54627a15.55486,15.55486,0,0,1,6.07223.93679A7.43385,7.43385,0,0,1,73.3115,82.525a7.88407,7.88407,0,0,1,1.23024,4.31151,7.73628,7.73628,0,0,1-1.07787,4.02935,8.00007,8.00007,0,0,1-3.16874,2.94582,12.25829,12.25829,0,0,1,3.9842,2.06546A8.27171,8.27171,0,0,1,76.452,98.744a8.60614,8.60614,0,0,1,.776,3.6456,8.945,8.945,0,0,1-2.92325,6.76072,10.95113,10.95113,0,0,1-7.84424,2.76524H57.34085Zm3.25056,3.25056V92.59277h1.899a14.84329,14.84329,0,0,0,5.09029-.64334,5.47783,5.47783,0,0,0,2.579-2.0316,5.325,5.325,0,0,0,.9509-3.08127,4.35914,4.35914,0,0,0-1.59424-3.57787q-1.59566-1.29939-5.079-1.298Zm0,13.97291V108.665h4.114a14.76712,14.76712,0,0,0,5.3386-.71106,6.0719,6.0719,0,0,0,2.72291-2.22347,5.80013,5.80013,0,0,0-.4176-7.13319A7.42787,7.42787,0,0,0,68.37357,96.34a29.06615,29.06615,0,0,0-5.90575-.40632Z" transform="translate(-7.31828 -10.0674)"/><path class="ae1ef2bf-effe-4448-84a6-d6d8d4c613ce" d="M127.52142,84.87268l-2.61851,2.009a14.31429,14.31429,0,0,0-5.20316-4.27765,15.21846,15.21846,0,0,0-6.67043-1.456,14.73011,14.73011,0,0,0-7.35892,1.90745,13.69694,13.69694,0,0,0-5.2483,5.12415,14.17664,14.17664,0,0,0-1.8623,7.23476,13.58026,13.58026,0,0,0,4.16478,10.13544,14.43286,14.43286,0,0,0,10.5079,4.0632,14.77153,14.77153,0,0,0,11.67043-5.46275l2.61851,1.98646a16.74041,16.74041,0,0,1-6.19639,4.88713,19.4326,19.4326,0,0,1-8.29571,1.72686q-8.71473,0-13.74718-5.80135A17.51028,17.51028,0,0,1,95.06093,95.121a16.44572,16.44572,0,0,1,5.11286-12.26862,17.626,17.626,0,0,1,12.81038-4.97743,18.78022,18.78022,0,0,1,8.39729,1.83973A16.30825,16.30825,0,0,1,127.52142,84.87268Z" transform="translate(-7.31828 -10.0674)"/><path class="ae1ef2bf-effe-4448-84a6-d6d8d4c613ce" d="M146.97965,111.91557V78.71016h6.88487q7.44921,0,10.81264,1.19638a14.45477,14.45477,0,0,1,7.55079,5.86908,17.83018,17.83018,0,0,1,2.72009,9.95485,17.46694,17.46694,0,0,1-2.15575,8.781,13.82331,13.82331,0,0,1-5.5982,5.5982q-3.441,1.80727-9.65011,1.80587Zm3.18284-3.1377H154q6.88629,0,9.54853-.85779a11.02853,11.02853,0,0,0,5.89165-4.38487,13.49809,13.49809,0,0,0,2.14447-7.74831,14.22213,14.22213,0,0,0-2.32506-8.21106,11.70684,11.70684,0,0,0-6.47855-4.667q-3.11513-.94807-10.27088-.94808h-2.34763Z" transform="translate(-7.31828 -10.0674)"/><path class="ae1ef2bf-effe-4448-84a6-d6d8d4c613ce" d="M194.20312,78.71016h19.02934v3.25056H197.5214V92.367H213.097V95.6176H197.5214V108.665H213.097v3.25057h-18.8939Z" transform="translate(-7.31828 -10.0674)"/><path class="ae1ef2bf-effe-4448-84a6-d6d8d4c613ce" d="M231.76518,78.71016h16.63657v3.25056H235.08347V92.367h13.31828V95.6176H235.08347v16.298h-3.31829Z" transform="translate(-7.31828 -10.0674)"/><path class="ae1ef2bf-effe-4448-84a6-d6d8d4c613ce" d="M299.01122,84.28578l-2.57337,2.43792a19.65946,19.65946,0,0,0-6.08352-4.14221,16.38063,16.38063,0,0,0-6.44469-1.41084,15.37531,15.37531,0,0,0-7.43792,1.91874,13.92138,13.92138,0,0,0-5.474,5.20316,13.42174,13.42174,0,0,0-1.94131,6.9413,13.6995,13.6995,0,0,0,2.009,7.1219,14.29086,14.29086,0,0,0,5.553,5.30474,15.97236,15.97236,0,0,0,7.76523,1.93,13.26446,13.26446,0,0,0,8.66817-2.88939,11.41319,11.41319,0,0,0,4.19864-7.49436h-10.5869V96.00135H300.9751q-.04656,7.69893-4.57111,12.22347t-12.1106,4.526q-9.20994,0-14.58239-6.27539a16.677,16.677,0,0,1-4.13093-11.17382,17.12625,17.12625,0,0,1,2.37021-8.781,16.84775,16.84775,0,0,1,6.50112-6.3544,18.9496,18.9496,0,0,1,9.34537-2.2912,20.7838,20.7838,0,0,1,7.94583,1.5237A23.68674,23.68674,0,0,1,299.01122,84.28578Z" transform="translate(-7.31828 -10.0674)"/><path class="ae1ef2bf-effe-4448-84a6-d6d8d4c613ce" d="M320.04959,78.71016h3.31828V92.63792h16.90745V78.71016h3.31828v33.20541h-3.31828V95.88848H323.36787v16.02709h-3.31828Z" transform="translate(-7.31828 -10.0674)"/><path class="ae1ef2bf-effe-4448-84a6-d6d8d4c613ce" d="M363.99991,78.71016h3.31829v33.20541h-3.31829Z" transform="translate(-7.31828 -10.0674)"/><path class="ae1ef2bf-effe-4448-84a6-d6d8d4c613ce" d="M398.60487,78.71016h3.31829V101.1255q0,5.16789-.80136,7.18961a6.69523,6.69523,0,0,1-2.67494,3.228,8.20973,8.20973,0,0,1-4.53725,1.20767,10.60436,10.60436,0,0,1-3.96162-.77878,16.82439,16.82439,0,0,1-4.3228-2.74266l1.76072-2.64109a25.93523,25.93523,0,0,0,4.32,2.57337,5.50244,5.50244,0,0,0,2.21783.49661,4.255,4.255,0,0,0,2.58747-.85779,4.4827,4.4827,0,0,0,1.63093-2.27991,21.22216,21.22216,0,0,0,.46275-5.5079Z" transform="translate(-7.31828 -10.0674)"/><path class="ae1ef2bf-effe-4448-84a6-d6d8d4c613ce" d="M422.80351,78.71016h3.386V91.17065l13.27313-12.46049h4.45824L427.97281,93.60857l17.18961,18.307h-4.41873L426.18952,96.45v15.46558h-3.386Z" transform="translate(-7.31828 -10.0674)"/><path class="ae1ef2bf-effe-4448-84a6-d6d8d4c613ce" d="M462.91637,78.71016h3.31828v30h12.77652v3.20542h-16.0948Z" transform="translate(-7.31828 -10.0674)"/><path class="ae1ef2bf-effe-4448-84a6-d6d8d4c613ce" d="M495.55745,111.91557,500.312,78.71016h.53894l13.49887,27.246,13.36907-27.246h.53047l4.77991,33.20541h-3.25339l-3.2816-23.74718-11.741,23.74718h-.84932L502.02471,87.98781l-3.26185,23.92776Z" transform="translate(-7.31828 -10.0674)"/><path class="ae1ef2bf-effe-4448-84a6-d6d8d4c613ce" d="M552.37459,111.91557V78.71016h.72234l22.09932,25.45428V78.71016h3.27314v33.20541h-.74492l-21.91873-25.1439v25.1439Z" transform="translate(-7.31828 -10.0674)"/><path class="ae1ef2bf-effe-4448-84a6-d6d8d4c613ce" d="M615.16238,77.87494a17.23615,17.23615,0,0,1,12.627,5.03386,17.63813,17.63813,0,0,1,.01129,24.763,16.81354,16.81354,0,0,1-12.36738,5.079,16.9961,16.9961,0,0,1-12.469-5.05643,16.62179,16.62179,0,0,1-5.08182-12.23476,17.71473,17.71473,0,0,1,2.31377-8.87133,17.10715,17.10715,0,0,1,14.96613-8.71332Zm.14673,3.228a14.1842,14.1842,0,0,0-12.14165,7.09368,14.38665,14.38665,0,0,0-1.85383,7.25169,13.96493,13.96493,0,0,0,13.99548,14.07449,14.23361,14.23361,0,0,0,7.15575-1.87359,13.43905,13.43905,0,0,0,5.13262-5.12979A14.41114,14.41114,0,0,0,629.44,95.29029a14.06549,14.06549,0,0,0-1.84255-7.15011,13.75366,13.75366,0,0,0-5.18905-5.11569A14.03668,14.03668,0,0,0,615.30911,81.10293Z" transform="translate(-7.31828 -10.0674)"/><path class="ae1ef2bf-effe-4448-84a6-d6d8d4c613ce" d="M652.30684,78.71016h6.614a38.14637,38.14637,0,0,1,7.67494.49661,8.50782,8.50782,0,0,1,4.65011,2.8781,8.28423,8.28423,0,0,1,1.80587,5.474,8.36934,8.36934,0,0,1-1.76072,5.474,8.66593,8.66593,0,0,1-4.85327,2.90068,42.90046,42.90046,0,0,1-8.44244.54176h-2.3702v15.44018h-3.31829Zm3.31829,3.25056v11.2641l5.62076.06773a14.65061,14.65061,0,0,0,4.98872-.62077,5.11012,5.11012,0,0,0,2.48306-2.00339,5.55512,5.55512,0,0,0,.90294-3.09819,5.4883,5.4883,0,0,0-.90294-3.053,4.97877,4.97877,0,0,0-2.38148-1.96952,14.27047,14.27047,0,0,0-4.842-.58691Z" transform="translate(-7.31828 -10.0674)"/><path class="ae1ef2bf-effe-4448-84a6-d6d8d4c613ce" d="M720.31473,108.30947l4.92663,6.2246h-4.08577l-3.38037-4.29175a17.911,17.911,0,0,1-21.614-2.548,16.63566,16.63566,0,0,1-5.07336-12.23476,17.69994,17.69994,0,0,1,2.32224-8.88262,16.79471,16.79471,0,0,1,6.329-6.39955,17.31568,17.31568,0,0,1,8.78668-2.30248,17.26358,17.26358,0,0,1,17.50564,17.44921,17.36959,17.36959,0,0,1-1.38826,7.02031A18.37417,18.37417,0,0,1,720.31473,108.30947Zm-2.05418-2.59876a14.72738,14.72738,0,0,0,2.5-17.56771A13.75757,13.75757,0,0,0,715.58,83.02449a13.86135,13.86135,0,0,0-14.06321-.01129A13.68231,13.68231,0,0,0,696.37,88.18532a14.47064,14.47064,0,0,0-1.851,7.263,13.93644,13.93644,0,0,0,13.95034,14.07449,14.02385,14.02385,0,0,0,7.22629-1.92156l-7.39277-9.38769h4.02652Z" transform="translate(-7.31828 -10.0674)"/><path class="ae1ef2bf-effe-4448-84a6-d6d8d4c613ce" d="M745.738,78.71016h6.614a40.28582,40.28582,0,0,1,7.49435.45146,8.54537,8.54537,0,0,1,4.80813,2.90632,8.28787,8.28787,0,0,1,1.851,5.47969,8.86794,8.86794,0,0,1-1.27539,4.76862,7.96671,7.96671,0,0,1-3.6456,3.10948A16.75071,16.75071,0,0,1,755.0382,96.498l11.9413,15.41761H762.874L750.93267,96.498h-1.87641v15.41761H745.738Zm3.31829,3.25056V93.2474l5.71952.04515a14.187,14.187,0,0,0,4.91817-.63206,5.1241,5.1241,0,0,0,2.48871-2.02031,5.633,5.633,0,0,0,.89165-3.10384,5.394,5.394,0,0,0-.90293-3.03612,5.04983,5.04983,0,0,0-2.37585-1.95259,14.39986,14.39986,0,0,0-4.88431-.58691Z" transform="translate(-7.31828 -10.0674)"/><path class="ae1ef2bf-effe-4448-84a6-d6d8d4c613ce" d="M782.984,105.73047l2.82167-1.693q2.97969,5.48534,6.88488,5.48533a6.594,6.594,0,0,0,3.13769-.77878,5.5043,5.5043,0,0,0,2.23477-2.088,5.40812,5.40812,0,0,0,.76749-2.77652,5.62284,5.62284,0,0,0-1.12867-3.27314,27.0215,27.0215,0,0,0-5.68848-5.32731,29.037,29.037,0,0,1-5.1693-4.53724,8.29943,8.29943,0,0,1-1.76072-5.079,7.7141,7.7141,0,0,1,1.03837-3.95034A7.41786,7.41786,0,0,1,789.045,78.902a8.40983,8.40983,0,0,1,4.09706-1.02709,8.7228,8.7228,0,0,1,4.39052,1.16253,15.06938,15.06938,0,0,1,4.3228,4.27765l-2.7088,2.05418a13.00964,13.00964,0,0,0-3.19413-3.27314,5.49537,5.49537,0,0,0-2.87811-.79007,4.55536,4.55536,0,0,0-3.28442,1.219,3.99414,3.99414,0,0,0-1.27539,3.00226,5.10175,5.10175,0,0,0,.45146,2.09932,7.75879,7.75879,0,0,0,1.64786,2.21219q.656.63064,4.28894,3.31828A24.12491,24.12491,0,0,1,800.817,98.823a9.12524,9.12524,0,0,1,1.6027,4.98871,8.46631,8.46631,0,0,1-2.74266,6.27539,9.2219,9.2219,0,0,1-6.67043,2.66366,9.78862,9.78862,0,0,1-5.48532-1.614A14.77768,14.77768,0,0,1,782.984,105.73047Z" transform="translate(-7.31828 -10.0674)"/><path class="ae1ef2bf-effe-4448-84a6-d6d8d4c613ce" d="M818.94337,81.96072V78.71016H837.1375v3.25056h-7.40406v29.95485h-3.386V81.96072Z" transform="translate(-7.31828 -10.0674)"/><path class="ae1ef2bf-effe-4448-84a6-d6d8d4c613ce" d="M854.835,78.71016h3.31829V98.7553a41.45648,41.45648,0,0,0,.13544,4.447,7.396,7.396,0,0,0,1.15124,3.28442,6.783,6.783,0,0,0,2.77652,2.21219,8.68969,8.68969,0,0,0,3.76975.89165,7.45537,7.45537,0,0,0,3.16027-.69977,7.03779,7.03779,0,0,0,2.52822-1.94131,7.91767,7.91767,0,0,0,1.48984-3.00226,24.85569,24.85569,0,0,0,.3386-5.19187V78.71016h3.31828V98.7553a24.43779,24.43779,0,0,1-.86907,7.18961,9.77156,9.77156,0,0,1-3.4763,4.77427,9.95243,9.95243,0,0,1-6.30925,2.0316A12.09662,12.09662,0,0,1,859.282,110.832a9.23482,9.23482,0,0,1-3.83747-5.079,26.9096,26.9096,0,0,1-.60948-6.99774Z" transform="translate(-7.31828 -10.0674)"/><path class="ae1ef2bf-effe-4448-84a6-d6d8d4c613ce" d="M895.2639,78.71016h3.61173l11.00452,25.65462,11.18509-25.65462H924.677L910.23,111.91557h-.72235Z" transform="translate(-7.31828 -10.0674)"/><path class="ae1ef2bf-effe-4448-84a6-d6d8d4c613ce" d="M941.17811,78.71016h3.40857l6.7833,23.92776,9.52031-23.92776h.68849l9.40745,23.92776,6.899-23.92776h3.38318l-9.54007,33.20541h-.61794l-9.85327-25.12415L951.212,111.91557h-.62076Z" transform="translate(-7.31828 -10.0674)"/><path class="ae1ef2bf-effe-4448-84a6-d6d8d4c613ce" d="M998.48058,78.71016h3.88261l7.94865,12.92042,7.99661-12.92042h3.829l-9.90406,16.044,10.55869,17.1614h-3.87979l-8.623-14.01242-8.64841,14.01242h-3.88262l10.60665-17.13883Z" transform="translate(-7.31828 -10.0674)"/><path class="ae1ef2bf-effe-4448-84a6-d6d8d4c613ce" d="M1038.55957,78.71016h3.81772l8.49605,13.69356,8.36343-13.69356h3.83747l-10.51919,17.33633v15.86908h-3.27313V96.04649Z" transform="translate(-7.31828 -10.0674)"/><path class="ae1ef2bf-effe-4448-84a6-d6d8d4c613ce" d="M1080.0494,81.91557V78.71016h17.51693L1083.695,108.665h13.17156v3.25057h-18.307l13.99266-30Z" transform="translate(-7.31828 -10.0674)"/><path class="ae1ef2bf-effe-4448-84a6-d6d8d4c613ce" d="M125.6704,162.49964a28.82729,28.82729,0,0,1,1.41083-10.158,11.77354,11.77354,0,0,1,3.9842-5.44018,9.63042,9.63042,0,0,1,5.75621-1.851,9.85217,9.85217,0,0,1,5.8465,1.86231,12.36107,12.36107,0,0,1,4.14221,5.5869,26.95306,26.95306,0,0,1,1.5237,10,27.04865,27.04865,0,0,1-1.50113,9.95485,12.31476,12.31476,0,0,1-4.14221,5.58691,9.87562,9.87562,0,0,1-5.86907,1.88487,9.60686,9.60686,0,0,1-5.73363-1.82844,11.83152,11.83152,0,0,1-3.9842-5.45147A28.49823,28.49823,0,0,1,125.6704,162.49964Zm3.1377.05643a27.33948,27.33948,0,0,0,1.00451,8.50452,9.0407,9.0407,0,0,0,2.9684,4.37358,6.56117,6.56117,0,0,0,8.28442.03386,8.92427,8.92427,0,0,0,2.912-4.37358,25.97438,25.97438,0,0,0,1.24154-8.53838,25.57069,25.57069,0,0,0-1.1061-8.21106,9.611,9.611,0,0,0-3.05869-4.67832,6.52564,6.52564,0,0,0-8.27313,0,9.10274,9.10274,0,0,0-2.95711,4.3623A27.12493,27.12493,0,0,0,128.8081,162.55607Z" transform="translate(-7.31828 -10.0674)"/><path class="ae1ef2bf-effe-4448-84a6-d6d8d4c613ce" d="M171.17829,145.88565h6.5237v33.20541h-3.29571V149.13621h-5.21445Z" transform="translate(-7.31828 -10.0674)"/><path class="ae1ef2bf-effe-4448-84a6-d6d8d4c613ce" d="M206.39273,156.26939h-3.18285a11.40115,11.40115,0,0,1,3.28443-8.06433,10.56032,10.56032,0,0,1,7.77652-3.15463,9.89425,9.89425,0,0,1,10.2483,9.93792,10.8795,10.8795,0,0,1-1.35157,5.29346,37.9781,37.9781,0,0,1-5.24549,6.69582l-8.27031,8.908H224.9706v3.20542H202.41982l12.68622-13.7105a40.95871,40.95871,0,0,0,5.02258-6.13431,8.243,8.243,0,0,0,1.16252-4.21275,6.4803,6.4803,0,0,0-2.088-4.82223,7.06585,7.06585,0,0,0-5.11287-2.02314,7.16486,7.16486,0,0,0-5.29345,2.1219A9.10813,9.10813,0,0,0,206.39273,156.26939Z" transform="translate(-7.31828 -10.0674)"/><path class="ae1ef2bf-effe-4448-84a6-d6d8d4c613ce" d="M245.58008,153.58316h-3.386a11.18792,11.18792,0,0,1,3.544-6.32054,9.27545,9.27545,0,0,1,6.1851-2.21219,10.22558,10.22558,0,0,1,4.842,1.1851,8.76344,8.76344,0,0,1,3.47629,3.19413,7.92,7.92,0,0,1,1.23025,4.19865q0,4.28753-4.26636,6.79458a9.67241,9.67241,0,0,1,3.92776,2.84424,9.09,9.09,0,0,1,2.167,5.91422,10.54748,10.54748,0,0,1-1.48984,5.38375,10.346,10.346,0,0,1-4.0632,3.96162,11.839,11.839,0,0,1-5.75621,1.39955,10.57046,10.57046,0,0,1-7.15575-2.47178,12.1016,12.1016,0,0,1-3.74718-7.25734h3.25056a9.41413,9.41413,0,0,0,2.4605,4.67269,7.58083,7.58083,0,0,0,5.237,1.82844,7.88737,7.88737,0,0,0,5.80135-2.167,6.92408,6.92408,0,0,0,2.18962-5.079,6.56173,6.56173,0,0,0-1.09481-3.63431,6.90094,6.90094,0,0,0-2.93454-2.55079,16.27272,16.27272,0,0,0-5.69977-1.06094v-3.04741a10.47321,10.47321,0,0,0,4.1535-.80135,6.05019,6.05019,0,0,0,2.72009-2.04289,4.70577,4.70577,0,0,0,.8465-2.7088,4.91535,4.91535,0,0,0-1.72686-3.74718,6.22581,6.22581,0,0,0-4.36795-1.58014,5.86692,5.86692,0,0,0-3.702,1.20768A9.1018,9.1018,0,0,0,245.58008,153.58316Z" transform="translate(-7.31828 -10.0674)"/><path class="ae1ef2bf-effe-4448-84a6-d6d8d4c613ce" d="M297.57216,145.05043h.67156V168.2107h4.01806V171.371h-4.01806v7.72009H294.948V171.371H279.05637ZM294.948,168.2107V154.26319l-9.83634,13.94751Z" transform="translate(-7.31828 -10.0674)"/><path class="ae1ef2bf-effe-4448-84a6-d6d8d4c613ce" d="M339.03378,145.88565v3.16027H327.23356l-1.662,9.05474a14.03188,14.03188,0,0,1,3.90237-.63488,9.96484,9.96484,0,0,1,7.47461,3.03612,10.71248,10.71248,0,0,1,2.943,7.77652,12.19779,12.19779,0,0,1-1.51242,6.00451,10.54663,10.54663,0,0,1-4.09706,4.18736,11.95938,11.95938,0,0,1-5.97065,1.456,9.88215,9.88215,0,0,1-6.81716-2.47178,10.11821,10.11821,0,0,1-3.31828-6.39955h3.40857a7.50458,7.50458,0,0,0,1.298,3.11513,6.59046,6.59046,0,0,0,2.43793,1.93,7.28438,7.28438,0,0,0,3.19413.73363,7.47329,7.47329,0,0,0,5.62076-2.48025,8.655,8.655,0,0,0,2.34763-6.1992A7.33394,7.33394,0,0,0,334.3611,162.7a7.71317,7.71317,0,0,0-5.66592-2.0965,18.79459,18.79459,0,0,0-7.11061,1.78329l3.07-16.50112Z" transform="translate(-7.31828 -10.0674)"/><path class="ae1ef2bf-effe-4448-84a6-d6d8d4c613ce" d="M371.69743,145.05043l2.73138,1.7833-8.97856,13.58916a10.61537,10.61537,0,0,1,3.38883-.60948,8.97629,8.97629,0,0,1,6.71275,2.85553,9.72953,9.72953,0,0,1,2.75959,7.0316,10.22,10.22,0,0,1-1.33182,5.18059,9.75578,9.75578,0,0,1-3.78669,3.67945,10.66069,10.66069,0,0,1-5.27652,1.36569,10.14274,10.14274,0,0,1-5.07336-1.32054,9.48775,9.48775,0,0,1-3.67381-3.71332,10.39074,10.39074,0,0,1-1.33183-5.12415,12.40344,12.40344,0,0,1,.82393-4.27765,26.73451,26.73451,0,0,1,2.95146-5.40632Zm-3.6456,17.67494a6.97972,6.97972,0,1,0,4.94075,2.04289A6.73144,6.73144,0,0,0,368.05183,162.72537Z" transform="translate(-7.31828 -10.0674)"/><path class="ae1ef2bf-effe-4448-84a6-d6d8d4c613ce" d="M396.4604,145.88565h21.06095l-17.76524,34.04062-2.7483-1.408,15.32731-29.47234H396.4604Z" transform="translate(-7.31828 -10.0674)"/><path class="ae1ef2bf-effe-4448-84a6-d6d8d4c613ce" d="M449.32721,160.87436a12.2189,12.2189,0,0,1,4.81941,3.81489,8.48118,8.48118,0,0,1,1.456,4.87585,10.11782,10.11782,0,0,1-2.50564,6.772q-3.06857,3.58916-8.781,3.58916-5.50648,0-8.35214-3.149a10.13368,10.13368,0,0,1-2.84424-6.94131,8.7779,8.7779,0,0,1,1.48984-5,12.57845,12.57845,0,0,1,4.96614-3.96162,9.37077,9.37077,0,0,1-3.65689-3.1377,7.23478,7.23478,0,0,1-1.219-4.01806,7.855,7.855,0,0,1,1.298-4.2325,9.06246,9.06246,0,0,1,3.58916-3.25057,10.62653,10.62653,0,0,1,4.95486-1.1851,9.942,9.942,0,0,1,4.80812,1.19639,8.97017,8.97017,0,0,1,3.465,3.25056,8.15624,8.15624,0,0,1,1.25282,4.31152,7.03018,7.03018,0,0,1-1.1851,4.01805A9.796,9.796,0,0,1,449.32721,160.87436Zm-4.79684,1.67043a7.98715,7.98715,0,0,0-5.74774,2.22347,6.954,6.954,0,0,0-2.32224,5.18059,6.50626,6.50626,0,0,0,.99323,3.45372,6.57553,6.57553,0,0,0,2.77088,2.50564,9.19788,9.19788,0,0,0,4.12528.88036,7.78945,7.78945,0,0,0,5.77032-2.14446,6.87364,6.87364,0,0,0,2.14164-5.01129,6.63911,6.63911,0,0,0-2.2658-4.93228A7.64618,7.64618,0,0,0,444.53037,162.54479Zm-.158-14.26637a6.54131,6.54131,0,0,0-4.53443,1.614,4.99988,4.99988,0,0,0-1.7974,3.84876,5.37028,5.37028,0,0,0,1.93284,4.00677,6.42525,6.42525,0,0,0,4.51185,1.79458,6.35159,6.35159,0,0,0,3.12077-.81264,5.95982,5.95982,0,0,0,2.29684-2.22348,5.58721,5.58721,0,0,0,.82393-2.83295,5.24272,5.24272,0,0,0-1.62811-3.702A6.25725,6.25725,0,0,0,444.37236,148.27842Z" transform="translate(-7.31828 -10.0674)"/><path class="ae1ef2bf-effe-4448-84a6-d6d8d4c613ce" d="M478.85316,179.92627l-2.73138-1.76072,8.9842-13.59763a10.82753,10.82753,0,0,1-3.38883.59538,8.98416,8.98416,0,0,1-6.71839-2.85553,9.72956,9.72956,0,0,1-2.75959-7.03161,10.128,10.128,0,0,1,1.33182-5.16929,9.81935,9.81935,0,0,1,3.781-3.67946,10.554,10.554,0,0,1,5.24831-1.377,10.09075,10.09075,0,0,1,5.09029,1.33183,9.55911,9.55911,0,0,1,3.66817,3.72461,10.31568,10.31568,0,0,1,1.33183,5.10157,12.46253,12.46253,0,0,1-.82393,4.30023,26.81,26.81,0,0,1-2.94582,5.40632Zm3.62867-17.67494a6.98451,6.98451,0,1,0-4.94357-2.04289A6.71434,6.71434,0,0,0,482.48183,162.25133Z" transform="translate(-7.31828 -10.0674)"/><path class="ae1ef2bf-effe-4448-84a6-d6d8d4c613ce" d="M509.869,162.49964a28.827,28.827,0,0,1,1.41084-10.158,11.77341,11.77341,0,0,1,3.9842-5.44018,9.63039,9.63039,0,0,1,5.7562-1.851,9.85215,9.85215,0,0,1,5.8465,1.86231,12.361,12.361,0,0,1,4.14221,5.5869,26.953,26.953,0,0,1,1.52371,10,27.04886,27.04886,0,0,1-1.50113,9.95485,12.31483,12.31483,0,0,1-4.14221,5.58691,9.87565,9.87565,0,0,1-5.86908,1.88487,9.6069,9.6069,0,0,1-5.73363-1.82844,11.83159,11.83159,0,0,1-3.9842-5.45147A28.49846,28.49846,0,0,1,509.869,162.49964Zm3.1377.05643a27.33913,27.33913,0,0,0,1.00452,8.50452,9.04069,9.04069,0,0,0,2.96839,4.37358,6.56117,6.56117,0,0,0,8.28442.03386,8.92428,8.92428,0,0,0,2.912-4.37358,25.97439,25.97439,0,0,0,1.24153-8.53838,25.571,25.571,0,0,0-1.10609-8.21106,9.61106,9.61106,0,0,0-3.05869-4.67832,6.52565,6.52565,0,0,0-8.27314,0,9.10281,9.10281,0,0,0-2.95711,4.3623A27.12493,27.12493,0,0,0,513.00665,162.55607Z" transform="translate(-7.31828 -10.0674)"/><path class="ae1ef2bf-effe-4448-84a6-d6d8d4c613ce" d="M553.6387,174.12492a2.6756,2.6756,0,0,1,1.96388.81264,2.82042,2.82042,0,0,1,0,3.96162,2.75248,2.75248,0,0,1-3.92777,0,2.82042,2.82042,0,0,1,0-3.96162A2.67561,2.67561,0,0,1,553.6387,174.12492Zm1.6027-29.07449v25.73363h-3.27313V145.05043Z" transform="translate(-7.31828 -10.0674)"/><path class="ae1ef2bf-effe-4448-84a6-d6d8d4c613ce" d="M605.85087,172.31905h2.39278a22.0596,22.0596,0,0,1-5.59819,5.28217,16.29982,16.29982,0,0,1-8.32957,2.12189,18.36754,18.36754,0,0,1-9.11964-2.33634,16.91625,16.91625,0,0,1-6.51241-6.38262,17.33631,17.33631,0,0,1-2.33635-8.83182,18.086,18.086,0,0,1,2.35892-9.035,16.87323,16.87323,0,0,1,6.42212-6.49548,17.68432,17.68432,0,0,1,8.8939-2.31377,16.26062,16.26062,0,0,1,11.51242,4.37076,13.51421,13.51421,0,0,1,4.69525,10.17777,12.88153,12.88153,0,0,1-7.24887,12.04288,9.95778,9.95778,0,0,1-4.35665,1.30926,2.9643,2.9643,0,0,1-2.07675-.69978,2.3759,2.3759,0,0,1-.60948-1.80587,6.00612,6.00612,0,0,1-2.11061,1.62529,6.27709,6.27709,0,0,1-2.78781.65462,7.06462,7.06462,0,0,1-5.36964-2.24887,8.31483,8.31483,0,0,1-2.1219-5.95654,11.60843,11.60843,0,0,1,2.57055-7.29966,8.48832,8.48832,0,0,1,7.08239-3.29853,6.77692,6.77692,0,0,1,3.32675.74492,7.56,7.56,0,0,1,2.53668,2.59311l.59537-3.1123h2.44357l-2.61851,14.763a7.88252,7.88252,0,0,0-.11287.92832,1.076,1.076,0,0,0,.316.82675,1.13332,1.13332,0,0,0,.81264.2991,6.56731,6.56731,0,0,0,3.465-1.54627,10.54845,10.54845,0,0,0,3.31828-3.97856,12.12169,12.12169,0,0,0,1.1851-5.38939,11.94668,11.94668,0,0,0-4.447-9.51185,15.1654,15.1654,0,0,0-10.11286-3.50169,16.129,16.129,0,0,0-8.02483,2.02032,14.76769,14.76769,0,0,0-5.68849,5.69413,16.14611,16.14611,0,0,0,.01129,15.90293,15.09768,15.09768,0,0,0,5.81264,5.728,16.49522,16.49522,0,0,0,8.18284,2.07675,14.58268,14.58268,0,0,0,5.93679-1.17382A19.55256,19.55256,0,0,0,605.85087,172.31905Zm-13.68227-2.86682a4.71125,4.71125,0,0,0,2.79909-.93961,6.29123,6.29123,0,0,0,2.07675-2.81885,13.19577,13.19577,0,0,0,.99041-4.95485,5.33593,5.33593,0,0,0-1.27258-3.702,4.23861,4.23861,0,0,0-3.307-1.42213,6.06065,6.06065,0,0,0-4.68115,2.2263,8.0592,8.0592,0,0,0-1.97517,5.55023,6.28552,6.28552,0,0,0,1.50113,4.42155A5.00885,5.00885,0,0,0,592.1686,169.45223Z" transform="translate(-7.31828 -10.0674)"/><path class="ae1ef2bf-effe-4448-84a6-d6d8d4c613ce" d="M653.97727,165.5019v2.43792h-5.5869l-1.63657,11.15124h-2.52822l1.63657-11.15124h-7.57054l-1.67325,11.15124h-2.48307l1.69582-11.15124h-5.53329V165.5019h5.90293l1.1456-7.53951h-5.67156V155.5019h6.04684l1.60553-10.56433h2.41535l-1.58578,10.56433h7.531l1.5491-10.56433h2.52821L650.216,155.5019h5.048v2.46049h-5.40914l-1.10609,7.53951Zm-6.65067-7.53951h-7.53951l-1.13148,7.53951h7.56489Z" transform="translate(-7.31828 -10.0674)"/><path class="ae1ef2bf-effe-4448-84a6-d6d8d4c613ce" d="M684.24814,143.56059h2.95711v2.4605a10.04883,10.04883,0,0,1,3.76976,1.44469,11.80808,11.80808,0,0,1,3.00225,3.07l-2.41535,1.96388a6.88876,6.88876,0,0,0-4.35666-3.25056v11.2641q5.90011,3.11935,7.342,5.06208a9.00789,9.00789,0,0,1,1.84537,5.49379,8.10962,8.10962,0,0,1-1.36286,4.55418,9.24049,9.24049,0,0,1-3.68228,3.21952,13.42673,13.42673,0,0,1-4.14222,1.08352v7.06546h-2.95711v-7.06546a16.048,16.048,0,0,1-4.45823-.88318,11.94386,11.94386,0,0,1-3.2675-1.98363,12.25509,12.25509,0,0,1-2.658-3.07l2.41535-1.82844a11.05309,11.05309,0,0,0,7.96839,4.62753v-13.9729q-3.5553-1.73957-4.50338-2.37021a9.10644,9.10644,0,0,1-2.85271-2.912,7.6587,7.6587,0,0,1,.0903-7.47178,8.06882,8.06882,0,0,1,2.7737-2.82167,10.432,10.432,0,0,1,4.49209-1.3544Zm0,5.46275a6.30924,6.30924,0,0,0-2.74266.75621,4.57371,4.57371,0,0,0-2.24605,3.9842,4.11484,4.11484,0,0,0,.95373,2.754,10.98011,10.98011,0,0,0,4.035,2.77652Zm2.95711,27.67494a7.4986,7.4986,0,0,0,4.351-1.98645,4.93286,4.93286,0,0,0,1.63092-3.58917A5.82973,5.82973,0,0,0,691.94,167.5335a14.84866,14.84866,0,0,0-4.73477-3.52145Z" transform="translate(-7.31828 -10.0674)"/><path class="ae1ef2bf-effe-4448-84a6-d6d8d4c613ce" d="M741.85535,144.41838,717.61157,181.371h-2.98251l22.05982-33.66252a41.21762,41.21762,0,0,1-9.57393.95372l-1.219-.02257a6.905,6.905,0,0,1,1.39955,4.10835,8.12155,8.12155,0,0,1-2.15294,5.53047,7.24737,7.24737,0,0,1-5.71388,2.43792,7.41016,7.41016,0,0,1-5.49943-2.26862,7.57912,7.57912,0,0,1-2.23194-5.51918,7.781,7.781,0,0,1,1.0158-3.93906,7.68078,7.68078,0,0,1,2.89221-2.85553,7.59,7.59,0,0,1,3.84029-1.08352,15.29013,15.29013,0,0,1,2.75677.40632,30.32347,30.32347,0,0,0,6.36851.63206,33.33268,33.33268,0,0,0,4.77991-.32732,47.62432,47.62432,0,0,0,5.838-1.34311Zm-22.37019,3.49887a4.74686,4.74686,0,0,0-3.49887,1.456,4.95614,4.95614,0,0,0,7.009,7.009,4.9605,4.9605,0,0,0-3.51015-8.465ZM737.668,164.41837a7.8227,7.8227,0,1,1-5.51072,2.294A7.4965,7.4965,0,0,1,737.668,164.41837Zm-.01129,2.86682a4.95659,4.95659,0,1,0,3.51016,1.44752A4.76073,4.76073,0,0,0,737.65671,167.28519Z" transform="translate(-7.31828 -10.0674)"/><path class="ae1ef2bf-effe-4448-84a6-d6d8d4c613ce" d="M773.48063,145.88565h2.66366l11.51241,24.96613h-3.00226l-9.9097-21.48984-9.842,21.48984h-2.912Z" transform="translate(-7.31828 -10.0674)"/><path class="ae1ef2bf-effe-4448-84a6-d6d8d4c613ce" d="M832.3068,166.81115l2.24887,2.38149a50.82043,50.82043,0,0,1-4.114,3.31264q1.35862,1.24859,3.53555,3.42551,1.7184,1.70992,2.95711,3.16027H832.3068l-4.40463-4.53725a28.52954,28.52954,0,0,1-6.74661,4.35666,14.91065,14.91065,0,0,1-5.48532,1.0158,8.59283,8.59283,0,0,1-6.16253-2.2009,7.264,7.264,0,0,1-2.32506-5.49944,9.29311,9.29311,0,0,1,1.56885-4.98024q1.566-2.493,6.3939-6.30926a29.87285,29.87285,0,0,1-3.50451-4.86455,6.71722,6.71722,0,0,1-.77878-2.98815,5.15441,5.15441,0,0,1,1.91874-4.10553,8.1666,8.1666,0,0,1,5.5079-1.89616,8.5544,8.5544,0,0,1,3.79232.83521,6.27362,6.27362,0,0,1,2.61851,2.246,5.46442,5.46442,0,0,1,.90293,2.991,6.76894,6.76894,0,0,1-1.17663,3.5553,23.66247,23.66247,0,0,1-4.63319,4.81941l5.03386,5.28217,3.29854,3.3465A52.5976,52.5976,0,0,0,832.3068,166.81115ZM817.335,163.44208a26.8134,26.8134,0,0,0-5.54458,5.07054,6.23134,6.23134,0,0,0-1.31208,3.48758,4.4196,4.4196,0,0,0,1.60553,3.355,5.64273,5.64273,0,0,0,3.93623,1.456,8.74429,8.74429,0,0,0,3.45937-.72235,27.98184,27.98184,0,0,0,6.11738-3.91083l-5.237-5.395Q819.00546,165.36081,817.335,163.44208Zm.4035-4.39616a16.65979,16.65979,0,0,0,3.64278-3.67946,4.28493,4.28493,0,0,0,.85778-2.27991,2.42964,2.42964,0,0,0-1.1202-1.98646,4.87454,4.87454,0,0,0-2.97686-.83521,4.56223,4.56223,0,0,0-2.87528.85779,2.51822,2.51822,0,0,0-1.10892,2.0316,3.35555,3.35555,0,0,0,.45429,1.693A26.63024,26.63024,0,0,0,817.73852,159.04592Z" transform="translate(-7.31828 -10.0674)"/><path class="ae1ef2bf-effe-4448-84a6-d6d8d4c613ce" d="M859.25939,145.05043h2.93454l-.65463,6.70429,5.553-3.97291,1.48984,2.52822-6.25282,2.82167,6.25282,2.77652-1.48984,2.55079-5.553-3.92777.65463,6.70429h-2.93454l.69977-6.70429-5.553,3.92777-1.48984-2.55079,6.34311-2.77652L852.91628,150.31l1.48984-2.52822,5.553,3.97291Z" transform="translate(-7.31828 -10.0674)"/><path class="ae1ef2bf-effe-4448-84a6-d6d8d4c613ce" d="M893.97721,144.41838h3.65689a47.45045,47.45045,0,0,0-3.544,10.5869,57.82856,57.82856,0,0,0-1.33183,12.48307,64.28447,64.28447,0,0,0,1.00452,11.48984,46.79323,46.79323,0,0,0,2.76523,9.72912h-3.47629a46.49959,46.49959,0,0,1-2.66366-9.45824,62.90354,62.90354,0,0,1-.99323-11.33182,64.44873,64.44873,0,0,1,1.17382-12.35892A53.31474,53.31474,0,0,1,893.97721,144.41838Z" transform="translate(-7.31828 -10.0674)"/><path class="ae1ef2bf-effe-4448-84a6-d6d8d4c613ce" d="M919.68827,188.70731h-3.65688a46.32151,46.32151,0,0,0,3.5553-10.58691,58.3624,58.3624,0,0,0,1.32054-12.48306,64.28532,64.28532,0,0,0-1.00451-11.48984,46.79365,46.79365,0,0,0-2.76524-9.72912h3.4763a45.03584,45.03584,0,0,1,2.67494,9.46952,65.69577,65.69577,0,0,1-.19187,23.67946A53.31534,53.31534,0,0,1,919.68827,188.70731Z" transform="translate(-7.31828 -10.0674)"/><path class="ae1ef2bf-effe-4448-84a6-d6d8d4c613ce" d="M950.09458,174.12492a2.67559,2.67559,0,0,1,1.96388.81264,2.82039,2.82039,0,0,1,0,3.96162,2.75247,2.75247,0,0,1-3.92776,0,2.82042,2.82042,0,0,1,0-3.96162A2.6756,2.6756,0,0,1,950.09458,174.12492Z" transform="translate(-7.31828 -10.0674)"/><path class="ae1ef2bf-effe-4448-84a6-d6d8d4c613ce" d="M975.35417,172.99625l3.0474,1.4447-4.58239,8.53272-2.23476-.94808Z" transform="translate(-7.31828 -10.0674)"/><path class="ae1ef2bf-effe-4448-84a6-d6d8d4c613ce" d="M95.43339,221.70674v24.55981H92.31826v-4.22122A13.52437,13.52437,0,0,1,87.86,245.67964a12.45413,12.45413,0,0,1-14.31151-2.56207,12.67611,12.67611,0,0,1-3.69075-9.19865,12.4489,12.4489,0,0,1,3.72461-9.07449,12.14242,12.14242,0,0,1,8.96162-3.76975,11.58848,11.58848,0,0,1,5.474,1.28668,12.44026,12.44026,0,0,1,4.30022,3.86005v-4.51467Zm-12.6298,2.41534A9.54117,9.54117,0,0,0,74.38091,229.06a9.95865,9.95865,0,0,0,.01129,9.921,9.69506,9.69506,0,0,0,3.57505,3.6851,9.33221,9.33221,0,0,0,4.81377,1.32054,9.83894,9.83894,0,0,0,4.91535-1.30925A9.10843,9.10843,0,0,0,91.2686,239.139a10.08853,10.08853,0,0,0,1.25282-5.02821,9.7772,9.7772,0,0,0-2.80756-7.12472A9.28967,9.28967,0,0,0,82.80359,224.12208Z" transform="translate(-7.31828 -10.0674)"/><path class="ae1ef2bf-effe-4448-84a6-d6d8d4c613ce" d="M115.54625,246.26655V212.22593h3.16027v13.702a13.34436,13.34436,0,0,1,4.44131-3.64559,12.45131,12.45131,0,0,1,14.28611,2.57336,12.65612,12.65612,0,0,1,3.68792,9.17607,12.481,12.481,0,0,1-3.72178,9.09706,12.12383,12.12383,0,0,1-8.95316,3.76975,11.46139,11.46139,0,0,1-5.43453-1.28668,12.68474,12.68474,0,0,1-4.30587-3.86v4.51467Zm12.64108-2.41535a9.514,9.514,0,0,0,8.4114-4.94357,10.02225,10.02225,0,0,0-.01129-9.95485A9.67632,9.67632,0,0,0,133.018,225.262a9.27713,9.27713,0,0,0-4.78555-1.32054,9.83676,9.83676,0,0,0-4.921,1.32054,9.19013,9.19013,0,0,0-3.58069,3.5553,10.14563,10.14563,0,0,0-1.25,5.03386,9.79,9.79,0,0,0,2.80474,7.13318A9.27785,9.27785,0,0,0,128.18733,243.8512Z" transform="translate(-7.31828 -10.0674)"/><path class="ae1ef2bf-effe-4448-84a6-d6d8d4c613ce" d="M183.51463,226.80831l-2.50564,1.55757a10.493,10.493,0,0,0-8.86005-4.31152,10.24965,10.24965,0,0,0-7.452,2.88657,9.41409,9.41409,0,0,0-2.96557,7.01185,9.95928,9.95928,0,0,0,1.36287,5.05079,9.56358,9.56358,0,0,0,3.74435,3.67382,11.31454,11.31454,0,0,0,14.17043-3.00226l2.50564,1.64785a11.86228,11.86228,0,0,1-4.72912,4.114,15.11722,15.11722,0,0,1-6.76072,1.46162,13.35336,13.35336,0,0,1-9.6614-3.702,12.04338,12.04338,0,0,1-3.83747-9.00677,12.86485,12.86485,0,0,1,1.79458-6.62528,12.63613,12.63613,0,0,1,4.93228-4.77426,14.40064,14.40064,0,0,1,7.02032-1.71558,14.98972,14.98972,0,0,1,4.70654.74492,13.05347,13.05347,0,0,1,3.84876,1.94131A10.58312,10.58312,0,0,1,183.51463,226.80831Z" transform="translate(-7.31828 -10.0674)"/><path class="ae1ef2bf-effe-4448-84a6-d6d8d4c613ce" d="M226.90062,212.22593v34.04062H223.7855v-4.22122a13.5243,13.5243,0,0,1-4.45824,3.63431,12.45413,12.45413,0,0,1-14.31151-2.56207,12.67614,12.67614,0,0,1-3.69074-9.19865,12.44889,12.44889,0,0,1,3.7246-9.07449,12.14244,12.14244,0,0,1,8.96163-3.76975,11.58848,11.58848,0,0,1,5.474,1.28668,12.44034,12.44034,0,0,1,4.30022,3.86005V212.22593Zm-12.62979,11.89615a9.54117,9.54117,0,0,0-8.42268,4.93793,9.95868,9.95868,0,0,0,.01128,9.921,9.69509,9.69509,0,0,0,3.57506,3.6851,9.33215,9.33215,0,0,0,4.81377,1.32054,9.83894,9.83894,0,0,0,4.91535-1.30925,9.1085,9.1085,0,0,0,3.57223-3.53838,10.08864,10.08864,0,0,0,1.25282-5.02821,9.7772,9.7772,0,0,0-2.80756-7.12472A9.28969,9.28969,0,0,0,214.27083,224.12208Z" transform="translate(-7.31828 -10.0674)"/><path class="ae1ef2bf-effe-4448-84a6-d6d8d4c613ce" d="M267.53267,238.11757l2.66365,1.39955a14.5194,14.5194,0,0,1-3.02765,4.15349,12.067,12.067,0,0,1-3.86286,2.40407,13.46694,13.46694,0,0,1-4.85892.82392q-6.01015,0-9.399-3.939a13.28843,13.28843,0,0,1-3.38883-8.90519,13.12956,13.12956,0,0,1,2.86964-8.32957,11.72736,11.72736,0,0,1,9.73759-4.65011,12.11719,12.11719,0,0,1,10.031,4.763A13.30546,13.30546,0,0,1,271.009,234.235H248.90965a9.98763,9.98763,0,0,0,2.7342,7.01467,8.72169,8.72169,0,0,0,6.53216,2.737,10.5232,10.5232,0,0,0,3.65124-.65181,9.60723,9.60723,0,0,0,3.01637-1.7325A14.83165,14.83165,0,0,0,267.53267,238.11757Zm0-6.614a10.49,10.49,0,0,0-1.84255-4.04063,8.73627,8.73627,0,0,0-3.19695-2.43792,9.78394,9.78394,0,0,0-4.18172-.92551,9.01273,9.01273,0,0,0-6.21614,2.32506,10.528,10.528,0,0,0-2.86963,5.079Z" transform="translate(-7.31828 -10.0674)"/><path class="ae1ef2bf-effe-4448-84a6-d6d8d4c613ce" d="M299.81257,212.22593v3.09255a7.82588,7.82588,0,0,0-2.97968-.74493,2.89709,2.89709,0,0,0-1.535.37246,1.63968,1.63968,0,0,0-.7675.85779,11.945,11.945,0,0,0-.158,2.58465l-.00282,3.31829h5.127v2.73137h-5.12979l-.01693,21.82844h-3.16027V224.43811h-3.228v-2.73137h3.228v-3.83748a10.399,10.399,0,0,1,.48533-3.76975,3.87062,3.87062,0,0,1,1.64785-1.81715,5.41727,5.41727,0,0,1,2.81038-.68849A13.38963,13.38963,0,0,1,299.81257,212.22593Z" transform="translate(-7.31828 -10.0674)"/><path class="ae1ef2bf-effe-4448-84a6-d6d8d4c613ce" d="M338.18728,221.70674h3.16027v19.5711a23.13178,23.13178,0,0,1-.90293,7.56207,9.831,9.831,0,0,1-4.31152,5.21445,14.16655,14.16655,0,0,1-7.38148,1.82844,16.90479,16.90479,0,0,1-5.6772-.89447,11.35568,11.35568,0,0,1-4.09707-2.39842,14.31939,14.31939,0,0,1-2.912-4.40463h3.43115a9.04721,9.04721,0,0,0,3.61738,3.61174,11.63393,11.63393,0,0,0,5.491,1.17382,11.36309,11.36309,0,0,0,5.45711-1.202,7.40534,7.40534,0,0,0,3.1772-3.02766,13.50116,13.50116,0,0,0,.94808-5.88318v-1.26411a11.97211,11.97211,0,0,1-4.3623,3.465,12.94388,12.94388,0,0,1-11.83973-.474,11.95,11.95,0,0,1-4.61061-4.526,12.38462,12.38462,0,0,1-1.62528-6.25282,12.77865,12.77865,0,0,1,12.69752-12.73138,11.76881,11.76881,0,0,1,5.14108,1.14,14.129,14.129,0,0,1,4.59932,3.75846Zm-9.3228,2.41534a9.978,9.978,0,0,0-4.98871,1.298,9.41115,9.41115,0,0,0-3.61174,3.58917,9.82893,9.82893,0,0,0-1.30925,4.95485,8.93572,8.93572,0,0,0,2.7088,6.68171,10.67034,10.67034,0,0,0,14.02934.02258,9.2418,9.2418,0,0,0,2.65237-6.88488,9.97415,9.97415,0,0,0-1.219-4.95485,8.88268,8.88268,0,0,0-3.45372-3.44244A9.59719,9.59719,0,0,0,328.86448,224.12208Z" transform="translate(-7.31828 -10.0674)"/><path class="ae1ef2bf-effe-4448-84a6-d6d8d4c613ce" d="M360.91865,212.22593h3.16027v13.88261a13.434,13.434,0,0,1,4.22122-3.781,10.2697,10.2697,0,0,1,4.98871-1.25282,8.69771,8.69771,0,0,1,4.88713,1.39955,8.35693,8.35693,0,0,1,3.149,3.75846,19.92176,19.92176,0,0,1,1.0158,7.39278v12.64108H379.1805V234.551a29.94922,29.94922,0,0,0-.3386-5.66592,6.43449,6.43449,0,0,0-2.13319-3.66817,6.3075,6.3075,0,0,0-4.05191-1.23025,7.79441,7.79441,0,0,0-5.13544,1.89617,8.89278,8.89278,0,0,0-2.991,4.69526,32.39065,32.39065,0,0,0-.45147,6.68171v9.00677h-3.16027Z" transform="translate(-7.31828 -10.0674)"/><path class="ae1ef2bf-effe-4448-84a6-d6d8d4c613ce" d="M403.00668,211.59387a2.60723,2.60723,0,0,1,0,5.21445,2.616,2.616,0,0,1-2.58465-2.59594,2.52209,2.52209,0,0,1,.76467-1.851A2.47848,2.47848,0,0,1,403.00668,211.59387Zm-1.56885,10.11287h3.16027v24.55981h-3.16027Z" transform="translate(-7.31828 -10.0674)"/><path class="ae1ef2bf-effe-4448-84a6-d6d8d4c613ce" d="M423.58229,221.70674h3.20542v28.26184a7.2615,7.2615,0,0,1-1.11738,4.50338,3.69142,3.69142,0,0,1-3.05869,1.41084,10.27837,10.27837,0,0,1-3.61174-.76749v-2.84425a5.04082,5.04082,0,0,0,2.27991.65463,2.08285,2.08285,0,0,0,1.91874-1.06095,6.65285,6.65285,0,0,0,.38374-2.82167Zm1.55756-10.11287a2.4906,2.4906,0,0,1,1.83973.7675,2.53636,2.53636,0,0,1,.75621,1.851,2.59594,2.59594,0,0,1-5.19187,0,2.53636,2.53636,0,0,1,.75621-1.851A2.49058,2.49058,0,0,1,425.13985,211.59387Z" transform="translate(-7.31828 -10.0674)"/><path class="ae1ef2bf-effe-4448-84a6-d6d8d4c613ce" d="M446.13308,212.22593h3.16027v19.39333l11.38544-9.91252h4.64164l-13.49887,11.71557,14.28894,12.84424h-4.447l-12.3702-11.05812v11.05812h-3.16027Z" transform="translate(-7.31828 -10.0674)"/><path class="ae1ef2bf-effe-4448-84a6-d6d8d4c613ce" d="M481.68612,212.22593h3.16027v34.04062h-3.16027Z" transform="translate(-7.31828 -10.0674)"/><path class="ae1ef2bf-effe-4448-84a6-d6d8d4c613ce" d="M504.19175,221.70674H507.352v4.24379a12.23669,12.23669,0,0,1,3.38883-3.43115,9.6263,9.6263,0,0,1,5.04232-1.4447,8.40622,8.40622,0,0,1,3.38883.69978,7.26,7.26,0,0,1,2.62133,1.8623,10.053,10.053,0,0,1,1.76354,3.32957,11.64288,11.64288,0,0,1,3.939-4.39052,9.31931,9.31931,0,0,1,5.0903-1.50113,7.9621,7.9621,0,0,1,4.4921,1.28668,7.67011,7.67011,0,0,1,2.895,3.58917,19.18332,19.18332,0,0,1,.94526,6.90744v13.40858h-3.228V232.858a17.51941,17.51941,0,0,0-.56151-5.42889,4.902,4.902,0,0,0-1.92438-2.38149,5.75731,5.75731,0,0,0-3.25057-.90293,7.06416,7.06416,0,0,0-4.19582,1.3544,7.7783,7.7783,0,0,0-2.77934,3.61174,22.90949,22.90949,0,0,0-.87754,7.5395v9.61625h-3.16027V233.69319a21.53191,21.53191,0,0,0-.553-6.03837,5.07069,5.07069,0,0,0-1.93-2.55079,5.57211,5.57211,0,0,0-3.27314-.95937,7.067,7.067,0,0,0-4.09706,1.32054,7.81249,7.81249,0,0,0-2.82167,3.5553,19.16437,19.16437,0,0,0-.91423,6.83973v10.40632h-3.16027Z" transform="translate(-7.31828 -10.0674)"/><path class="ae1ef2bf-effe-4448-84a6-d6d8d4c613ce" d="M560.37684,221.70674h3.16027v4.4018a13.221,13.221,0,0,1,4.19865-3.781,10.317,10.317,0,0,1,5.01128-1.25282,8.69771,8.69771,0,0,1,4.88713,1.39955,8.34175,8.34175,0,0,1,3.149,3.76975,19.93461,19.93461,0,0,1,1.0158,7.38149v12.64108h-3.16027V234.551a28.84954,28.84954,0,0,0-.35271-5.66592,6.21313,6.21313,0,0,0-2.105-3.66817,6.36513,6.36513,0,0,0-4.066-1.23025,7.79441,7.79441,0,0,0-5.13544,1.89617,8.89284,8.89284,0,0,0-2.991,4.69526,32.57892,32.57892,0,0,0-.45147,6.68171v9.00677h-3.16027Z" transform="translate(-7.31828 -10.0674)"/><path class="ae1ef2bf-effe-4448-84a6-d6d8d4c613ce" d="M612.99534,221.07468a12.16346,12.16346,0,0,1,9.40745,4.10835,13.18791,13.18791,0,0,1-.19188,17.86682,12.98444,12.98444,0,0,1-18.45372,0,13.15908,13.15908,0,0,1-.19187-17.84424A12.16266,12.16266,0,0,1,612.99534,221.07468Zm-.01129,3.09255a9.11142,9.11142,0,0,0-6.772,2.912,9.7231,9.7231,0,0,0-2.833,7.04289,9.9643,9.9643,0,0,0,1.29232,4.96614,9.14763,9.14763,0,0,0,3.48759,3.55531,9.91791,9.91791,0,0,0,9.65011,0,9.14761,9.14761,0,0,0,3.48758-3.55531,9.99373,9.99373,0,0,0,1.29233-4.96614,9.71048,9.71048,0,0,0-2.84425-7.04289A9.12266,9.12266,0,0,0,612.98405,224.16723Z" transform="translate(-7.31828 -10.0674)"/><path class="ae1ef2bf-effe-4448-84a6-d6d8d4c613ce" d="M644.48517,221.70674h3.16027v4.51467a12.68467,12.68467,0,0,1,4.30587-3.86005,11.46154,11.46154,0,0,1,5.43454-1.28668,12.12384,12.12384,0,0,1,8.95316,3.76975,12.45745,12.45745,0,0,1,3.72178,9.07449,12.685,12.685,0,0,1-3.68792,9.19865,12.41518,12.41518,0,0,1-14.28612,2.56207,13.5851,13.5851,0,0,1-4.44131-3.63431v13.20542h-3.16027Zm12.64109,2.41534a9.2754,9.2754,0,0,0-6.90181,2.864,9.77491,9.77491,0,0,0-2.80474,7.12472,10.11657,10.11657,0,0,0,1.25,5.02821,9.09378,9.09378,0,0,0,3.5807,3.53838,9.88263,9.88263,0,0,0,4.921,1.30925,9.27707,9.27707,0,0,0,4.78555-1.32054,9.66076,9.66076,0,0,0,3.56942-3.6851,9.95868,9.95868,0,0,0,.01128-9.921,9.52357,9.52357,0,0,0-8.41139-4.93793Z" transform="translate(-7.31828 -10.0674)"/><path class="ae1ef2bf-effe-4448-84a6-d6d8d4c613ce" d="M713.22105,221.70674v33.544h-3.11512V242.04533a13.5245,13.5245,0,0,1-4.45824,3.63431,12.45413,12.45413,0,0,1-14.31151-2.56207,12.6761,12.6761,0,0,1-3.69074-9.19865,12.44889,12.44889,0,0,1,3.7246-9.07449,12.14244,12.14244,0,0,1,8.96162-3.76975,11.58842,11.58842,0,0,1,5.474,1.28668,12.44028,12.44028,0,0,1,4.30023,3.86005v-4.51467Zm-12.62979,2.41534a9.54117,9.54117,0,0,0-8.42269,4.93793,9.95865,9.95865,0,0,0,.01129,9.921,9.69506,9.69506,0,0,0,3.57505,3.6851,9.33221,9.33221,0,0,0,4.81377,1.32054,9.83891,9.83891,0,0,0,4.91535-1.30925,9.10852,9.10852,0,0,0,3.57224-3.53838,10.08864,10.08864,0,0,0,1.25282-5.02821,9.77724,9.77724,0,0,0-2.80756-7.12472A9.28969,9.28969,0,0,0,700.59126,224.12208Z" transform="translate(-7.31828 -10.0674)"/><path class="ae1ef2bf-effe-4448-84a6-d6d8d4c613ce" d="M731.91179,221.70674h3.228v3.58916a11.31984,11.31984,0,0,1,3.0474-3.17156,6.01079,6.01079,0,0,1,3.34086-1.04966,5.77733,5.77733,0,0,1,2.7991.83522l-1.64786,2.66365a4.417,4.417,0,0,0-1.67043-.42889,4.56814,4.56814,0,0,0-3.0474,1.298,8.20106,8.20106,0,0,0-2.23476,4.02934,38.58475,38.58475,0,0,0-.58691,8.48758v8.307h-3.228Z" transform="translate(-7.31828 -10.0674)"/><path class="ae1ef2bf-effe-4448-84a6-d6d8d4c613ce" d="M772.16009,224.393l-2.0316,2.09932a7.30388,7.30388,0,0,0-4.95486-2.4605,3.746,3.746,0,0,0-2.63826,1.0158,3.14,3.14,0,0,0-1.09763,2.37021,3.50779,3.50779,0,0,0,.90576,2.2799,12.6692,12.6692,0,0,0,3.80079,2.59594,14.19041,14.19041,0,0,1,4.794,3.52144,6.41008,6.41008,0,0,1,1.24436,3.86005,6.92792,6.92792,0,0,1-2.12472,5.12415,7.25588,7.25588,0,0,1-5.3132,2.09932,9.26321,9.26321,0,0,1-4.05756-.9255,8.81419,8.81419,0,0,1-3.19977-2.55079l1.98645-2.25734a6.91244,6.91244,0,0,0,5.13544,2.73138,4.63228,4.63228,0,0,0,3.23645-1.219,3.77057,3.77057,0,0,0,1.33465-2.86682,3.668,3.668,0,0,0-.88318-2.41535,14.17253,14.17253,0,0,0-3.98137-2.61851,12.74026,12.74026,0,0,1-4.52314-3.386,6.383,6.383,0,0,1-1.19921-3.8149,6.20841,6.20841,0,0,1,1.91027-4.65011,6.65976,6.65976,0,0,1,4.82788-1.851Q768.72188,221.07468,772.16009,224.393Z" transform="translate(-7.31828 -10.0674)"/><path class="ae1ef2bf-effe-4448-84a6-d6d8d4c613ce" d="M793.31132,212.5871h3.16027v9.11964h5.01129v2.73137h-5.01129v21.82844h-3.16027V224.43811h-4.31151v-2.73137h4.31151Z" transform="translate(-7.31828 -10.0674)"/><path class="ae1ef2bf-effe-4448-84a6-d6d8d4c613ce" d="M818.61606,221.70674h3.16027V233.174a24.44976,24.44976,0,0,0,.45147,5.77878,6.43358,6.43358,0,0,0,2.59029,3.56659,7.8605,7.8605,0,0,0,4.55417,1.30926,7.69175,7.69175,0,0,0,4.48646-1.2754,6.517,6.517,0,0,0,2.54514-3.35214,23.70762,23.70762,0,0,0,.47405-6.02709V221.70674h3.228v12.05417a19.06512,19.06512,0,0,1-1.18511,7.65237,9.046,9.046,0,0,1-3.56659,4.02934,11.27046,11.27046,0,0,1-5.97065,1.456,11.38893,11.38893,0,0,1-5.99323-1.456,8.979,8.979,0,0,1-3.58916-4.0632,19.85082,19.85082,0,0,1-1.1851-7.84424Z" transform="translate(-7.31828 -10.0674)"/><path class="ae1ef2bf-effe-4448-84a6-d6d8d4c613ce" d="M857.60025,221.70674h3.36343l8.24492,17.90349,8.14334-17.90349h3.386l-11.24153,24.55981h-.58691Z" transform="translate(-7.31828 -10.0674)"/><path class="ae1ef2bf-effe-4448-84a6-d6d8d4c613ce" d="M895.02688,221.70674h3.25056l7.52821,17.833,7.83578-17.833h.5728l7.88939,17.833,7.67212-17.833H933.063l-10.66873,24.55981h-.58691l-7.8527-17.58465-7.84989,17.58465h-.58691Z" transform="translate(-7.31828 -10.0674)"/><path class="ae1ef2bf-effe-4448-84a6-d6d8d4c613ce" d="M946.765,221.70674h3.79233l6.53216,8.98419,6.46445-8.98419h3.798l-8.3606,11.6027,9.42155,12.95711h-3.84875l-7.47461-10.316-7.43228,10.316h-3.77257l9.30587-12.93453Z" transform="translate(-7.31828 -10.0674)"/><path class="ae1ef2bf-effe-4448-84a6-d6d8d4c613ce" d="M981.91173,221.70674h3.34086l8.43961,18.91083,8.197-18.91083h3.36343l-14.65011,33.544h-3.338l4.72912-10.84368Z" transform="translate(-7.31828 -10.0674)"/><path class="ae1ef2bf-effe-4448-84a6-d6d8d4c613ce" d="M1020.12843,221.70674h18.03611l-13.90519,21.76071h13.45372v2.7991h-18.8939l13.8939-21.78329h-12.58464Z" transform="translate(-7.31828 -10.0674)"/></svg>