<svg id="5f56b870-81b2-4fd0-bcd7-b18c0079978b" data-name="Layer 1" xmlns="http://www.w3.org/2000/svg" width="585.71826" height="164.28809" viewBox="0 0 585.71826 164.28809"><defs><style>.\34 1b5565d-6ce8-4dd9-b94e-c735f7babcda{fill:#231f20;}.\34 16990c2-f418-4f48-bde6-0475bf723fab{fill:#010101;}</style></defs><title>sn-logo</title><path class="41b5565d-6ce8-4dd9-b94e-c735f7babcda" d="M152.17627,164.28809H30.14111c-15.38574,0-27.90332-14.26758-27.90332-31.80567V31.80469C2.23779,14.26758,14.75537,0,30.14111,0H152.17627C167.562,0,180.0791,14.26758,180.0791,31.80469V132.48242C180.0791,150.02051,167.562,164.28809,152.17627,164.28809ZM30.14111,4C16.96094,4,6.23779,16.47314,6.23779,31.80469V132.48242c0,15.332,10.72315,27.80567,23.90332,27.80567H152.17627c13.18018,0,23.90283-12.47364,23.90283-27.80567V31.80469C176.0791,16.47314,165.35645,4,152.17627,4Z" transform="translate(-2.23779)"/><path d="M50.8813,144.24793a6.90923,6.90923,0,1,0-6.90929,6.90928A6.90942,6.90942,0,0,0,50.8813,144.24793Z" transform="translate(-2.23779)"/><path d="M75.3585,145.03788a6.90871,6.90871,0,1,0-6.90871,6.90871A6.90941,6.90941,0,0,0,75.3585,145.03788Z" transform="translate(-2.23779)"/><path class="41b5565d-6ce8-4dd9-b94e-c735f7babcda" d="M95.48486,132.9043c-16.83935,0-34.084-1.85645-46.79736-4.85547-11.06787-2.61133-18.33057-10.044-20.44922-20.92774-3.82764-19.6582-3.832-41.13671-.01367-63.83789,2.43213-14.45508,9.97412-18.8584,20.55029-21.023,28.43115-5.82031,62.58643-5.812,87.01465.021C145.5166,24.603,152.36133,31.51758,156.1333,42.832c5.543,16.63623,3.3335,48.208.09473,64.30762h0c-2.08838,10.375-8.70508,17.19433-20.22852,20.84863C125.13574,131.43359,110.4707,132.9043,95.48486,132.9043ZM93.74316,23.88867A222.43116,222.43116,0,0,0,49.978,28.13818c-8.813,1.80371-13.94727,4.91016-15.83643,16.14014-3.69873,21.98877-3.70312,42.74609-.01367,61.69629,2.10352,10.80664,9.82812,14.793,15.9375,16.23437,26.65869,6.28907,64.39453,6.31543,84.12061.06055,9.38378-2.97558,14.51855-8.15918,16.16015-16.31348,4.76563-23.69091,3.75977-50.22753.09473-61.227-3.11475-9.34423-8.36328-14.77832-16.04492-16.61181C122.59082,25.29834,108.416,23.88867,93.74316,23.88867Z" transform="translate(-2.23779)"/><path class="416990c2-f418-4f48-bde6-0475bf723fab" d="M70.77539,103.666V50.33643h1.16016l35.49218,40.87939V50.33643h5.25684V103.666h-1.19629L76.28564,63.28369V103.666Z" transform="translate(-2.23779)"/><path class="41b5565d-6ce8-4dd9-b94e-c735f7babcda" d="M218.96484,57.70605l4.12891-2.47753q4.36084,8.02734,10.07568,8.02734a9.6528,9.6528,0,0,0,4.5918-1.13965,8.06692,8.06692,0,0,0,3.27051-3.05566,7.91453,7.91453,0,0,0,1.123-4.06348,8.24062,8.24062,0,0,0-1.65186-4.79q-2.27929-3.23656-8.32471-7.7959-6.07836-4.59155-7.56445-6.64013a12.13577,12.13577,0,0,1-2.57715-7.43262,11.27693,11.27693,0,0,1,1.52-5.78076,10.83436,10.83436,0,0,1,4.27783-4.1128,12.32772,12.32772,0,0,1,5.99561-1.50293,12.78093,12.78093,0,0,1,6.42529,1.70118,22.04374,22.04374,0,0,1,6.32568,6.25976l-3.96386,3.00635a19.03013,19.03013,0,0,0-4.67432-4.79,8.05835,8.05835,0,0,0-4.21191-1.15625,6.67138,6.67138,0,0,0-4.80664,1.78369,5.83952,5.83952,0,0,0-1.86621,4.39356,7.47984,7.47984,0,0,0,.66064,3.07226,11.32513,11.32513,0,0,0,2.41162,3.23731q.95727.92577,6.27637,4.856,6.30907,4.6582,8.65478,8.292a13.36388,13.36388,0,0,1,2.34571,7.30029,12.38854,12.38854,0,0,1-4.01368,9.18359,13.49016,13.49016,0,0,1-9.76171,3.89795,14.32327,14.32327,0,0,1-8.02735-2.36181Q222.00391,63.25635,218.96484,57.70605Z" transform="translate(-2.23779)"/><path class="41b5565d-6ce8-4dd9-b94e-c735f7babcda" d="M252.85791,22.9209V18.16406H279.4834V22.9209H268.648V66.75732h-4.95508V22.9209Z" transform="translate(-2.23779)"/><path class="41b5565d-6ce8-4dd9-b94e-c735f7babcda" d="M286.65137,18.16406h4.85644V47.49854a60.82177,60.82177,0,0,0,.19776,6.50781,10.78377,10.78377,0,0,0,1.685,4.80615,9.92362,9.92362,0,0,0,4.063,3.2373,12.72175,12.72175,0,0,0,5.5166,1.30518,10.88974,10.88974,0,0,0,4.62549-1.02441,10.28609,10.28609,0,0,0,3.69922-2.84082,11.59845,11.59845,0,0,0,2.18067-4.39356,36.38852,36.38852,0,0,0,.49511-7.59765V18.16406h4.85645V47.49854a35.72076,35.72076,0,0,1-1.27246,10.521,14.304,14.304,0,0,1-5.08692,6.98682,14.5661,14.5661,0,0,1-9.23291,2.97314,17.69439,17.69439,0,0,1-10.07568-2.80761,13.51988,13.51988,0,0,1-5.61572-7.43311q-.89209-2.84034-.89209-10.24023Z" transform="translate(-2.23779)"/><path class="41b5565d-6ce8-4dd9-b94e-c735f7babcda" d="M330.78516,66.75732V18.16406h10.07519q10.90137,0,15.82324,1.751a21.1519,21.1519,0,0,1,11.05079,8.58887,26.10068,26.10068,0,0,1,3.98046,14.56787,25.546,25.546,0,0,1-3.15527,12.8501,20.22125,20.22125,0,0,1-8.19238,8.19287q-5.0376,2.6433-14.12207,2.64257Zm4.6582-4.59179h5.61523q10.0752,0,13.97364-1.2544a16.11643,16.11643,0,0,0,8.62207-6.41943A19.7633,19.7633,0,0,0,366.793,43.15381a20.79246,20.79246,0,0,0-3.40332-12.01416,17.13793,17.13793,0,0,0-9.48047-6.83252q-4.55859-1.38575-15.03027-1.38623h-3.43555Z" transform="translate(-2.23779)"/><path class="41b5565d-6ce8-4dd9-b94e-c735f7babcda" d="M380.43652,18.16406H385.292V66.75732h-4.85547Z" transform="translate(-2.23779)"/><path class="41b5565d-6ce8-4dd9-b94e-c735f7babcda" d="M419.56543,16.94189A25.21379,25.21379,0,0,1,438.043,24.30811a24.53023,24.53023,0,0,1,7.4375,18.13623,24.65591,24.65591,0,0,1-7.4209,18.10254,24.60656,24.60656,0,0,1-18.09766,7.43261,24.8743,24.8743,0,0,1-18.24707-7.39941,24.3281,24.3281,0,0,1-7.4375-17.90479A25.89224,25.89224,0,0,1,397.666,29.69287a25.02432,25.02432,0,0,1,21.89941-12.751Zm.21484,4.72364a20.7482,20.7482,0,0,0-17.76855,10.38086,21.05458,21.05458,0,0,0-2.71289,10.6123,20.43885,20.43885,0,0,0,20.48144,20.59717A20.791,20.791,0,0,0,430.252,60.51172a19.648,19.648,0,0,0,7.51075-7.5044A21.08666,21.08666,0,0,0,440.459,42.42773a20.57078,20.57078,0,0,0-2.69628-10.46386,20.1383,20.1383,0,0,0-7.59375-7.4878A20.54925,20.54925,0,0,0,419.78027,21.66553Z" transform="translate(-2.23779)"/><path class="41b5565d-6ce8-4dd9-b94e-c735f7babcda" d="M224.019,141.043V92.44922h1.05713l32.34033,37.25v-37.25h4.79V141.043h-1.09033L229.04,104.24707V141.043Z" transform="translate(-2.23779)"/><path class="41b5565d-6ce8-4dd9-b94e-c735f7babcda" d="M297.17334,91.22754a25.21224,25.21224,0,0,1,18.47705,7.36621A25.81248,25.81248,0,0,1,315.668,134.833a24.60684,24.60684,0,0,1-18.09815,7.43261,24.874,24.874,0,0,1-18.24707-7.40039,24.32653,24.32653,0,0,1-7.437-17.90429,25.89,25.89,0,0,1,3.3877-12.98242,25.02582,25.02582,0,0,1,21.8999-12.751Zm.21484,4.72363a20.01323,20.01323,0,0,0-10.22412,2.81055,20.217,20.217,0,0,0-7.54443,7.57031,21.05215,21.05215,0,0,0-2.71289,10.61231A20.438,20.438,0,0,0,297.38818,137.541a20.78581,20.78581,0,0,0,10.4712-2.74317,19.66509,19.66509,0,0,0,7.51171-7.50488,21.09653,21.09653,0,0,0,2.69532-10.58008A20.57622,20.57622,0,0,0,315.37109,106.25a20.15321,20.15321,0,0,0-7.59375-7.48828A20.54477,20.54477,0,0,0,297.38818,95.95117Z" transform="translate(-2.23779)"/><path class="41b5565d-6ce8-4dd9-b94e-c735f7babcda" d="M327.8125,131.99121l4.12988-2.47754q4.35938,8.02734,10.0752,8.02735a9.65016,9.65016,0,0,0,4.5918-1.13965,8.06376,8.06376,0,0,0,3.2705-3.05567,7.90975,7.90975,0,0,0,1.123-4.0625,8.241,8.241,0,0,0-1.65137-4.79q-2.2793-3.2373-8.32519-7.79687-6.07764-4.59083-7.56446-6.63965a12.13881,12.13881,0,0,1-2.57714-7.43262,11.28435,11.28435,0,0,1,1.51953-5.78125,10.83756,10.83756,0,0,1,4.27832-4.1123,12.3285,12.3285,0,0,1,5.99511-1.50293,12.7838,12.7838,0,0,1,6.42579,1.70117,22.04513,22.04513,0,0,1,6.32617,6.25977l-3.96485,3.00586a19.047,19.047,0,0,0-4.67382-4.79A8.05627,8.05627,0,0,0,342.5791,96.249a6.66975,6.66975,0,0,0-4.80664,1.78321,5.83949,5.83949,0,0,0-1.86621,4.39355,7.48722,7.48722,0,0,0,.66016,3.07227,11.31862,11.31862,0,0,0,2.41211,3.2373q.958.92579,6.27636,4.85645,6.30909,4.65673,8.65528,8.291a13.364,13.364,0,0,1,2.34472,7.30078,12.39015,12.39015,0,0,1-4.01367,9.1836,13.49,13.49,0,0,1-9.76074,3.89843,14.31908,14.31908,0,0,1-8.02735-2.3623Q330.85108,137.542,327.8125,131.99121Z" transform="translate(-2.23779)"/><path class="41b5565d-6ce8-4dd9-b94e-c735f7babcda" d="M361.70508,97.207V92.44922h26.626V97.207h-10.835V141.043H372.541V97.207Z" transform="translate(-2.23779)"/><path class="41b5565d-6ce8-4dd9-b94e-c735f7babcda" d="M409.7041,92.44922,432.36523,141.043h-5.24511l-7.64258-15.98828H398.544L390.97363,141.043h-5.417l22.958-48.59375Zm-.61328,10.32422-8.32617,17.58984H417.377Z" transform="translate(-2.23779)"/><path class="41b5565d-6ce8-4dd9-b94e-c735f7babcda" d="M439.89746,92.44922h4.85645v43.90332h18.69726V141.043H439.89746Z" transform="translate(-2.23779)"/><path class="41b5565d-6ce8-4dd9-b94e-c735f7babcda" d="M518.02344,100.60938l-3.7666,3.56738a28.75587,28.75587,0,0,0-8.90235-6.06153,23.95651,23.95651,0,0,0-9.43164-2.06445,22.48373,22.48373,0,0,0-10.88476,2.80762,20.3836,20.3836,0,0,0-8.01075,7.61426,19.64753,19.64753,0,0,0-2.84082,10.1582,20.04913,20.04913,0,0,0,2.94043,10.42187,20.88407,20.88407,0,0,0,8.126,7.76368,23.37353,23.37353,0,0,0,11.36426,2.82421,19.41959,19.41959,0,0,0,12.68457-4.22851,16.68876,16.68876,0,0,0,6.14453-10.96777H499.95312v-4.69043h20.94434q-.06738,11.26464-6.68945,17.88769-6.624,6.624-17.72363,6.624-13.478,0-21.33985-9.18359a24.40923,24.40923,0,0,1-6.04492-16.35254,25.06315,25.06315,0,0,1,3.46875-12.84961,24.65477,24.65477,0,0,1,9.51367-9.2998,27.726,27.726,0,0,1,13.67578-3.35254A30.41386,30.41386,0,0,1,507.38574,93.457,34.71216,34.71216,0,0,1,518.02344,100.60938Z" transform="translate(-2.23779)"/><path class="41b5565d-6ce8-4dd9-b94e-c735f7babcda" d="M529.4541,92.44922h4.85547V141.043H529.4541Z" transform="translate(-2.23779)"/><path class="41b5565d-6ce8-4dd9-b94e-c735f7babcda" d="M565.29492,92.44922,587.95605,141.043h-5.24511l-7.64258-15.98828H554.13477L546.56445,141.043h-5.417l22.958-48.59375Zm-.61328,10.32422-8.32617,17.58984h16.6123Z" transform="translate(-2.23779)"/></svg>