<svg id="39bf8303-0e94-4ac0-815b-865d3dab0cc2" data-name="Layer 1" xmlns="http://www.w3.org/2000/svg" width="130.24654" height="35.12339" viewBox="0 0 130.24654 35.12339"><defs><style>.\34 0b7d57a-a34a-4a1d-afd3-11e2c67445b1,.\37 6d63d4d-c40e-4a1b-94fe-84e1ad615ab4{fill:#fff;}.\37 6d63d4d-c40e-4a1b-94fe-84e1ad615ab4{opacity:0.7;}</style></defs><title>vagrant</title><path class="40b7d57a-a34a-4a1d-afd3-11e2c67445b1" d="M49.75968,4.59906V2.71125H48.03144V4.59906h-.88163V.06368h.88163V1.96553h1.72824V.06368h.88163V4.59906Zm4.11412,0h-.69969l-.063-.22169a1.91976,1.91976,0,0,1-1.01456.28888c-.62273,0-.88859-.40981-.88859-.97415,0-.6651.30089-.92041.99357-.92041h.81864V2.42908c0-.36278-.105-.49042-.65074-.49042a4.95181,4.95181,0,0,0-.94456.10077l-.105-.62479a4.62022,4.62022,0,0,1,1.1685-.15453c1.07053,0,1.3854.36278,1.3854,1.18242ZM53.02018,3.3629h-.62974c-.27984,0-.35681.0739-.35681.32249,0,.2284.077.3292.34283.3292a1.38586,1.38586,0,0,0,.64372-.168ZM55.6619,4.66618a4.16816,4.16816,0,0,1-1.17551-.18812l.11895-.62478a3.96274,3.96274,0,0,0,1.01457.14108c.3778,0,.43376-.08063.43376-.3292,0-.20156-.04193-.30232-.59471-.43-.83262-.19482-.93058-.39639-.93058-1.02788,0-.6584.30083-.94728,1.27341-.94728a4.66212,4.66212,0,0,1,1.02158.11422l-.084.65165a6.2411,6.2411,0,0,0-.9376-.09405c-.37084,0-.43377.08063-.43377.28217,0,.262.021.28217.48278.39638.95158.24185,1.04252.36278,1.04252,1.03459C56.89332,4.27653,56.69044,4.66618,55.6619,4.66618ZM59.56962,4.599V2.31479c0-.17466-.077-.262-.27288-.262a2.42462,2.42462,0,0,0-.88859.27546V4.599h-.85362V0l.85362.12722V1.57579A3.10643,3.10643,0,0,1,59.6536,1.26c.56676,0,.7697.38294.7697.96744V4.599Zm1.5707-3.7353V.06361h.85361V.86369Zm0,3.7353V1.32723h.85361V4.599ZM62.67564,1.3541c0-.81961.49682-1.29661,1.65829-1.29661a5.484,5.484,0,0,1,1.26646.1478l-.098.73229A7.147,7.147,0,0,0,64.36195.82337c-.60875,0-.80467.20153-.80467.67852V3.22175c0,.477.19592.67856.80467.67856a7.146,7.146,0,0,0,1.14048-.11422l.098.73229a5.484,5.484,0,0,1-1.26646.1478c-1.16147,0-1.65829-.477-1.65829-1.29661Zm4.81059,3.31208c-1.1685,0-1.48337-.61808-1.48337-1.2899V2.54993c0-.67181.31487-1.28989,1.48337-1.28989s1.4833.61808,1.4833,1.28989v.82635C68.96953,4.0481,68.65472,4.66618,67.48623,4.66618Zm0-2.70745c-.45483,0-.62975.19485-.62975.56434v.88008c0,.36949.17492.56434.62975.56434s.62968-.19485.62968-.56434V2.52307C68.11591,2.15358,67.941,1.95873,67.48623,1.95873Zm3.88684.05376a6.76976,6.76976,0,0,0-.90263.477V4.599h-.85362V1.32723h.72069l.056.36278a3.88075,3.88075,0,0,1,.89561-.43Zm3.4123,1.49814a1.01031,1.01031,0,0,1-1.1265,1.15555,4.89351,4.89351,0,0,1-.90959-.09406V5.90946l-.85362.12722V1.32723h.6787l.084.27546A1.8426,1.8426,0,0,1,73.73583,1.26c.68572,0,1.04954.38968,1.04954,1.13539Zm-2.03609.36952a3.93581,3.93581,0,0,0,.75566.08734c.30786,0,.42681-.14108.42681-.4367V2.37527c0-.26872-.10491-.41654-.41979-.41654a1.23445,1.23445,0,0,0-.76268.29562Z" transform="translate(-1.42623)"/><path class="40b7d57a-a34a-4a1d-afd3-11e2c67445b1" d="M59.8876,8.25192H63.571L57.97551,26.9796H52.74506L47.14926,8.25192H50.833L55.36013,23.8584Z" transform="translate(-1.42623)"/><path class="40b7d57a-a34a-4a1d-afd3-11e2c67445b1" d="M73.80578,26.9796H70.99386l-.25291-.92786a7.48925,7.48925,0,0,1-4.0774,1.20911c-2.50263,0-3.57127-1.71524-3.57127-4.0774,0-2.78389,1.20911-3.85253,3.993-3.85253h3.29v-1.434c0-1.51839-.42173-2.05256-2.61507-2.05256a19.13268,19.13268,0,0,0-3.79615.42173L63.54234,13.651a17.86658,17.86658,0,0,1,4.696-.64692c4.30228,0,5.56746,1.5184,5.56746,4.9492Zm-3.43049-5.17408H67.84463c-1.125,0-1.43431.30929-1.43431,1.3499,0,.95589.30929,1.37792,1.37793,1.37792a5.4004,5.4004,0,0,0,2.587-.703Z" transform="translate(-1.42623)"/><path class="40b7d57a-a34a-4a1d-afd3-11e2c67445b1" d="M80.35716,23.29589a1.4738,1.4738,0,0,0-.81573,1.09667c0,.36566.22519.53417.75935.59054,1.5184.16882,2.36216.25322,3.965.42173,2.22137.25322,2.92435,1.34989,2.92435,3.318,0,2.92466-1.06864,4.0774-6.18634,4.0774a19.93832,19.93832,0,0,1-5.28651-.703l.42172-2.55869a19.01616,19.01616,0,0,0,4.61157.59022c2.72782,0,3.262-.19653,3.262-1.09636,0-.84376-.25291-.98423-1.29352-1.09667-1.57477-.16881-2.22137-.25322-3.965-.45007-1.94012-.22488-2.69948-.87179-2.69948-2.61507a2.90164,2.90164,0,0,1,1.4343-2.33381,3.97717,3.97717,0,0,1-1.856-3.68371V17.55962c.05637-2.84026,1.54674-4.55551,5.51139-4.55551a9.30408,9.30408,0,0,1,2.33413.28126h4.21787v1.71524c-.4781.14078-1.0406.28125-1.51839.42173a4.6935,4.6935,0,0,1,.47779,2.13728v1.29352c0,2.78388-1.68691,4.47078-5.5114,4.47078A7.12779,7.12779,0,0,1,80.35716,23.29589ZM81.14423,15.76c-1.68721,0-2.27744.61858-2.27744,1.9121v1.04029c0,1.3499.67464,1.856,2.27744,1.856,1.63115,0,2.30579-.53416,2.30579-1.856V17.67206C83.45,16.37854,82.85979,15.76,81.14423,15.76Z" transform="translate(-1.42623)"/><path class="40b7d57a-a34a-4a1d-afd3-11e2c67445b1" d="M96.30018,16.15366a26.84823,26.84823,0,0,0-3.62734,1.9965V26.9796H89.24235V13.28537h2.89633l.22487,1.51839a15.3455,15.3455,0,0,1,3.59931-1.79965Z" transform="translate(-1.42623)"/><path class="40b7d57a-a34a-4a1d-afd3-11e2c67445b1" d="M107.77241,26.9796h-2.81192l-.25291-.92786a7.48922,7.48922,0,0,1-4.0774,1.20911c-2.50263,0-3.57127-1.71524-3.57127-4.0774,0-2.78389,1.20911-3.85253,3.993-3.85253h3.29v-1.434c0-1.51839-.42172-2.05256-2.61507-2.05256a19.13276,19.13276,0,0,0-3.79615.42173L97.509,13.651a17.86645,17.86645,0,0,1,4.696-.64692c4.30228,0,5.56746,1.5184,5.56746,4.9492Zm-3.43049-5.17408h-2.53066c-1.125,0-1.4343.30929-1.4343,1.3499,0,.95589.30928,1.37792,1.37792,1.37792a5.40037,5.40037,0,0,0,2.587-.703Z" transform="translate(-1.42623)"/><path class="40b7d57a-a34a-4a1d-afd3-11e2c67445b1" d="M117.97947,26.9796V17.41883c0-.731-.30929-1.09667-1.09668-1.09667a9.45919,9.45919,0,0,0-3.57127,1.15305V26.9796H109.881V13.28537h2.61507l.33731,1.153a13.71532,13.71532,0,0,1,5.48337-1.4343c2.27775,0,3.09317,1.60281,3.09317,4.04937V26.9796Z" transform="translate(-1.42623)"/><path class="40b7d57a-a34a-4a1d-afd3-11e2c67445b1" d="M131.50426,26.72638a9.50991,9.50991,0,0,1-3.00907.53447c-2.50263,0-3.76781-1.18108-3.76781-3.62733V16.01288h-2.05287V13.28537h2.05287V9.88291l3.43049-.4781v3.88056h3.5149l-.22488,2.72751h-3.29v7.17057a1.08031,1.08031,0,0,0,1.23714,1.20911,6.59909,6.59909,0,0,0,1.71556-.28125Z" transform="translate(-1.42623)"/><polygon class="76d63d4d-c40e-4a1b-94fe-84e1ad615ab4" points="33.966 5.925 33.966 2.708 26.246 7.2 26.246 9.913 20.071 23.238 16.982 25.366 16.982 35.123 23.602 31.307 33.966 5.925"/><polygon class="76d63d4d-c40e-4a1b-94fe-84e1ad615ab4" points="16.982 18.419 12.351 7.611 12.351 4.556 12.319 4.54 7.719 7.2 7.719 9.913 13.895 23.822 16.982 22.296 16.982 18.419"/><polygon class="40b7d57a-a34a-4a1d-afd3-11e2c67445b1" points="29.336 0.007 21.619 4.526 21.615 4.524 21.615 4.529 21.614 4.529 21.615 4.529 21.615 7.611 16.982 18.419 16.982 22.031 13.895 23.822 7.719 9.913 7.719 7.195 12.353 4.529 4.632 0.007 0 2.708 0 6.022 10.424 31.337 16.982 35.123 16.982 25.613 20.071 23.822 20.031 23.799 26.246 9.913 26.246 7.2 26.248 7.195 33.967 2.708 29.336 0.007"/></svg>